%TF.GenerationSoftware,KiCad,Pcbnew,8.0.3*%
%TF.CreationDate,2024-11-10T11:38:16-08:00*%
%TF.ProjectId,Intel 105 BGA NOR+NAND,496e7465-6c20-4313-9035-20424741204e,rev?*%
%TF.SameCoordinates,Original*%
%TF.FileFunction,Soldermask,Top*%
%TF.FilePolarity,Negative*%
%FSLAX46Y46*%
G04 Gerber Fmt 4.6, Leading zero omitted, Abs format (unit mm)*
G04 Created by KiCad (PCBNEW 8.0.3) date 2024-11-10 11:38:16*
%MOMM*%
%LPD*%
G01*
G04 APERTURE LIST*
G04 Aperture macros list*
%AMRoundRect*
0 Rectangle with rounded corners*
0 $1 Rounding radius*
0 $2 $3 $4 $5 $6 $7 $8 $9 X,Y pos of 4 corners*
0 Add a 4 corners polygon primitive as box body*
4,1,4,$2,$3,$4,$5,$6,$7,$8,$9,$2,$3,0*
0 Add four circle primitives for the rounded corners*
1,1,$1+$1,$2,$3*
1,1,$1+$1,$4,$5*
1,1,$1+$1,$6,$7*
1,1,$1+$1,$8,$9*
0 Add four rect primitives between the rounded corners*
20,1,$1+$1,$2,$3,$4,$5,0*
20,1,$1+$1,$4,$5,$6,$7,0*
20,1,$1+$1,$6,$7,$8,$9,0*
20,1,$1+$1,$8,$9,$2,$3,0*%
%AMFreePoly0*
4,1,19,0.550000,-0.750000,0.000000,-0.750000,0.000000,-0.744911,-0.071157,-0.744911,-0.207708,-0.704816,-0.327430,-0.627875,-0.420627,-0.520320,-0.479746,-0.390866,-0.500000,-0.250000,-0.500000,0.250000,-0.479746,0.390866,-0.420627,0.520320,-0.327430,0.627875,-0.207708,0.704816,-0.071157,0.744911,0.000000,0.744911,0.000000,0.750000,0.550000,0.750000,0.550000,-0.750000,0.550000,-0.750000,
$1*%
%AMFreePoly1*
4,1,19,0.000000,0.744911,0.071157,0.744911,0.207708,0.704816,0.327430,0.627875,0.420627,0.520320,0.479746,0.390866,0.500000,0.250000,0.500000,-0.250000,0.479746,-0.390866,0.420627,-0.520320,0.327430,-0.627875,0.207708,-0.704816,0.071157,-0.744911,0.000000,-0.744911,0.000000,-0.750000,-0.550000,-0.750000,-0.550000,0.750000,0.000000,0.750000,0.000000,0.744911,0.000000,0.744911,
$1*%
G04 Aperture macros list end*
%ADD10RoundRect,0.250000X0.475000X-0.337500X0.475000X0.337500X-0.475000X0.337500X-0.475000X-0.337500X0*%
%ADD11FreePoly0,0.000000*%
%ADD12R,1.000000X1.500000*%
%ADD13FreePoly1,0.000000*%
%ADD14R,2.400000X1.600000*%
%ADD15O,2.400000X1.600000*%
%ADD16R,1.700000X1.700000*%
%ADD17O,1.700000X1.700000*%
%ADD18C,0.400000*%
G04 APERTURE END LIST*
D10*
%TO.C,C2*%
X157680000Y-94887500D03*
X157680000Y-92812500D03*
%TD*%
D11*
%TO.C,CE4*%
X150000000Y-79425000D03*
D12*
X151300000Y-79425000D03*
D13*
X152600000Y-79425000D03*
%TD*%
D14*
%TO.C,J3*%
X140131800Y-63398400D03*
D15*
X140131800Y-65938400D03*
X140131800Y-68478400D03*
X140131800Y-71018400D03*
X140131800Y-73558400D03*
X140131800Y-76098400D03*
X140131800Y-78638400D03*
X140131800Y-81178400D03*
X140131800Y-83718400D03*
X140131800Y-86258400D03*
X140131800Y-88798400D03*
X140131800Y-91338400D03*
X140131800Y-93878400D03*
X140131800Y-96418400D03*
X140131800Y-98958400D03*
X140131800Y-101498400D03*
X140131800Y-104038400D03*
X140131800Y-106578400D03*
X140131800Y-109118400D03*
X140131800Y-111658400D03*
X140131800Y-114198400D03*
X140131800Y-116738400D03*
X140131800Y-119278400D03*
X140131800Y-121818400D03*
X155371800Y-121818400D03*
X155371800Y-119278400D03*
X155371800Y-116738400D03*
X155371800Y-114198400D03*
X155371800Y-111658400D03*
X155371800Y-109118400D03*
X155371800Y-106578400D03*
X155371800Y-104038400D03*
X155371800Y-101498400D03*
X155371800Y-98958400D03*
X155371800Y-96418400D03*
X155371800Y-93878400D03*
X155371800Y-91338400D03*
X155371800Y-88798400D03*
X155371800Y-86258400D03*
X155371800Y-83718400D03*
X155371800Y-81178400D03*
X155371800Y-78638400D03*
X155371800Y-76098400D03*
X155371800Y-73558400D03*
X155371800Y-71018400D03*
X155371800Y-68478400D03*
X155371800Y-65938400D03*
X155371800Y-63398400D03*
%TD*%
D14*
%TO.C,J1*%
X171348400Y-63423800D03*
D15*
X171348400Y-65963800D03*
X171348400Y-68503800D03*
X171348400Y-71043800D03*
X171348400Y-73583800D03*
X171348400Y-76123800D03*
X171348400Y-78663800D03*
X171348400Y-81203800D03*
X171348400Y-83743800D03*
X171348400Y-86283800D03*
X171348400Y-88823800D03*
X171348400Y-91363800D03*
X171348400Y-93903800D03*
X171348400Y-96443800D03*
X171348400Y-98983800D03*
X171348400Y-101523800D03*
X171348400Y-104063800D03*
X171348400Y-106603800D03*
X171348400Y-109143800D03*
X171348400Y-111683800D03*
X171348400Y-114223800D03*
X171348400Y-116763800D03*
X171348400Y-119303800D03*
X171348400Y-121843800D03*
X186588400Y-121843800D03*
X186588400Y-119303800D03*
X186588400Y-116763800D03*
X186588400Y-114223800D03*
X186588400Y-111683800D03*
X186588400Y-109143800D03*
X186588400Y-106603800D03*
X186588400Y-104063800D03*
X186588400Y-101523800D03*
X186588400Y-98983800D03*
X186588400Y-96443800D03*
X186588400Y-93903800D03*
X186588400Y-91363800D03*
X186588400Y-88823800D03*
X186588400Y-86283800D03*
X186588400Y-83743800D03*
X186588400Y-81203800D03*
X186588400Y-78663800D03*
X186588400Y-76123800D03*
X186588400Y-73583800D03*
X186588400Y-71043800D03*
X186588400Y-68503800D03*
X186588400Y-65963800D03*
X186588400Y-63423800D03*
%TD*%
D11*
%TO.C,CE2*%
X174575000Y-93900000D03*
D12*
X175875000Y-93900000D03*
D13*
X177175000Y-93900000D03*
%TD*%
D16*
%TO.C,J2*%
X175691800Y-63525400D03*
D17*
X175691800Y-66065400D03*
X175691800Y-68605400D03*
X175691800Y-71145400D03*
X175691800Y-73685400D03*
X175691800Y-76225400D03*
X175691800Y-78765400D03*
X175691800Y-81305400D03*
%TD*%
D18*
%TO.C,U1*%
X160287000Y-87172800D03*
X161087000Y-87172800D03*
X161887000Y-87172800D03*
X162687000Y-87172800D03*
X163487000Y-87172800D03*
X164287000Y-87172800D03*
X165087000Y-87172800D03*
X165887000Y-87172800D03*
X166687000Y-87172800D03*
X160287000Y-87972800D03*
X161087000Y-87972800D03*
X161887000Y-87972800D03*
X162687000Y-87972800D03*
X163487000Y-87972800D03*
X164287000Y-87972800D03*
X165087000Y-87972800D03*
X165887000Y-87972800D03*
X166687000Y-87972800D03*
X160287000Y-88772800D03*
X161087000Y-88772800D03*
X161887000Y-88772800D03*
X162687000Y-88772800D03*
X163487000Y-88772800D03*
X164287000Y-88772800D03*
X165087000Y-88772800D03*
X165887000Y-88772800D03*
X166687000Y-88772800D03*
X160287000Y-89572800D03*
X161087000Y-89572800D03*
X161887000Y-89572800D03*
X162687000Y-89572800D03*
X163487000Y-89572800D03*
X164287000Y-89572800D03*
X165087000Y-89572800D03*
X165887000Y-89572800D03*
X166687000Y-89572800D03*
X160287000Y-90372800D03*
X161087000Y-90372800D03*
X161887000Y-90372800D03*
X163487000Y-90372800D03*
X164287000Y-90372800D03*
X165087000Y-90372800D03*
X165887000Y-90372800D03*
X166687000Y-90372800D03*
X160287000Y-91172800D03*
X161087000Y-91172800D03*
X161887000Y-91172800D03*
X162687000Y-91172800D03*
X164287000Y-91172800D03*
X165087000Y-91172800D03*
X165887000Y-91172800D03*
X166687000Y-91172800D03*
X160287000Y-91972800D03*
X161087000Y-91972800D03*
X161887000Y-91972800D03*
X162687000Y-91972800D03*
X164287000Y-91972800D03*
X165087000Y-91972800D03*
X165887000Y-91972800D03*
X166687000Y-91972800D03*
X160287000Y-92772800D03*
X161087000Y-92772800D03*
X161887000Y-92772800D03*
X162687000Y-92772800D03*
X163487000Y-92772800D03*
X164287000Y-92772800D03*
X165087000Y-92772800D03*
X165887000Y-92772800D03*
X166687000Y-92772800D03*
X160287000Y-93572800D03*
X161087000Y-93572800D03*
X161887000Y-93572800D03*
X162687000Y-93572800D03*
X163487000Y-93572800D03*
X164287000Y-93572800D03*
X165087000Y-93572800D03*
X165887000Y-93572800D03*
X166687000Y-93572800D03*
X160287000Y-94372800D03*
X161087000Y-94372800D03*
X161887000Y-94372800D03*
X162687000Y-94372800D03*
X163487000Y-94372800D03*
X164287000Y-94372800D03*
X165087000Y-94372800D03*
X165887000Y-94372800D03*
X166687000Y-94372800D03*
X160287000Y-95172800D03*
X161087000Y-95172800D03*
X161887000Y-95172800D03*
X162687000Y-95172800D03*
X163487000Y-95172800D03*
X164287000Y-95172800D03*
X165087000Y-95172800D03*
X165887000Y-95172800D03*
X166687000Y-95172800D03*
X160287000Y-95972800D03*
X161087000Y-95972800D03*
X161887000Y-95972800D03*
X162687000Y-95972800D03*
X163487000Y-95972800D03*
X164287000Y-95972800D03*
X165087000Y-95972800D03*
X165887000Y-95972800D03*
X166687000Y-95972800D03*
%TD*%
D10*
%TO.C,C1*%
X168350000Y-82917500D03*
X168350000Y-80842500D03*
%TD*%
D11*
%TO.C,CE3*%
X149975000Y-74750000D03*
D12*
X151275000Y-74750000D03*
D13*
X152575000Y-74750000D03*
%TD*%
D11*
%TO.C,CE1*%
X174575000Y-87025000D03*
D12*
X175875000Y-87025000D03*
D13*
X177175000Y-87025000D03*
%TD*%
M02*
