M48
; DRILL file {KiCad 8.0.3} date 2024-11-10T11:38:20-0800
; FORMAT={-:-/ absolute / inch / decimal}
; #@! TF.CreationDate,2024-11-10T11:38:20-08:00
; #@! TF.GenerationSoftware,Kicad,Pcbnew,8.0.3
; #@! TF.FileFunction,Plated,1,2,PTH
FMAT,2
INCH
; #@! TA.AperFunction,Plated,PTH,ViaDrill
T1C0.0079
; #@! TA.AperFunction,Plated,PTH,ComponentDrill
T2C0.0315
; #@! TA.AperFunction,Plated,PTH,ComponentDrill
T3C0.0394
%
G90
G05
T1
X5.915Y-3.1864
X6.2023Y-3.9715
X6.2325Y-3.2807
X6.2466Y-3.5812
X6.2844Y-3.6841
X6.2929Y-4.3409
X6.3125Y-3.1976
X6.3263Y-3.097
X6.3264Y-3.799
X6.3268Y-3.4793
X6.3421Y-4.1492
X6.3571Y-3.5425
X6.3573Y-3.6378
X6.3573Y-3.6998
X6.3724Y-3.8248
X6.3724Y-4.5444
X6.3868Y-3.7337
X6.3895Y-4.361
X6.405Y-3.403
X6.405Y-3.7982
X6.4129Y-3.3422
X6.4207Y-4.4706
X6.421Y-3.668
X6.4236Y-3.5807
X6.4237Y-3.6016
X6.4237Y-3.6211
X6.4376Y-4.3563
X6.4518Y-3.7313
X6.4519Y-3.8061
X6.4519Y-4.296
X6.468Y-3.9526
X6.4828Y-3.6677
X6.4835Y-3.5106
X6.4837Y-3.4792
X6.4995Y-3.307
X6.5146Y-3.4795
X6.515Y-3.637
X6.5152Y-3.7303
X6.5463Y-3.4469
X6.5463Y-3.5108
X6.547Y-3.6999
X6.5795Y-3.6122
X6.5797Y-3.6368
X6.5813Y-3.7078
X6.5878Y-3.1752
X6.6176Y-3.5517
X6.6476Y-3.5128
X6.6565Y-3.8159
X6.6598Y-3.5878
X6.6638Y-3.4705
X6.8023Y-3.967
X6.8346Y-3.3022
X6.8508Y-3.797
X6.9242Y-3.8722
X6.9754Y-3.2776
X6.9872Y-3.7501
X7.077Y-3.7358
X7.277Y-2.8461
T2
X5.517Y-2.496
X5.517Y-2.596
X5.517Y-2.696
X5.517Y-2.796
X5.517Y-2.896
X5.517Y-2.996
X5.517Y-3.096
X5.517Y-3.196
X5.517Y-3.296
X5.517Y-3.396
X5.517Y-3.496
X5.517Y-3.596
X5.517Y-3.696
X5.517Y-3.796
X5.517Y-3.896
X5.517Y-3.996
X5.517Y-4.096
X5.517Y-4.196
X5.517Y-4.296
X5.517Y-4.396
X5.517Y-4.496
X5.517Y-4.596
X5.517Y-4.696
X5.517Y-4.796
X6.117Y-2.496
X6.117Y-2.596
X6.117Y-2.696
X6.117Y-2.796
X6.117Y-2.896
X6.117Y-2.996
X6.117Y-3.096
X6.117Y-3.196
X6.117Y-3.296
X6.117Y-3.396
X6.117Y-3.496
X6.117Y-3.596
X6.117Y-3.696
X6.117Y-3.796
X6.117Y-3.896
X6.117Y-3.996
X6.117Y-4.096
X6.117Y-4.196
X6.117Y-4.296
X6.117Y-4.396
X6.117Y-4.496
X6.117Y-4.596
X6.117Y-4.696
X6.117Y-4.796
X6.746Y-2.497
X6.746Y-2.597
X6.746Y-2.697
X6.746Y-2.797
X6.746Y-2.897
X6.746Y-2.997
X6.746Y-3.097
X6.746Y-3.197
X6.746Y-3.297
X6.746Y-3.397
X6.746Y-3.497
X6.746Y-3.597
X6.746Y-3.697
X6.746Y-3.797
X6.746Y-3.897
X6.746Y-3.997
X6.746Y-4.097
X6.746Y-4.197
X6.746Y-4.297
X6.746Y-4.397
X6.746Y-4.497
X6.746Y-4.597
X6.746Y-4.697
X6.746Y-4.797
X7.346Y-2.497
X7.346Y-2.597
X7.346Y-2.697
X7.346Y-2.797
X7.346Y-2.897
X7.346Y-2.997
X7.346Y-3.097
X7.346Y-3.197
X7.346Y-3.297
X7.346Y-3.397
X7.346Y-3.497
X7.346Y-3.597
X7.346Y-3.697
X7.346Y-3.797
X7.346Y-3.897
X7.346Y-3.997
X7.346Y-4.097
X7.346Y-4.197
X7.346Y-4.297
X7.346Y-4.397
X7.346Y-4.497
X7.346Y-4.597
X7.346Y-4.697
X7.346Y-4.797
T3
X6.917Y-2.501
X6.917Y-2.601
X6.917Y-2.701
X6.917Y-2.801
X6.917Y-2.901
X6.917Y-3.001
X6.917Y-3.101
X6.917Y-3.201
M30
