%TF.GenerationSoftware,KiCad,Pcbnew,8.0.3*%
%TF.CreationDate,2024-11-10T11:38:16-08:00*%
%TF.ProjectId,Intel 105 BGA NOR+NAND,496e7465-6c20-4313-9035-20424741204e,rev?*%
%TF.SameCoordinates,Original*%
%TF.FileFunction,Soldermask,Bot*%
%TF.FilePolarity,Negative*%
%FSLAX46Y46*%
G04 Gerber Fmt 4.6, Leading zero omitted, Abs format (unit mm)*
G04 Created by KiCad (PCBNEW 8.0.3) date 2024-11-10 11:38:16*
%MOMM*%
%LPD*%
G01*
G04 APERTURE LIST*
%ADD10R,2.400000X1.600000*%
%ADD11O,2.400000X1.600000*%
%ADD12R,1.700000X1.700000*%
%ADD13O,1.700000X1.700000*%
G04 APERTURE END LIST*
D10*
%TO.C,J3*%
X140131800Y-63398400D03*
D11*
X140131800Y-65938400D03*
X140131800Y-68478400D03*
X140131800Y-71018400D03*
X140131800Y-73558400D03*
X140131800Y-76098400D03*
X140131800Y-78638400D03*
X140131800Y-81178400D03*
X140131800Y-83718400D03*
X140131800Y-86258400D03*
X140131800Y-88798400D03*
X140131800Y-91338400D03*
X140131800Y-93878400D03*
X140131800Y-96418400D03*
X140131800Y-98958400D03*
X140131800Y-101498400D03*
X140131800Y-104038400D03*
X140131800Y-106578400D03*
X140131800Y-109118400D03*
X140131800Y-111658400D03*
X140131800Y-114198400D03*
X140131800Y-116738400D03*
X140131800Y-119278400D03*
X140131800Y-121818400D03*
X155371800Y-121818400D03*
X155371800Y-119278400D03*
X155371800Y-116738400D03*
X155371800Y-114198400D03*
X155371800Y-111658400D03*
X155371800Y-109118400D03*
X155371800Y-106578400D03*
X155371800Y-104038400D03*
X155371800Y-101498400D03*
X155371800Y-98958400D03*
X155371800Y-96418400D03*
X155371800Y-93878400D03*
X155371800Y-91338400D03*
X155371800Y-88798400D03*
X155371800Y-86258400D03*
X155371800Y-83718400D03*
X155371800Y-81178400D03*
X155371800Y-78638400D03*
X155371800Y-76098400D03*
X155371800Y-73558400D03*
X155371800Y-71018400D03*
X155371800Y-68478400D03*
X155371800Y-65938400D03*
X155371800Y-63398400D03*
%TD*%
D10*
%TO.C,J1*%
X171348400Y-63423800D03*
D11*
X171348400Y-65963800D03*
X171348400Y-68503800D03*
X171348400Y-71043800D03*
X171348400Y-73583800D03*
X171348400Y-76123800D03*
X171348400Y-78663800D03*
X171348400Y-81203800D03*
X171348400Y-83743800D03*
X171348400Y-86283800D03*
X171348400Y-88823800D03*
X171348400Y-91363800D03*
X171348400Y-93903800D03*
X171348400Y-96443800D03*
X171348400Y-98983800D03*
X171348400Y-101523800D03*
X171348400Y-104063800D03*
X171348400Y-106603800D03*
X171348400Y-109143800D03*
X171348400Y-111683800D03*
X171348400Y-114223800D03*
X171348400Y-116763800D03*
X171348400Y-119303800D03*
X171348400Y-121843800D03*
X186588400Y-121843800D03*
X186588400Y-119303800D03*
X186588400Y-116763800D03*
X186588400Y-114223800D03*
X186588400Y-111683800D03*
X186588400Y-109143800D03*
X186588400Y-106603800D03*
X186588400Y-104063800D03*
X186588400Y-101523800D03*
X186588400Y-98983800D03*
X186588400Y-96443800D03*
X186588400Y-93903800D03*
X186588400Y-91363800D03*
X186588400Y-88823800D03*
X186588400Y-86283800D03*
X186588400Y-83743800D03*
X186588400Y-81203800D03*
X186588400Y-78663800D03*
X186588400Y-76123800D03*
X186588400Y-73583800D03*
X186588400Y-71043800D03*
X186588400Y-68503800D03*
X186588400Y-65963800D03*
X186588400Y-63423800D03*
%TD*%
D12*
%TO.C,J2*%
X175691800Y-63525400D03*
D13*
X175691800Y-66065400D03*
X175691800Y-68605400D03*
X175691800Y-71145400D03*
X175691800Y-73685400D03*
X175691800Y-76225400D03*
X175691800Y-78765400D03*
X175691800Y-81305400D03*
%TD*%
M02*
