%TF.GenerationSoftware,KiCad,Pcbnew,8.0.7*%
%TF.CreationDate,2025-02-11T22:57:12-05:00*%
%TF.ProjectId,Intel 105 BGA NOR+NAND NonMux,496e7465-6c20-4313-9035-20424741204e,rev?*%
%TF.SameCoordinates,Original*%
%TF.FileFunction,Copper,L2,Bot*%
%TF.FilePolarity,Positive*%
%FSLAX46Y46*%
G04 Gerber Fmt 4.6, Leading zero omitted, Abs format (unit mm)*
G04 Created by KiCad (PCBNEW 8.0.7) date 2025-02-11 22:57:12*
%MOMM*%
%LPD*%
G01*
G04 APERTURE LIST*
%TA.AperFunction,ComponentPad*%
%ADD10R,2.400000X1.600000*%
%TD*%
%TA.AperFunction,ComponentPad*%
%ADD11O,2.400000X1.600000*%
%TD*%
%TA.AperFunction,ComponentPad*%
%ADD12R,1.600000X1.600000*%
%TD*%
%TA.AperFunction,ComponentPad*%
%ADD13C,1.600000*%
%TD*%
%TA.AperFunction,ViaPad*%
%ADD14C,0.350000*%
%TD*%
%TA.AperFunction,Conductor*%
%ADD15C,0.127000*%
%TD*%
G04 APERTURE END LIST*
D10*
%TO.P,J3,1,Pin_1*%
%TO.N,/D4*%
X140131800Y-63398400D03*
D11*
%TO.P,J3,2,Pin_2*%
%TO.N,/D6*%
X140131800Y-65938400D03*
%TO.P,J3,3,Pin_3*%
%TO.N,GND*%
X140131800Y-68478400D03*
%TO.P,J3,4,Pin_4*%
%TO.N,VCC*%
X140131800Y-71018400D03*
%TO.P,J3,5,Pin_5*%
%TO.N,/D5*%
X140131800Y-73558400D03*
%TO.P,J3,6,Pin_6*%
%TO.N,/D7*%
X140131800Y-76098400D03*
%TO.P,J3,7,Pin_7*%
%TO.N,/D12*%
X140131800Y-78638400D03*
%TO.P,J3,8,Pin_8*%
%TO.N,/D14*%
X140131800Y-81178400D03*
%TO.P,J3,9,Pin_9*%
%TO.N,VCC*%
X140131800Y-83718400D03*
%TO.P,J3,10,Pin_10*%
%TO.N,/D13*%
X140131800Y-86258400D03*
%TO.P,J3,11,Pin_11*%
%TO.N,/D15*%
X140131800Y-88798400D03*
%TO.P,J3,12,Pin_12*%
%TO.N,unconnected-(J3-Pin_12-Pad12)*%
X140131800Y-91338400D03*
%TO.P,J3,13,Pin_13*%
%TO.N,unconnected-(J3-Pin_13-Pad13)*%
X140131800Y-93878400D03*
%TO.P,J3,14,Pin_14*%
%TO.N,GND*%
X140131800Y-96418400D03*
%TO.P,J3,15,Pin_15*%
%TO.N,unconnected-(J3-Pin_15-Pad15)*%
X140131800Y-98958400D03*
%TO.P,J3,16,Pin_16*%
%TO.N,unconnected-(J3-Pin_16-Pad16)*%
X140131800Y-101498400D03*
%TO.P,J3,17,Pin_17*%
%TO.N,unconnected-(J3-Pin_17-Pad17)*%
X140131800Y-104038400D03*
%TO.P,J3,18,Pin_18*%
%TO.N,unconnected-(J3-Pin_18-Pad18)*%
X140131800Y-106578400D03*
%TO.P,J3,19,Pin_19*%
%TO.N,unconnected-(J3-Pin_19-Pad19)*%
X140131800Y-109118400D03*
%TO.P,J3,20,Pin_20*%
%TO.N,unconnected-(J3-Pin_20-Pad20)*%
X140131800Y-111658400D03*
%TO.P,J3,21,Pin_21*%
%TO.N,unconnected-(J3-Pin_21-Pad21)*%
X140131800Y-114198400D03*
%TO.P,J3,22,Pin_22*%
%TO.N,/N-RY{slash}BY*%
X140131800Y-116738400D03*
%TO.P,J3,23,Pin_23*%
%TO.N,/N-WE*%
X140131800Y-119278400D03*
%TO.P,J3,24,Pin_24*%
%TO.N,/CE*%
X140131800Y-121818400D03*
%TO.P,J3,25,Pin_25*%
%TO.N,GND*%
X155371800Y-121818400D03*
%TO.P,J3,26,Pin_26*%
%TO.N,/ALE*%
X155371800Y-119278400D03*
%TO.P,J3,27,Pin_27*%
%TO.N,/N-WP2*%
X155371800Y-116738400D03*
%TO.P,J3,28,Pin_28*%
%TO.N,/CLE*%
X155371800Y-114198400D03*
%TO.P,J3,29,Pin_29*%
%TO.N,/N-RE*%
X155371800Y-111658400D03*
%TO.P,J3,30,Pin_30*%
%TO.N,VCC*%
X155371800Y-109118400D03*
%TO.P,J3,31,Pin_31*%
%TO.N,unconnected-(J3-Pin_31-Pad31)*%
X155371800Y-106578400D03*
%TO.P,J3,32,Pin_32*%
%TO.N,unconnected-(J3-Pin_32-Pad32)*%
X155371800Y-104038400D03*
%TO.P,J3,33,Pin_33*%
%TO.N,unconnected-(J3-Pin_33-Pad33)*%
X155371800Y-101498400D03*
%TO.P,J3,34,Pin_34*%
%TO.N,unconnected-(J3-Pin_34-Pad34)*%
X155371800Y-98958400D03*
%TO.P,J3,35,Pin_35*%
%TO.N,unconnected-(J3-Pin_35-Pad35)*%
X155371800Y-96418400D03*
%TO.P,J3,36,Pin_36*%
%TO.N,unconnected-(J3-Pin_36-Pad36)*%
X155371800Y-93878400D03*
%TO.P,J3,37,Pin_37*%
%TO.N,unconnected-(J3-Pin_37-Pad37)*%
X155371800Y-91338400D03*
%TO.P,J3,38,Pin_38*%
%TO.N,VCC*%
X155371800Y-88798400D03*
%TO.P,J3,39,Pin_39*%
%TO.N,unconnected-(J3-Pin_39-Pad39)*%
X155371800Y-86258400D03*
%TO.P,J3,40,Pin_40*%
%TO.N,/D8*%
X155371800Y-83718400D03*
%TO.P,J3,41,Pin_41*%
%TO.N,/D0*%
X155371800Y-81178400D03*
%TO.P,J3,42,Pin_42*%
%TO.N,/D10*%
X155371800Y-78638400D03*
%TO.P,J3,43,Pin_43*%
%TO.N,/D9*%
X155371800Y-76098400D03*
%TO.P,J3,44,Pin_44*%
%TO.N,/D1*%
X155371800Y-73558400D03*
%TO.P,J3,45,Pin_45*%
%TO.N,/D11*%
X155371800Y-71018400D03*
%TO.P,J3,46,Pin_46*%
%TO.N,GND*%
X155371800Y-68478400D03*
%TO.P,J3,47,Pin_47*%
%TO.N,/D2*%
X155371800Y-65938400D03*
%TO.P,J3,48,Pin_48*%
%TO.N,/D3*%
X155371800Y-63398400D03*
%TD*%
D10*
%TO.P,J1,1,Pin_1*%
%TO.N,/A16*%
X171348400Y-63423800D03*
D11*
%TO.P,J1,2,Pin_2*%
%TO.N,/A20*%
X171348400Y-65963800D03*
%TO.P,J1,3,Pin_3*%
%TO.N,/A21*%
X171348400Y-68503800D03*
%TO.P,J1,4,Pin_4*%
%TO.N,/A15*%
X171348400Y-71043800D03*
%TO.P,J1,5,Pin_5*%
%TO.N,/A19*%
X171348400Y-73583800D03*
%TO.P,J1,6,Pin_6*%
%TO.N,/A18*%
X171348400Y-76123800D03*
%TO.P,J1,7,Pin_7*%
%TO.N,/A17*%
X171348400Y-78663800D03*
%TO.P,J1,8,Pin_8*%
%TO.N,/F-WP1*%
X171348400Y-81203800D03*
%TO.P,J1,9,Pin_9*%
%TO.N,/A24*%
X171348400Y-83743800D03*
%TO.P,J1,10,Pin_10*%
%TO.N,/A14*%
X171348400Y-86283800D03*
%TO.P,J1,11,Pin_11*%
%TO.N,/A13*%
X171348400Y-88823800D03*
%TO.P,J1,12,Pin_12*%
%TO.N,/A12*%
X171348400Y-91363800D03*
%TO.P,J1,13,Pin_13*%
%TO.N,VPP*%
X171348400Y-93903800D03*
%TO.P,J1,14,Pin_14*%
%TO.N,/CE*%
X171348400Y-96443800D03*
%TO.P,J1,15,Pin_15*%
%TO.N,/A11*%
X171348400Y-98983800D03*
%TO.P,J1,16,Pin_16*%
%TO.N,/F-RST*%
X171348400Y-101523800D03*
%TO.P,J1,17,Pin_17*%
%TO.N,/A7*%
X171348400Y-104063800D03*
%TO.P,J1,18,Pin_18*%
%TO.N,/A8*%
X171348400Y-106603800D03*
%TO.P,J1,19,Pin_19*%
%TO.N,/A9*%
X171348400Y-109143800D03*
%TO.P,J1,20,Pin_20*%
%TO.N,/A10*%
X171348400Y-111683800D03*
%TO.P,J1,21,Pin_21*%
%TO.N,/A5*%
X171348400Y-114223800D03*
%TO.P,J1,22,Pin_22*%
%TO.N,/A6*%
X171348400Y-116763800D03*
%TO.P,J1,23,Pin_23*%
%TO.N,/A4*%
X171348400Y-119303800D03*
%TO.P,J1,24,Pin_24*%
%TO.N,/A0*%
X171348400Y-121843800D03*
%TO.P,J1,25,Pin_25*%
%TO.N,/A1*%
X186588400Y-121843800D03*
%TO.P,J1,26,Pin_26*%
%TO.N,/A2*%
X186588400Y-119303800D03*
%TO.P,J1,27,Pin_27*%
%TO.N,/A3*%
X186588400Y-116763800D03*
%TO.P,J1,28,Pin_28*%
%TO.N,/D8*%
X186588400Y-114223800D03*
%TO.P,J1,29,Pin_29*%
%TO.N,/A22*%
X186588400Y-111683800D03*
%TO.P,J1,30,Pin_30*%
%TO.N,/D1*%
X186588400Y-109143800D03*
%TO.P,J1,31,Pin_31*%
%TO.N,/D0*%
X186588400Y-106603800D03*
%TO.P,J1,32,Pin_32*%
%TO.N,/D9*%
X186588400Y-104063800D03*
%TO.P,J1,33,Pin_33*%
%TO.N,/D10*%
X186588400Y-101523800D03*
%TO.P,J1,34,Pin_34*%
%TO.N,/D2*%
X186588400Y-98983800D03*
%TO.P,J1,35,Pin_35*%
%TO.N,/D3*%
X186588400Y-96443800D03*
%TO.P,J1,36,Pin_36*%
%TO.N,/D11*%
X186588400Y-93903800D03*
%TO.P,J1,37,Pin_37*%
%TO.N,/D13*%
X186588400Y-91363800D03*
%TO.P,J1,38,Pin_38*%
%TO.N,/D5*%
X186588400Y-88823800D03*
%TO.P,J1,39,Pin_39*%
%TO.N,/D12*%
X186588400Y-86283800D03*
%TO.P,J1,40,Pin_40*%
%TO.N,/D4*%
X186588400Y-83743800D03*
%TO.P,J1,41,Pin_41*%
%TO.N,/D6*%
X186588400Y-81203800D03*
%TO.P,J1,42,Pin_42*%
%TO.N,/D7*%
X186588400Y-78663800D03*
%TO.P,J1,43,Pin_43*%
%TO.N,/D14*%
X186588400Y-76123800D03*
%TO.P,J1,44,Pin_44*%
%TO.N,/D15*%
X186588400Y-73583800D03*
%TO.P,J1,45,Pin_45*%
%TO.N,/A23*%
X186588400Y-71043800D03*
%TO.P,J1,46,Pin_46*%
%TO.N,/F-WE*%
X186588400Y-68503800D03*
%TO.P,J1,47,Pin_47*%
%TO.N,/F-OE*%
X186588400Y-65963800D03*
%TO.P,J1,48,Pin_48*%
%TO.N,unconnected-(J1-Pin_48-Pad48)*%
X186588400Y-63423800D03*
%TD*%
D12*
%TO.P,J2,1,Pin_1*%
%TO.N,unconnected-(J2-Pin_1-Pad1)*%
X175691800Y-63525400D03*
D13*
%TO.P,J2,2,Pin_2*%
%TO.N,GND*%
X175691800Y-66065400D03*
%TO.P,J2,3,Pin_3*%
%TO.N,VCC*%
X175691800Y-68605400D03*
%TO.P,J2,4,Pin_4*%
%TO.N,GND*%
X175691800Y-71145400D03*
%TO.P,J2,5,Pin_5*%
%TO.N,VCC*%
X175691800Y-73685400D03*
%TO.P,J2,6,Pin_6*%
%TO.N,/ADV*%
X175691800Y-76225400D03*
%TO.P,J2,7,Pin_7*%
%TO.N,VCC*%
X175691800Y-78765400D03*
%TO.P,J2,8,Pin_8*%
%TO.N,/A25*%
X175691800Y-81305400D03*
%TD*%
D14*
%TO.N,/D15*%
X163960000Y-70385500D03*
X150410000Y-67803500D03*
X163960836Y-64099800D03*
%TO.N,/D14*%
X163484213Y-64353800D03*
%TO.N,/D7*%
X163010000Y-64607800D03*
%TO.N,/A19*%
X172804500Y-77053800D03*
%TO.N,/D6*%
X160093520Y-64386480D03*
%TO.N,/D13*%
X158180000Y-64754400D03*
%TO.N,/D12*%
X158545500Y-65200000D03*
%TO.N,/D5*%
X159976203Y-67071400D03*
%TO.N,/A22*%
X175119765Y-102010235D03*
%TO.N,/ALE*%
X165500000Y-89960000D03*
%TO.N,GND*%
X156360000Y-95170000D03*
%TO.N,/A23*%
X178445500Y-83369795D03*
%TO.N,/D15*%
X165500000Y-94820000D03*
%TO.N,VCC*%
X152480000Y-97010000D03*
%TO.N,/CE*%
X160236868Y-97893132D03*
X169540513Y-100440500D03*
%TO.N,/F4-CE*%
X159876868Y-97533132D03*
%TO.N,/F3-CE*%
X159615500Y-97134113D03*
X161480000Y-92380000D03*
%TO.N,/N-RY{slash}BY*%
X152910148Y-85819852D03*
%TO.N,/N-WE*%
X153434945Y-85827752D03*
%TO.N,/N-WP2*%
X156985000Y-86988104D03*
%TO.N,/ADV*%
X164106500Y-86520000D03*
X163098949Y-89126500D03*
%TO.N,/CE*%
X175480000Y-96430000D03*
%TO.N,/F1-CE*%
X176097646Y-85717647D03*
X161460000Y-90710000D03*
%TO.N,/F2-CE*%
X176760000Y-100530000D03*
X159250000Y-92400000D03*
%TO.N,/A7*%
X158635582Y-88361008D03*
%TO.N,/F4-CE*%
X163080000Y-92350000D03*
%TO.N,/D10*%
X164287000Y-97179500D03*
%TO.N,/D7*%
X163880000Y-94790000D03*
%TO.N,/A3*%
X158616993Y-88896493D03*
%TO.N,/D6*%
X163079800Y-94780000D03*
%TO.N,/A6*%
X159270000Y-87570000D03*
%TO.N,/A2*%
X158600500Y-89373210D03*
%TO.N,/D2*%
X163007226Y-96462542D03*
%TO.N,/A14*%
X169237398Y-87589500D03*
%TO.N,/D11*%
X173074500Y-95410187D03*
%TO.N,/A0*%
X160660000Y-88360000D03*
%TO.N,/A4*%
X159581414Y-87197523D03*
%TO.N,/D8*%
X173070000Y-102196500D03*
%TO.N,/A20*%
X165533303Y-91537197D03*
%TO.N,VPP*%
X161470000Y-94763300D03*
%TO.N,/D3*%
X162290000Y-95560000D03*
%TO.N,/D9*%
X173328500Y-99870000D03*
%TO.N,/D5*%
X162299627Y-94765500D03*
%TO.N,/F-WE*%
X162280000Y-90000000D03*
%TO.N,/A21*%
X165490000Y-90770000D03*
%TO.N,/F-OE*%
X168163843Y-91403843D03*
%TO.N,/A16*%
X174083673Y-83933223D03*
%TO.N,/A1*%
X158600500Y-89875535D03*
%TO.N,/D1*%
X173756500Y-101530000D03*
%TO.N,/D4*%
X163900000Y-95570000D03*
%TO.N,/A5*%
X158905500Y-87967720D03*
%TO.N,/D14*%
X166280232Y-94766032D03*
%TO.N,/D13*%
X173074500Y-94933184D03*
%TO.N,/A15*%
X168787606Y-87005500D03*
%TO.N,/D12*%
X168498843Y-94658843D03*
%TO.N,/F-WP1*%
X161480000Y-89182300D03*
%TO.N,GND*%
X162310000Y-93970000D03*
X164670000Y-93180000D03*
X167620000Y-82640000D03*
X164687100Y-88372800D03*
X163092600Y-93167200D03*
X162280000Y-88360000D03*
X165480000Y-93970000D03*
%TO.N,/N-RE*%
X163867223Y-91557223D03*
%TO.N,/CLE*%
X162252500Y-90807300D03*
%TO.N,/D0*%
X173756500Y-101052997D03*
%TD*%
D15*
%TO.N,/D10*%
X170073701Y-97688300D02*
X182752900Y-97688300D01*
X169564901Y-97179500D02*
X170073701Y-97688300D01*
X182752900Y-97688300D02*
X186588400Y-101523800D01*
X164287000Y-97179500D02*
X169564901Y-97179500D01*
%TO.N,/D2*%
X185038900Y-97434300D02*
X186588400Y-98983800D01*
X163358684Y-96814000D02*
X169558611Y-96814000D01*
X169558611Y-96814000D02*
X170178911Y-97434300D01*
X170178911Y-97434300D02*
X185038900Y-97434300D01*
X163007226Y-96462542D02*
X163358684Y-96814000D01*
%TO.N,/D3*%
X184863800Y-96443800D02*
X186588400Y-96443800D01*
X172474000Y-95414000D02*
X173120000Y-96060000D01*
X167945210Y-95414000D02*
X172474000Y-95414000D01*
X166799210Y-96560000D02*
X167945210Y-95414000D01*
X163621580Y-96560000D02*
X166799210Y-96560000D01*
X173120000Y-96060000D02*
X184480000Y-96060000D01*
X162621580Y-95560000D02*
X163621580Y-96560000D01*
X184480000Y-96060000D02*
X184863800Y-96443800D01*
X162290000Y-95560000D02*
X162621580Y-95560000D01*
%TO.N,/D11*%
X184743800Y-93903800D02*
X186588400Y-93903800D01*
X174858000Y-93672000D02*
X184512000Y-93672000D01*
X173119813Y-95410187D02*
X174858000Y-93672000D01*
X173074500Y-95410187D02*
X173119813Y-95410187D01*
X184512000Y-93672000D02*
X184743800Y-93903800D01*
%TO.N,/CE*%
X169429013Y-100552000D02*
X162895736Y-100552000D01*
X162895736Y-100552000D02*
X160236868Y-97893132D01*
X169540513Y-100440500D02*
X169429013Y-100552000D01*
%TO.N,/F2-CE*%
X159250000Y-97423160D02*
X159250000Y-92400000D01*
X170265421Y-100806000D02*
X162632840Y-100806000D01*
X162632840Y-100806000D02*
X159250000Y-97423160D01*
X176760000Y-100530000D02*
X170541421Y-100530000D01*
X170541421Y-100530000D02*
X170265421Y-100806000D01*
%TO.N,/D0*%
X184322200Y-108870000D02*
X186588400Y-106603800D01*
X182855636Y-108870000D02*
X184322200Y-108870000D01*
X175038633Y-101052997D02*
X182855636Y-108870000D01*
X173756500Y-101052997D02*
X175038633Y-101052997D01*
%TO.N,/D1*%
X182770226Y-109143800D02*
X186588400Y-109143800D01*
X173756500Y-101530000D02*
X175156426Y-101530000D01*
X175156426Y-101530000D02*
X182770226Y-109143800D01*
%TO.N,/A22*%
X184793330Y-111683800D02*
X186588400Y-111683800D01*
X175119765Y-102010235D02*
X184793330Y-111683800D01*
%TO.N,/D8*%
X186588400Y-113989190D02*
X186588400Y-114223800D01*
X174907210Y-102308000D02*
X186588400Y-113989190D01*
X173070000Y-102196500D02*
X173181500Y-102308000D01*
X173181500Y-102308000D02*
X174907210Y-102308000D01*
%TO.N,VCC*%
X151792000Y-105538600D02*
X155371800Y-109118400D01*
X151792000Y-97698000D02*
X151792000Y-105538600D01*
X152480000Y-97010000D02*
X151792000Y-97698000D01*
%TO.N,/D15*%
X146964330Y-67803500D02*
X150410000Y-67803500D01*
X142030300Y-72737530D02*
X146964330Y-67803500D01*
X142030300Y-86899900D02*
X142030300Y-72737530D01*
X140131800Y-88798400D02*
X142030300Y-86899900D01*
X163960000Y-64100636D02*
X163960836Y-64099800D01*
X163960000Y-70385500D02*
X163960000Y-64100636D01*
%TO.N,/D14*%
X141776300Y-72632320D02*
X141776300Y-79533900D01*
X146970620Y-67438000D02*
X141776300Y-72632320D01*
X159719597Y-67690900D02*
X159466697Y-67438000D01*
X159466697Y-67438000D02*
X146970620Y-67438000D01*
X141776300Y-79533900D02*
X140131800Y-81178400D01*
X160732244Y-67690900D02*
X159719597Y-67690900D01*
X163484213Y-64938931D02*
X160732244Y-67690900D01*
X163484213Y-64353800D02*
X163484213Y-64938931D01*
%TO.N,/D7*%
X141522300Y-74707900D02*
X140131800Y-76098400D01*
X146865410Y-67184000D02*
X141522300Y-72527110D01*
X141522300Y-72527110D02*
X141522300Y-74707900D01*
X159571907Y-67184000D02*
X146865410Y-67184000D01*
X160627034Y-67436900D02*
X159824807Y-67436900D01*
X163010000Y-65053934D02*
X160627034Y-67436900D01*
X159824807Y-67436900D02*
X159571907Y-67184000D01*
X163010000Y-64607800D02*
X163010000Y-65053934D01*
%TO.N,/D5*%
X146760200Y-66930000D02*
X140131800Y-73558400D01*
X159834803Y-66930000D02*
X146760200Y-66930000D01*
X159976203Y-67071400D02*
X159834803Y-66930000D01*
%TO.N,/D12*%
X138741300Y-77247900D02*
X140131800Y-78638400D01*
X138741300Y-73148121D02*
X138741300Y-77247900D01*
X140763090Y-72567900D02*
X139321521Y-72567900D01*
X139321521Y-72567900D02*
X138741300Y-73148121D01*
X148434090Y-64896900D02*
X140763090Y-72567900D01*
X158108704Y-65200000D02*
X157805604Y-64896900D01*
X157805604Y-64896900D02*
X148434090Y-64896900D01*
X158545500Y-65200000D02*
X158108704Y-65200000D01*
%TO.N,/D6*%
X141681300Y-64388900D02*
X140131800Y-65938400D01*
X160091100Y-64388900D02*
X141681300Y-64388900D01*
X160093520Y-64386480D02*
X160091100Y-64388900D01*
%TO.N,/D13*%
X138487300Y-84613900D02*
X140131800Y-86258400D01*
X138487300Y-73042911D02*
X138487300Y-84613900D01*
X158068500Y-64642900D02*
X148328880Y-64642900D01*
X158180000Y-64754400D02*
X158068500Y-64642900D01*
X148328880Y-64642900D02*
X140657880Y-72313900D01*
X140657880Y-72313900D02*
X139216311Y-72313900D01*
X139216311Y-72313900D02*
X138487300Y-73042911D01*
%TO.N,/A19*%
X172804500Y-77053800D02*
X172804500Y-75039900D01*
X172804500Y-75039900D02*
X171348400Y-73583800D01*
%TO.N,/A2*%
X184943900Y-113063110D02*
X184943900Y-117659300D01*
X170480611Y-102816000D02*
X174696790Y-102816000D01*
X169703900Y-102033110D02*
X169703900Y-102039289D01*
X169703900Y-102039289D02*
X170480611Y-102816000D01*
X158630500Y-97522080D02*
X162422420Y-101314000D01*
X168984790Y-101314000D02*
X169703900Y-102033110D01*
X174696790Y-102816000D02*
X184943900Y-113063110D01*
X158630500Y-92143394D02*
X158630500Y-97522080D01*
X162422420Y-101314000D02*
X168984790Y-101314000D01*
X158966000Y-89724139D02*
X158966000Y-91807894D01*
X158615071Y-89373210D02*
X158966000Y-89724139D01*
X158600500Y-89373210D02*
X158615071Y-89373210D01*
X158966000Y-91807894D02*
X158630500Y-92143394D01*
X184943900Y-117659300D02*
X186588400Y-119303800D01*
%TO.N,/A1*%
X184689900Y-119945300D02*
X186588400Y-121843800D01*
X174591580Y-103070000D02*
X184689900Y-113168320D01*
X184689900Y-113168320D02*
X184689900Y-119945300D01*
X170375401Y-103070000D02*
X174591580Y-103070000D01*
X169449900Y-102138320D02*
X169449900Y-102144499D01*
X168879580Y-101568000D02*
X169449900Y-102138320D01*
X162317210Y-101568000D02*
X168879580Y-101568000D01*
X158376500Y-92038184D02*
X158376500Y-97627290D01*
X158600500Y-91814184D02*
X158376500Y-92038184D01*
X158376500Y-97627290D02*
X162317210Y-101568000D01*
X158600500Y-89875535D02*
X158600500Y-91814184D01*
X169449900Y-102144499D02*
X170375401Y-103070000D01*
%TO.N,/A3*%
X185197900Y-115373300D02*
X186588400Y-116763800D01*
X185197900Y-112957900D02*
X185197900Y-115373300D01*
X174802000Y-102562000D02*
X185197900Y-112957900D01*
X170585821Y-102562000D02*
X174802000Y-102562000D01*
X169957900Y-101934079D02*
X170585821Y-102562000D01*
X169957900Y-101927900D02*
X169957900Y-101934079D01*
X169090000Y-101060000D02*
X169957900Y-101927900D01*
X158884500Y-97416870D02*
X162527630Y-101060000D01*
X162527630Y-101060000D02*
X169090000Y-101060000D01*
X158884500Y-92248604D02*
X158884500Y-97416870D01*
X159220000Y-91913104D02*
X158884500Y-92248604D01*
X158719494Y-88896493D02*
X159220000Y-89396999D01*
X158616993Y-88896493D02*
X158719494Y-88896493D01*
X159220000Y-89396999D02*
X159220000Y-91913104D01*
%TO.N,VCC*%
X174651300Y-72644900D02*
X175691800Y-73685400D01*
X174651300Y-69645900D02*
X174651300Y-72644900D01*
X175691800Y-68605400D02*
X174651300Y-69645900D01*
%TO.N,/D14*%
X172338900Y-90373300D02*
X186588400Y-76123800D01*
X169291343Y-91620078D02*
X170538121Y-90373300D01*
X169291343Y-91912607D02*
X169291343Y-91620078D01*
X166437918Y-94766032D02*
X169291343Y-91912607D01*
X170538121Y-90373300D02*
X172338900Y-90373300D01*
X166280232Y-94766032D02*
X166437918Y-94766032D01*
%TO.N,/D15*%
X184950000Y-75222200D02*
X186588400Y-73583800D01*
X184950000Y-77382189D02*
X184950000Y-75222200D01*
X172252189Y-90080000D02*
X184950000Y-77382189D01*
X170472211Y-90080000D02*
X172252189Y-90080000D01*
X169037343Y-91514868D02*
X170472211Y-90080000D01*
X169037343Y-91807397D02*
X169037343Y-91514868D01*
X166444208Y-94400532D02*
X169037343Y-91807397D01*
X165919468Y-94400532D02*
X166444208Y-94400532D01*
X165500000Y-94820000D02*
X165919468Y-94400532D01*
%TO.N,/F1-CE*%
X172146979Y-89826000D02*
X176097646Y-85875333D01*
X170367001Y-89826000D02*
X172146979Y-89826000D01*
X168783343Y-91409658D02*
X170367001Y-89826000D01*
X168328833Y-92156697D02*
X168783343Y-91702187D01*
X165247487Y-92156697D02*
X168328833Y-92156697D01*
X162966476Y-90888000D02*
X163978790Y-90888000D01*
X163978790Y-90888000D02*
X165247487Y-92156697D01*
X162520276Y-90441800D02*
X162966476Y-90888000D01*
X161728200Y-90441800D02*
X162520276Y-90441800D01*
X176097646Y-85875333D02*
X176097646Y-85717647D01*
X161460000Y-90710000D02*
X161728200Y-90441800D01*
X168783343Y-91702187D02*
X168783343Y-91409658D01*
%TO.N,/F-WE*%
X184442000Y-70650200D02*
X186588400Y-68503800D01*
X178609474Y-83004295D02*
X184442000Y-77171769D01*
X178294104Y-83004295D02*
X178609474Y-83004295D01*
X173465099Y-87833300D02*
X178294104Y-83004295D01*
X170236700Y-87833300D02*
X173465099Y-87833300D01*
X169449900Y-88620100D02*
X170236700Y-87833300D01*
X169449900Y-90319310D02*
X169449900Y-88620100D01*
X168523053Y-91246157D02*
X169449900Y-90319310D01*
X168529343Y-91252447D02*
X168523053Y-91246157D01*
X184442000Y-77171769D02*
X184442000Y-70650200D01*
X168529343Y-91555239D02*
X168529343Y-91252447D01*
X165687396Y-91900000D02*
X168184582Y-91900000D01*
X165352697Y-91902697D02*
X165684699Y-91902697D01*
X164084000Y-90634000D02*
X165352697Y-91902697D01*
X163071686Y-90634000D02*
X164084000Y-90634000D01*
X162437686Y-90000000D02*
X163071686Y-90634000D01*
X168184582Y-91900000D02*
X168529343Y-91555239D01*
X162280000Y-90000000D02*
X162437686Y-90000000D01*
X165684699Y-91902697D02*
X165687396Y-91900000D01*
%TO.N,/A20*%
X173704950Y-85745050D02*
X173704950Y-68320350D01*
X170075700Y-87274300D02*
X172175700Y-87274300D01*
X168938000Y-88412000D02*
X170075700Y-87274300D01*
X173704950Y-68320350D02*
X171348400Y-65963800D01*
X167513593Y-91537197D02*
X168938000Y-90112790D01*
X165533303Y-91537197D02*
X167513593Y-91537197D01*
X168938000Y-90112790D02*
X168938000Y-88412000D01*
X172175700Y-87274300D02*
X173704950Y-85745050D01*
%TO.N,/A21*%
X173450950Y-70606350D02*
X171348400Y-68503800D01*
X173450950Y-84538260D02*
X173450950Y-70606350D01*
X169270000Y-86561421D02*
X170541421Y-85290000D01*
X169270000Y-87040002D02*
X169270000Y-86561421D01*
X168684000Y-90007580D02*
X168684000Y-87626002D01*
X167408383Y-91283197D02*
X168684000Y-90007580D01*
X172699210Y-85290000D02*
X173450950Y-84538260D01*
X168684000Y-87626002D02*
X169270000Y-87040002D01*
X166003197Y-91283197D02*
X167408383Y-91283197D01*
X170541421Y-85290000D02*
X172699210Y-85290000D01*
X165490000Y-90770000D02*
X166003197Y-91283197D01*
%TO.N,/A15*%
X173170000Y-84460000D02*
X173170000Y-72865400D01*
X172594000Y-85036000D02*
X173170000Y-84460000D01*
X173170000Y-72865400D02*
X171348400Y-71043800D01*
X170436211Y-85036000D02*
X172594000Y-85036000D01*
X168787606Y-86684605D02*
X170436211Y-85036000D01*
X168787606Y-87005500D02*
X168787606Y-86684605D01*
%TO.N,/ALE*%
X150776000Y-114682600D02*
X155371800Y-119278400D01*
X150776000Y-89504790D02*
X150776000Y-114682600D01*
X153950000Y-86330790D02*
X150776000Y-89504790D01*
X153950000Y-85879421D02*
X153950000Y-86330790D01*
X156182079Y-85267900D02*
X154561521Y-85267900D01*
X156984202Y-86070023D02*
X156182079Y-85267900D01*
X154561521Y-85267900D02*
X153950000Y-85879421D01*
X160048440Y-86070023D02*
X156984202Y-86070023D01*
X161533500Y-88377394D02*
X161533500Y-87555083D01*
X163116106Y-89960000D02*
X161533500Y-88377394D01*
X161533500Y-87555083D02*
X160048440Y-86070023D01*
X165500000Y-89960000D02*
X163116106Y-89960000D01*
%TO.N,/N-RY{slash}BY*%
X142312590Y-116738400D02*
X140131800Y-116738400D01*
X150268000Y-108782990D02*
X142312590Y-116738400D01*
X150268000Y-89294370D02*
X150268000Y-108782990D01*
X152910148Y-86652222D02*
X150268000Y-89294370D01*
X152910148Y-85819852D02*
X152910148Y-86652222D01*
%TO.N,/N-WE*%
X150522000Y-108888200D02*
X140131800Y-119278400D01*
X153434945Y-86486635D02*
X150522000Y-89399580D01*
X150522000Y-89399580D02*
X150522000Y-108888200D01*
X153434945Y-85827752D02*
X153434945Y-86486635D01*
%TO.N,/F-OE*%
X178504264Y-82750295D02*
X184188000Y-77066559D01*
X178188894Y-82750295D02*
X178504264Y-82750295D01*
X173410889Y-87528300D02*
X178188894Y-82750295D01*
X170180910Y-87528300D02*
X173410889Y-87528300D01*
X169192000Y-88517210D02*
X170180910Y-87528300D01*
X169192000Y-90218000D02*
X169192000Y-88517210D01*
X184188000Y-68364200D02*
X186588400Y-65963800D01*
X168163843Y-91246157D02*
X169192000Y-90218000D01*
X168163843Y-91403843D02*
X168163843Y-91246157D01*
X184188000Y-77066559D02*
X184188000Y-68364200D01*
%TO.N,/CLE*%
X154632579Y-114198400D02*
X155371800Y-114198400D01*
X153496310Y-87502900D02*
X151284000Y-89715210D01*
X156987100Y-87502900D02*
X153496310Y-87502900D01*
X151284000Y-89715210D02*
X151284000Y-110849821D01*
X158165977Y-86324023D02*
X156987100Y-87502900D01*
X151284000Y-110849821D02*
X154632579Y-114198400D01*
X161279500Y-87660293D02*
X159943230Y-86324023D01*
X159943230Y-86324023D02*
X158165977Y-86324023D01*
X161279500Y-88629710D02*
X161279500Y-87660293D01*
X161094000Y-88815210D02*
X161279500Y-88629710D01*
X161308604Y-91075500D02*
X161094500Y-90861396D01*
X161094500Y-90861396D02*
X161094500Y-89064500D01*
X161984300Y-91075500D02*
X161308604Y-91075500D01*
X162252500Y-90807300D02*
X161984300Y-91075500D01*
X161094000Y-89064000D02*
X161094000Y-88815210D01*
X161094500Y-89064500D02*
X161094000Y-89064000D01*
%TO.N,/F-WP1*%
X172378000Y-84782000D02*
X172740000Y-84420000D01*
X172740000Y-84420000D02*
X172740000Y-82595400D01*
X170331001Y-84782000D02*
X172378000Y-84782000D01*
X172740000Y-82595400D02*
X171348400Y-81203800D01*
X168422106Y-86690895D02*
X170331001Y-84782000D01*
X163176896Y-90380000D02*
X165616896Y-90380000D01*
X166064896Y-90828000D02*
X167504370Y-90828000D01*
X168422106Y-89910264D02*
X168422106Y-86690895D01*
X165616896Y-90380000D02*
X166064896Y-90828000D01*
X161979196Y-89182300D02*
X163176896Y-90380000D01*
X167504370Y-90828000D02*
X168422106Y-89910264D01*
X161480000Y-89182300D02*
X161979196Y-89182300D01*
%TO.N,/A14*%
X169237398Y-87589500D02*
X170543098Y-86283800D01*
X170543098Y-86283800D02*
X171348400Y-86283800D01*
%TO.N,/ADV*%
X164106500Y-88118949D02*
X163098949Y-89126500D01*
X164106500Y-86520000D02*
X164106500Y-88118949D01*
%TO.N,/A16*%
X173958950Y-83808500D02*
X173958950Y-66034350D01*
X174083673Y-83933223D02*
X173958950Y-83808500D01*
X173958950Y-66034350D02*
X171348400Y-63423800D01*
%TO.N,/A23*%
X184696000Y-72936200D02*
X186588400Y-71043800D01*
X184696000Y-77276979D02*
X184696000Y-72936200D01*
X178603184Y-83369795D02*
X184696000Y-77276979D01*
X178445500Y-83369795D02*
X178603184Y-83369795D01*
%TO.N,/D7*%
X184368000Y-80884200D02*
X186588400Y-78663800D01*
X184368000Y-89607360D02*
X184368000Y-80884200D01*
X173648650Y-92405300D02*
X173905950Y-92148000D01*
X173905950Y-92148000D02*
X181827360Y-92148000D01*
X181827360Y-92148000D02*
X184368000Y-89607360D01*
X169157860Y-92405300D02*
X173648650Y-92405300D01*
X166279765Y-95283395D02*
X169157860Y-92405300D01*
X164489501Y-95283395D02*
X166279765Y-95283395D01*
X163880000Y-94790000D02*
X163996106Y-94790000D01*
X163996106Y-94790000D02*
X164489501Y-95283395D01*
%TO.N,/D6*%
X184622000Y-83170200D02*
X186588400Y-81203800D01*
X184622000Y-89712570D02*
X184622000Y-83170200D01*
X181932570Y-92402000D02*
X184622000Y-89712570D01*
X169263070Y-92659300D02*
X173753860Y-92659300D01*
X166384975Y-95537395D02*
X169263070Y-92659300D01*
X174011160Y-92402000D02*
X181932570Y-92402000D01*
X164384291Y-95537395D02*
X166384975Y-95537395D01*
X173753860Y-92659300D02*
X174011160Y-92402000D01*
X164051396Y-95204500D02*
X164384291Y-95537395D01*
X163079800Y-94780000D02*
X163504300Y-95204500D01*
X163504300Y-95204500D02*
X164051396Y-95204500D01*
%TO.N,/D4*%
X184876000Y-85456200D02*
X186588400Y-83743800D01*
X184876000Y-89817780D02*
X184876000Y-85456200D01*
X182037780Y-92656000D02*
X184876000Y-89817780D01*
X174116370Y-92656000D02*
X182037780Y-92656000D01*
X173859070Y-92913300D02*
X174116370Y-92656000D01*
X169368280Y-92913300D02*
X173859070Y-92913300D01*
X164121395Y-95791395D02*
X166490185Y-95791395D01*
X163900000Y-95570000D02*
X164121395Y-95791395D01*
X166490185Y-95791395D02*
X169368280Y-92913300D01*
%TO.N,/D12*%
X185130000Y-87742200D02*
X186588400Y-86283800D01*
X185130000Y-89922990D02*
X185130000Y-87742200D01*
X182142990Y-92910000D02*
X185130000Y-89922990D01*
X174221580Y-92910000D02*
X182142990Y-92910000D01*
X168734300Y-94894300D02*
X172237280Y-94894300D01*
X172237280Y-94894300D02*
X174221580Y-92910000D01*
X168498843Y-94658843D02*
X168734300Y-94894300D01*
%TO.N,/D13*%
X174589684Y-93418000D02*
X184534200Y-93418000D01*
X184534200Y-93418000D02*
X186588400Y-91363800D01*
X173074500Y-94933184D02*
X174589684Y-93418000D01*
%TO.N,/D5*%
X174326790Y-93164000D02*
X182248200Y-93164000D01*
X182248200Y-93164000D02*
X186588400Y-88823800D01*
X172330790Y-95160000D02*
X174326790Y-93164000D01*
X166700000Y-96300000D02*
X167840000Y-95160000D01*
X162299627Y-94878837D02*
X163720790Y-96300000D01*
X163720790Y-96300000D02*
X166700000Y-96300000D01*
X162299627Y-94765500D02*
X162299627Y-94878837D01*
X167840000Y-95160000D02*
X172330790Y-95160000D01*
%TO.N,VPP*%
X163825395Y-96045395D02*
X166595395Y-96045395D01*
X168736990Y-93903800D02*
X171348400Y-93903800D01*
X162714300Y-94934300D02*
X163825395Y-96045395D01*
X162714300Y-94628604D02*
X162714300Y-94934300D01*
X162490000Y-94400000D02*
X162716452Y-94626452D01*
X166595395Y-96045395D02*
X168736990Y-93903800D01*
X161833300Y-94400000D02*
X162490000Y-94400000D01*
X162716452Y-94626452D02*
X162714300Y-94628604D01*
X161470000Y-94763300D02*
X161833300Y-94400000D01*
%TO.N,/A7*%
X171009991Y-104063800D02*
X171348400Y-104063800D01*
X168768191Y-101822000D02*
X171009991Y-104063800D01*
X158122500Y-91932974D02*
X158122500Y-97732500D01*
X158235000Y-91820474D02*
X158122500Y-91932974D01*
X158122500Y-97732500D02*
X162212000Y-101822000D01*
X158235000Y-88761590D02*
X158235000Y-91820474D01*
X158635582Y-88361008D02*
X158235000Y-88761590D01*
X162212000Y-101822000D02*
X168768191Y-101822000D01*
%TO.N,VCC*%
X151792000Y-96322000D02*
X151792000Y-89925630D01*
X152480000Y-97010000D02*
X151792000Y-96322000D01*
X151792000Y-89925630D02*
X152919230Y-88798400D01*
X152919230Y-88798400D02*
X155371800Y-88798400D01*
%TO.N,/D9*%
X182394600Y-99870000D02*
X186588400Y-104063800D01*
X173328500Y-99870000D02*
X182394600Y-99870000D01*
%TO.N,/F4-CE*%
X162070000Y-92350000D02*
X163080000Y-92350000D01*
X159981000Y-94439000D02*
X162070000Y-92350000D01*
X159876868Y-97533132D02*
X159981000Y-97429000D01*
X159981000Y-97429000D02*
X159981000Y-94439000D01*
%TO.N,/F3-CE*%
X159615500Y-94244500D02*
X161480000Y-92380000D01*
X159615500Y-97134113D02*
X159615500Y-94244500D01*
%TO.N,/N-WP2*%
X151030000Y-89610000D02*
X151030000Y-112396600D01*
X156724204Y-87248900D02*
X153391100Y-87248900D01*
X153391100Y-87248900D02*
X151030000Y-89610000D01*
X156985000Y-86988104D02*
X156724204Y-87248900D01*
X151030000Y-112396600D02*
X155371800Y-116738400D01*
%TO.N,/N-RE*%
X154632579Y-111658400D02*
X155371800Y-111658400D01*
X151538000Y-108563821D02*
X154632579Y-111658400D01*
X151538000Y-89820420D02*
X151538000Y-108563821D01*
X153550520Y-87807900D02*
X151538000Y-89820420D01*
X158361977Y-86578023D02*
X157132100Y-87807900D01*
X159838020Y-86578023D02*
X158361977Y-86578023D01*
X161025500Y-88524500D02*
X161025500Y-87765503D01*
X157132100Y-87807900D02*
X153550520Y-87807900D01*
X160840000Y-88710000D02*
X161025500Y-88524500D01*
X160840000Y-90966106D02*
X160840000Y-88710000D01*
X161203894Y-91330000D02*
X160840000Y-90966106D01*
X161025500Y-87765503D02*
X159838020Y-86578023D01*
X163867223Y-91557223D02*
X163640000Y-91330000D01*
X163640000Y-91330000D02*
X161203894Y-91330000D01*
%TO.N,/A0*%
X168143346Y-118638746D02*
X171348400Y-121843800D01*
X168143346Y-109190186D02*
X168143346Y-118638746D01*
X157106500Y-98153340D02*
X168143346Y-109190186D01*
X157219000Y-91399634D02*
X157106500Y-91512134D01*
X157219000Y-88114442D02*
X157219000Y-91399634D01*
X159732810Y-86832023D02*
X158501419Y-86832023D01*
X160660000Y-87759213D02*
X159732810Y-86832023D01*
X158501419Y-86832023D02*
X157219000Y-88114442D01*
X157106500Y-91512134D02*
X157106500Y-98153340D01*
X160660000Y-88360000D02*
X160660000Y-87759213D01*
%TO.N,/A4*%
X157360500Y-98048130D02*
X168397346Y-109084976D01*
X157360500Y-91617344D02*
X157360500Y-98048130D01*
X168397346Y-109084976D02*
X168397346Y-116352746D01*
X157473000Y-91504844D02*
X157360500Y-91617344D01*
X158495129Y-87197523D02*
X157473000Y-88219652D01*
X168397346Y-116352746D02*
X171348400Y-119303800D01*
X159581414Y-87197523D02*
X158495129Y-87197523D01*
X157473000Y-88219652D02*
X157473000Y-91504844D01*
%TO.N,/A6*%
X168651346Y-114066746D02*
X171348400Y-116763800D01*
X168651346Y-108979766D02*
X168651346Y-114066746D01*
X157614500Y-91722554D02*
X157614500Y-97942920D01*
X157614500Y-97942920D02*
X168651346Y-108979766D01*
X157727000Y-91610054D02*
X157614500Y-91722554D01*
X158550484Y-87570000D02*
X157727000Y-88393484D01*
X159270000Y-87570000D02*
X158550484Y-87570000D01*
X157727000Y-88393484D02*
X157727000Y-91610054D01*
%TO.N,/A5*%
X168905346Y-111780746D02*
X171348400Y-114223800D01*
X157868500Y-91827764D02*
X157868500Y-97837710D01*
X157981000Y-91715264D02*
X157868500Y-91827764D01*
X157981000Y-88498694D02*
X157981000Y-91715264D01*
X157868500Y-97837710D02*
X168905346Y-108874556D01*
X168905346Y-108874556D02*
X168905346Y-111780746D01*
X158511974Y-87967720D02*
X157981000Y-88498694D01*
X158905500Y-87967720D02*
X158511974Y-87967720D01*
%TO.N,/CE*%
X175480000Y-96430000D02*
X175466200Y-96443800D01*
X175466200Y-96443800D02*
X171348400Y-96443800D01*
%TO.N,VCC*%
X175691800Y-73685400D02*
X174641800Y-74735400D01*
X174641800Y-77715400D02*
X175691800Y-78765400D01*
X174641800Y-74735400D02*
X174641800Y-77715400D01*
%TO.N,GND*%
X164687100Y-88372800D02*
X164624700Y-88372800D01*
%TD*%
%TA.AperFunction,Conductor*%
%TO.N,GND*%
G36*
X188432794Y-62194006D02*
G01*
X188451100Y-62238200D01*
X188451100Y-122927800D01*
X188432794Y-122971994D01*
X188388600Y-122990300D01*
X156562866Y-122990300D01*
X156518672Y-122971994D01*
X156500366Y-122927800D01*
X156518672Y-122883606D01*
X156526129Y-122877237D01*
X156618692Y-122809985D01*
X156618700Y-122809978D01*
X156763378Y-122665300D01*
X156763385Y-122665292D01*
X156883658Y-122499751D01*
X156976553Y-122317433D01*
X156976557Y-122317425D01*
X157039790Y-122122816D01*
X157048409Y-122068400D01*
X155687486Y-122068400D01*
X155691880Y-122064006D01*
X155744541Y-121972794D01*
X155771800Y-121871061D01*
X155771800Y-121765739D01*
X155744541Y-121664006D01*
X155691880Y-121572794D01*
X155687486Y-121568400D01*
X157048409Y-121568400D01*
X157048409Y-121568399D01*
X157039790Y-121513983D01*
X156976557Y-121319374D01*
X156976553Y-121319366D01*
X156883658Y-121137048D01*
X156763385Y-120971507D01*
X156763378Y-120971499D01*
X156618700Y-120826821D01*
X156618692Y-120826814D01*
X156453151Y-120706541D01*
X156270833Y-120613646D01*
X156270825Y-120613642D01*
X156076221Y-120550411D01*
X155874113Y-120518400D01*
X155621800Y-120518400D01*
X155621800Y-121502714D01*
X155617406Y-121498320D01*
X155526194Y-121445659D01*
X155424461Y-121418400D01*
X155319139Y-121418400D01*
X155217406Y-121445659D01*
X155126194Y-121498320D01*
X155121800Y-121502714D01*
X155121800Y-120518400D01*
X154869486Y-120518400D01*
X154667378Y-120550411D01*
X154472774Y-120613642D01*
X154472766Y-120613646D01*
X154290448Y-120706541D01*
X154124907Y-120826814D01*
X154124899Y-120826821D01*
X153980221Y-120971499D01*
X153980214Y-120971507D01*
X153859941Y-121137048D01*
X153767046Y-121319366D01*
X153767042Y-121319374D01*
X153703809Y-121513983D01*
X153695190Y-121568399D01*
X153695191Y-121568400D01*
X155056114Y-121568400D01*
X155051720Y-121572794D01*
X154999059Y-121664006D01*
X154971800Y-121765739D01*
X154971800Y-121871061D01*
X154999059Y-121972794D01*
X155051720Y-122064006D01*
X155056114Y-122068400D01*
X153695191Y-122068400D01*
X153703809Y-122122816D01*
X153767042Y-122317425D01*
X153767046Y-122317433D01*
X153859941Y-122499751D01*
X153980214Y-122665292D01*
X153980221Y-122665300D01*
X154124899Y-122809978D01*
X154124907Y-122809985D01*
X154217471Y-122877237D01*
X154242465Y-122918023D01*
X154231297Y-122964537D01*
X154190511Y-122989531D01*
X154180734Y-122990300D01*
X138320800Y-122990300D01*
X138276606Y-122971994D01*
X138258300Y-122927800D01*
X138258300Y-121727048D01*
X138804300Y-121727048D01*
X138804300Y-121909751D01*
X138839942Y-122088940D01*
X138909860Y-122257736D01*
X138909861Y-122257738D01*
X138926833Y-122283138D01*
X139011364Y-122409647D01*
X139140553Y-122538836D01*
X139292464Y-122640340D01*
X139461258Y-122710257D01*
X139640449Y-122745900D01*
X140623151Y-122745900D01*
X140802342Y-122710257D01*
X140971136Y-122640340D01*
X141123047Y-122538836D01*
X141252236Y-122409647D01*
X141353740Y-122257736D01*
X141423657Y-122088942D01*
X141459300Y-121909751D01*
X141459300Y-121727049D01*
X141423657Y-121547858D01*
X141353740Y-121379064D01*
X141252236Y-121227153D01*
X141123047Y-121097964D01*
X141094398Y-121078821D01*
X140971138Y-120996461D01*
X140971136Y-120996460D01*
X140802340Y-120926542D01*
X140623151Y-120890900D01*
X139640449Y-120890900D01*
X139461259Y-120926542D01*
X139292463Y-120996460D01*
X139292461Y-120996461D01*
X139140553Y-121097963D01*
X139011363Y-121227153D01*
X138909861Y-121379061D01*
X138909860Y-121379063D01*
X138839942Y-121547859D01*
X138804300Y-121727048D01*
X138258300Y-121727048D01*
X138258300Y-116647048D01*
X138804300Y-116647048D01*
X138804300Y-116829751D01*
X138839942Y-117008940D01*
X138909860Y-117177736D01*
X138909861Y-117177738D01*
X138926833Y-117203138D01*
X139011364Y-117329647D01*
X139140553Y-117458836D01*
X139292464Y-117560340D01*
X139461258Y-117630257D01*
X139640449Y-117665900D01*
X140623151Y-117665900D01*
X140802342Y-117630257D01*
X140971136Y-117560340D01*
X141123047Y-117458836D01*
X141252236Y-117329647D01*
X141353740Y-117177736D01*
X141423657Y-117008942D01*
X141429472Y-116979706D01*
X141456047Y-116939933D01*
X141490771Y-116929400D01*
X142059797Y-116929400D01*
X142103991Y-116947706D01*
X142122297Y-116991900D01*
X142103991Y-117036094D01*
X140785260Y-118354823D01*
X140741066Y-118373129D01*
X140728874Y-118371928D01*
X140623153Y-118350900D01*
X140623151Y-118350900D01*
X139640449Y-118350900D01*
X139461259Y-118386542D01*
X139292463Y-118456460D01*
X139292461Y-118456461D01*
X139140553Y-118557963D01*
X139011363Y-118687153D01*
X138909861Y-118839061D01*
X138909860Y-118839063D01*
X138839942Y-119007859D01*
X138804300Y-119187048D01*
X138804300Y-119369751D01*
X138839942Y-119548940D01*
X138909860Y-119717736D01*
X138909861Y-119717738D01*
X139011363Y-119869646D01*
X139011364Y-119869647D01*
X139140553Y-119998836D01*
X139292464Y-120100340D01*
X139461258Y-120170257D01*
X139640449Y-120205900D01*
X140623151Y-120205900D01*
X140802342Y-120170257D01*
X140971136Y-120100340D01*
X141123047Y-119998836D01*
X141252236Y-119869647D01*
X141353740Y-119717736D01*
X141423657Y-119548942D01*
X141459300Y-119369751D01*
X141459300Y-119187049D01*
X141423657Y-119007858D01*
X141353740Y-118839064D01*
X141252236Y-118687153D01*
X141166892Y-118601809D01*
X141148586Y-118557615D01*
X141166891Y-118513422D01*
X150478307Y-109202007D01*
X150522500Y-109183702D01*
X150566694Y-109202008D01*
X150585000Y-109246202D01*
X150585000Y-114720591D01*
X150614077Y-114790791D01*
X150614079Y-114790794D01*
X154336706Y-118513421D01*
X154355012Y-118557615D01*
X154336707Y-118601809D01*
X154251362Y-118687155D01*
X154149861Y-118839061D01*
X154149860Y-118839063D01*
X154079942Y-119007859D01*
X154044300Y-119187048D01*
X154044300Y-119369751D01*
X154079942Y-119548940D01*
X154149860Y-119717736D01*
X154149861Y-119717738D01*
X154251363Y-119869646D01*
X154251364Y-119869647D01*
X154380553Y-119998836D01*
X154532464Y-120100340D01*
X154701258Y-120170257D01*
X154880449Y-120205900D01*
X155863151Y-120205900D01*
X156042342Y-120170257D01*
X156211136Y-120100340D01*
X156363047Y-119998836D01*
X156492236Y-119869647D01*
X156593740Y-119717736D01*
X156663657Y-119548942D01*
X156699300Y-119369751D01*
X156699300Y-119187049D01*
X156663657Y-119007858D01*
X156593740Y-118839064D01*
X156492236Y-118687153D01*
X156363047Y-118557964D01*
X156363046Y-118557963D01*
X156211138Y-118456461D01*
X156211136Y-118456460D01*
X156042340Y-118386542D01*
X155863151Y-118350900D01*
X154880449Y-118350900D01*
X154880446Y-118350900D01*
X154774724Y-118371928D01*
X154727808Y-118362595D01*
X154718338Y-118354823D01*
X150985306Y-114621791D01*
X150967000Y-114577597D01*
X150967000Y-112754602D01*
X150985306Y-112710408D01*
X151029500Y-112692102D01*
X151073694Y-112710408D01*
X154336707Y-115973421D01*
X154355013Y-116017615D01*
X154336707Y-116061809D01*
X154251363Y-116147153D01*
X154149861Y-116299061D01*
X154149860Y-116299063D01*
X154079942Y-116467859D01*
X154044300Y-116647048D01*
X154044300Y-116829751D01*
X154079942Y-117008940D01*
X154149860Y-117177736D01*
X154149861Y-117177738D01*
X154166833Y-117203138D01*
X154251364Y-117329647D01*
X154380553Y-117458836D01*
X154532464Y-117560340D01*
X154701258Y-117630257D01*
X154880449Y-117665900D01*
X155863151Y-117665900D01*
X156042342Y-117630257D01*
X156211136Y-117560340D01*
X156363047Y-117458836D01*
X156492236Y-117329647D01*
X156593740Y-117177736D01*
X156663657Y-117008942D01*
X156699300Y-116829751D01*
X156699300Y-116647049D01*
X156663657Y-116467858D01*
X156593740Y-116299064D01*
X156492236Y-116147153D01*
X156363047Y-116017964D01*
X156296384Y-115973421D01*
X156211138Y-115916461D01*
X156211136Y-115916460D01*
X156042340Y-115846542D01*
X155863151Y-115810900D01*
X154880449Y-115810900D01*
X154880446Y-115810900D01*
X154774723Y-115831928D01*
X154727807Y-115822595D01*
X154718337Y-115814823D01*
X151239306Y-112335791D01*
X151221000Y-112291597D01*
X151221000Y-111207824D01*
X151239306Y-111163630D01*
X151283500Y-111145324D01*
X151327694Y-111163630D01*
X154058308Y-113894244D01*
X154076614Y-113938438D01*
X154075413Y-113950631D01*
X154044300Y-114107048D01*
X154044300Y-114289751D01*
X154079942Y-114468940D01*
X154149860Y-114637736D01*
X154149861Y-114637738D01*
X154251363Y-114789646D01*
X154251364Y-114789647D01*
X154380553Y-114918836D01*
X154532464Y-115020340D01*
X154701258Y-115090257D01*
X154880449Y-115125900D01*
X155863151Y-115125900D01*
X156042342Y-115090257D01*
X156211136Y-115020340D01*
X156363047Y-114918836D01*
X156492236Y-114789647D01*
X156593740Y-114637736D01*
X156663657Y-114468942D01*
X156699300Y-114289751D01*
X156699300Y-114107049D01*
X156663657Y-113927858D01*
X156593740Y-113759064D01*
X156492236Y-113607153D01*
X156363047Y-113477964D01*
X156363046Y-113477963D01*
X156211138Y-113376461D01*
X156211136Y-113376460D01*
X156042340Y-113306542D01*
X155863151Y-113270900D01*
X154880449Y-113270900D01*
X154701259Y-113306542D01*
X154532463Y-113376460D01*
X154532461Y-113376461D01*
X154380555Y-113477962D01*
X154380554Y-113477963D01*
X154380553Y-113477964D01*
X154325598Y-113532918D01*
X154281404Y-113551223D01*
X154237211Y-113532917D01*
X151493306Y-110789012D01*
X151475000Y-110744818D01*
X151475000Y-108921824D01*
X151493306Y-108877630D01*
X151537500Y-108859324D01*
X151581694Y-108877630D01*
X154058308Y-111354244D01*
X154076614Y-111398438D01*
X154075413Y-111410631D01*
X154044300Y-111567048D01*
X154044300Y-111749751D01*
X154079942Y-111928940D01*
X154149860Y-112097736D01*
X154149861Y-112097738D01*
X154166833Y-112123138D01*
X154251364Y-112249647D01*
X154380553Y-112378836D01*
X154532464Y-112480340D01*
X154701258Y-112550257D01*
X154880449Y-112585900D01*
X155863151Y-112585900D01*
X156042342Y-112550257D01*
X156211136Y-112480340D01*
X156363047Y-112378836D01*
X156492236Y-112249647D01*
X156593740Y-112097736D01*
X156663657Y-111928942D01*
X156699300Y-111749751D01*
X156699300Y-111567049D01*
X156663657Y-111387858D01*
X156593740Y-111219064D01*
X156492236Y-111067153D01*
X156363047Y-110937964D01*
X156363046Y-110937963D01*
X156211138Y-110836461D01*
X156211136Y-110836460D01*
X156042340Y-110766542D01*
X155863151Y-110730900D01*
X154880449Y-110730900D01*
X154701259Y-110766542D01*
X154532463Y-110836460D01*
X154532461Y-110836461D01*
X154380555Y-110937962D01*
X154380554Y-110937963D01*
X154380553Y-110937964D01*
X154325598Y-110992918D01*
X154281404Y-111011223D01*
X154237211Y-110992917D01*
X151747306Y-108503012D01*
X151729000Y-108458818D01*
X151729000Y-105896603D01*
X151747306Y-105852409D01*
X151791500Y-105834103D01*
X151835694Y-105852409D01*
X154336706Y-108353421D01*
X154355012Y-108397615D01*
X154336707Y-108441809D01*
X154251362Y-108527155D01*
X154149861Y-108679061D01*
X154149860Y-108679063D01*
X154079942Y-108847859D01*
X154044300Y-109027048D01*
X154044300Y-109209751D01*
X154079942Y-109388940D01*
X154149860Y-109557736D01*
X154149861Y-109557738D01*
X154166833Y-109583138D01*
X154251364Y-109709647D01*
X154380553Y-109838836D01*
X154532464Y-109940340D01*
X154701258Y-110010257D01*
X154880449Y-110045900D01*
X155863151Y-110045900D01*
X156042342Y-110010257D01*
X156211136Y-109940340D01*
X156363047Y-109838836D01*
X156492236Y-109709647D01*
X156593740Y-109557736D01*
X156663657Y-109388942D01*
X156699300Y-109209751D01*
X156699300Y-109027049D01*
X156663657Y-108847858D01*
X156593740Y-108679064D01*
X156492236Y-108527153D01*
X156363047Y-108397964D01*
X156363046Y-108397963D01*
X156211138Y-108296461D01*
X156211136Y-108296460D01*
X156042340Y-108226542D01*
X155863151Y-108190900D01*
X154880449Y-108190900D01*
X154880446Y-108190900D01*
X154774724Y-108211928D01*
X154727808Y-108202595D01*
X154718338Y-108194823D01*
X153010563Y-106487048D01*
X154044300Y-106487048D01*
X154044300Y-106669751D01*
X154079942Y-106848940D01*
X154149860Y-107017736D01*
X154149861Y-107017738D01*
X154166833Y-107043138D01*
X154251364Y-107169647D01*
X154380553Y-107298836D01*
X154532464Y-107400340D01*
X154701258Y-107470257D01*
X154880449Y-107505900D01*
X155863151Y-107505900D01*
X156042342Y-107470257D01*
X156211136Y-107400340D01*
X156363047Y-107298836D01*
X156492236Y-107169647D01*
X156593740Y-107017736D01*
X156663657Y-106848942D01*
X156699300Y-106669751D01*
X156699300Y-106487049D01*
X156663657Y-106307858D01*
X156593740Y-106139064D01*
X156492236Y-105987153D01*
X156363047Y-105857964D01*
X156363046Y-105857963D01*
X156211138Y-105756461D01*
X156211136Y-105756460D01*
X156042340Y-105686542D01*
X155863151Y-105650900D01*
X154880449Y-105650900D01*
X154701259Y-105686542D01*
X154532463Y-105756460D01*
X154532461Y-105756461D01*
X154380553Y-105857963D01*
X154251363Y-105987153D01*
X154149861Y-106139061D01*
X154149860Y-106139063D01*
X154079942Y-106307859D01*
X154044300Y-106487048D01*
X153010563Y-106487048D01*
X152001306Y-105477791D01*
X151983000Y-105433597D01*
X151983000Y-103947048D01*
X154044300Y-103947048D01*
X154044300Y-104129751D01*
X154079942Y-104308940D01*
X154149860Y-104477736D01*
X154149861Y-104477738D01*
X154166833Y-104503138D01*
X154251364Y-104629647D01*
X154380553Y-104758836D01*
X154532464Y-104860340D01*
X154701258Y-104930257D01*
X154880449Y-104965900D01*
X155863151Y-104965900D01*
X156042342Y-104930257D01*
X156211136Y-104860340D01*
X156363047Y-104758836D01*
X156492236Y-104629647D01*
X156593740Y-104477736D01*
X156663657Y-104308942D01*
X156699300Y-104129751D01*
X156699300Y-103947049D01*
X156663657Y-103767858D01*
X156593740Y-103599064D01*
X156492236Y-103447153D01*
X156363047Y-103317964D01*
X156334398Y-103298821D01*
X156211138Y-103216461D01*
X156211136Y-103216460D01*
X156042340Y-103146542D01*
X155863151Y-103110900D01*
X154880449Y-103110900D01*
X154701259Y-103146542D01*
X154532463Y-103216460D01*
X154532461Y-103216461D01*
X154380553Y-103317963D01*
X154251363Y-103447153D01*
X154149861Y-103599061D01*
X154149860Y-103599063D01*
X154079942Y-103767859D01*
X154044300Y-103947048D01*
X151983000Y-103947048D01*
X151983000Y-101407048D01*
X154044300Y-101407048D01*
X154044300Y-101589751D01*
X154079942Y-101768940D01*
X154149860Y-101937736D01*
X154149861Y-101937738D01*
X154241911Y-102075500D01*
X154251364Y-102089647D01*
X154380553Y-102218836D01*
X154532464Y-102320340D01*
X154701258Y-102390257D01*
X154880449Y-102425900D01*
X155863151Y-102425900D01*
X156042342Y-102390257D01*
X156211136Y-102320340D01*
X156363047Y-102218836D01*
X156492236Y-102089647D01*
X156593740Y-101937736D01*
X156663657Y-101768942D01*
X156699300Y-101589751D01*
X156699300Y-101407049D01*
X156663657Y-101227858D01*
X156593740Y-101059064D01*
X156492236Y-100907153D01*
X156363047Y-100777964D01*
X156311208Y-100743326D01*
X156211138Y-100676461D01*
X156211136Y-100676460D01*
X156042340Y-100606542D01*
X155863151Y-100570900D01*
X154880449Y-100570900D01*
X154701259Y-100606542D01*
X154532463Y-100676460D01*
X154532461Y-100676461D01*
X154380553Y-100777963D01*
X154251363Y-100907153D01*
X154149861Y-101059061D01*
X154149860Y-101059063D01*
X154079942Y-101227859D01*
X154044300Y-101407048D01*
X151983000Y-101407048D01*
X151983000Y-98867048D01*
X154044300Y-98867048D01*
X154044300Y-99049751D01*
X154079942Y-99228940D01*
X154149860Y-99397736D01*
X154149861Y-99397738D01*
X154166833Y-99423138D01*
X154251364Y-99549647D01*
X154380553Y-99678836D01*
X154532464Y-99780340D01*
X154701258Y-99850257D01*
X154880449Y-99885900D01*
X155863151Y-99885900D01*
X156042342Y-99850257D01*
X156211136Y-99780340D01*
X156363047Y-99678836D01*
X156492236Y-99549647D01*
X156593740Y-99397736D01*
X156663657Y-99228942D01*
X156699300Y-99049751D01*
X156699300Y-98867049D01*
X156663657Y-98687858D01*
X156593740Y-98519064D01*
X156492236Y-98367153D01*
X156363047Y-98237964D01*
X156334398Y-98218821D01*
X156211138Y-98136461D01*
X156211136Y-98136460D01*
X156042340Y-98066542D01*
X155863151Y-98030900D01*
X154880449Y-98030900D01*
X154701259Y-98066542D01*
X154532463Y-98136460D01*
X154532461Y-98136461D01*
X154380553Y-98237963D01*
X154251363Y-98367153D01*
X154149861Y-98519061D01*
X154149860Y-98519063D01*
X154079942Y-98687859D01*
X154044300Y-98867048D01*
X151983000Y-98867048D01*
X151983000Y-97803003D01*
X152001306Y-97758809D01*
X152429309Y-97330806D01*
X152473503Y-97312500D01*
X152533336Y-97312500D01*
X152533339Y-97312500D01*
X152633584Y-97276014D01*
X152715304Y-97207443D01*
X152768643Y-97115057D01*
X152787167Y-97010000D01*
X152768643Y-96904943D01*
X152715304Y-96812557D01*
X152715303Y-96812556D01*
X152633585Y-96743986D01*
X152633582Y-96743985D01*
X152533341Y-96707500D01*
X152533339Y-96707500D01*
X152473503Y-96707500D01*
X152429309Y-96689194D01*
X152067163Y-96327048D01*
X154044300Y-96327048D01*
X154044300Y-96509751D01*
X154079942Y-96688940D01*
X154149860Y-96857736D01*
X154149861Y-96857738D01*
X154251363Y-97009646D01*
X154251364Y-97009647D01*
X154380553Y-97138836D01*
X154532464Y-97240340D01*
X154701258Y-97310257D01*
X154880449Y-97345900D01*
X155863151Y-97345900D01*
X156042342Y-97310257D01*
X156211136Y-97240340D01*
X156363047Y-97138836D01*
X156492236Y-97009647D01*
X156593740Y-96857736D01*
X156663657Y-96688942D01*
X156699300Y-96509751D01*
X156699300Y-96327049D01*
X156663657Y-96147858D01*
X156593740Y-95979064D01*
X156492236Y-95827153D01*
X156363047Y-95697964D01*
X156330478Y-95676202D01*
X156211138Y-95596461D01*
X156211136Y-95596460D01*
X156042340Y-95526542D01*
X155863151Y-95490900D01*
X154880449Y-95490900D01*
X154701259Y-95526542D01*
X154532463Y-95596460D01*
X154532461Y-95596461D01*
X154380553Y-95697963D01*
X154251363Y-95827153D01*
X154149861Y-95979061D01*
X154149860Y-95979063D01*
X154079942Y-96147859D01*
X154044300Y-96327048D01*
X152067163Y-96327048D01*
X152001306Y-96261191D01*
X151983000Y-96216997D01*
X151983000Y-93787048D01*
X154044300Y-93787048D01*
X154044300Y-93969751D01*
X154079942Y-94148940D01*
X154149860Y-94317736D01*
X154149861Y-94317738D01*
X154247944Y-94464529D01*
X154251364Y-94469647D01*
X154380553Y-94598836D01*
X154532464Y-94700340D01*
X154701258Y-94770257D01*
X154880449Y-94805900D01*
X155863151Y-94805900D01*
X156042342Y-94770257D01*
X156211136Y-94700340D01*
X156363047Y-94598836D01*
X156492236Y-94469647D01*
X156593740Y-94317736D01*
X156663657Y-94148942D01*
X156699300Y-93969751D01*
X156699300Y-93787049D01*
X156663657Y-93607858D01*
X156593740Y-93439064D01*
X156492236Y-93287153D01*
X156363047Y-93157964D01*
X156363046Y-93157963D01*
X156211138Y-93056461D01*
X156211136Y-93056460D01*
X156042340Y-92986542D01*
X155863151Y-92950900D01*
X154880449Y-92950900D01*
X154701259Y-92986542D01*
X154532463Y-93056460D01*
X154532461Y-93056461D01*
X154380553Y-93157963D01*
X154251363Y-93287153D01*
X154149861Y-93439061D01*
X154149860Y-93439063D01*
X154079942Y-93607859D01*
X154044300Y-93787048D01*
X151983000Y-93787048D01*
X151983000Y-91247048D01*
X154044300Y-91247048D01*
X154044300Y-91429751D01*
X154079942Y-91608940D01*
X154149860Y-91777736D01*
X154149861Y-91777738D01*
X154251363Y-91929646D01*
X154251364Y-91929647D01*
X154380553Y-92058836D01*
X154532464Y-92160340D01*
X154701258Y-92230257D01*
X154880449Y-92265900D01*
X155863151Y-92265900D01*
X156042342Y-92230257D01*
X156211136Y-92160340D01*
X156363047Y-92058836D01*
X156492236Y-91929647D01*
X156593740Y-91777736D01*
X156663657Y-91608942D01*
X156699300Y-91429751D01*
X156699300Y-91247049D01*
X156663657Y-91067858D01*
X156593740Y-90899064D01*
X156492236Y-90747153D01*
X156363047Y-90617964D01*
X156363046Y-90617963D01*
X156211138Y-90516461D01*
X156211136Y-90516460D01*
X156042340Y-90446542D01*
X155863151Y-90410900D01*
X154880449Y-90410900D01*
X154701259Y-90446542D01*
X154532463Y-90516460D01*
X154532461Y-90516461D01*
X154380553Y-90617963D01*
X154251363Y-90747153D01*
X154149861Y-90899061D01*
X154149860Y-90899063D01*
X154079942Y-91067859D01*
X154044300Y-91247048D01*
X151983000Y-91247048D01*
X151983000Y-90030633D01*
X152001306Y-89986439D01*
X152980039Y-89007706D01*
X153024233Y-88989400D01*
X154012829Y-88989400D01*
X154057023Y-89007706D01*
X154074128Y-89039707D01*
X154079942Y-89068940D01*
X154149860Y-89237736D01*
X154149861Y-89237738D01*
X154230891Y-89359007D01*
X154251364Y-89389647D01*
X154380553Y-89518836D01*
X154532464Y-89620340D01*
X154701258Y-89690257D01*
X154880449Y-89725900D01*
X155863151Y-89725900D01*
X156042342Y-89690257D01*
X156211136Y-89620340D01*
X156363047Y-89518836D01*
X156492236Y-89389647D01*
X156593740Y-89237736D01*
X156663657Y-89068942D01*
X156699300Y-88889751D01*
X156699300Y-88707049D01*
X156663657Y-88527858D01*
X156593740Y-88359064D01*
X156492236Y-88207153D01*
X156390677Y-88105594D01*
X156372371Y-88061400D01*
X156390677Y-88017206D01*
X156434871Y-87998900D01*
X156967269Y-87998900D01*
X157011463Y-88017206D01*
X157029769Y-88061400D01*
X157028568Y-88073592D01*
X157028000Y-88076447D01*
X157028000Y-91294631D01*
X157009694Y-91338825D01*
X156944579Y-91403939D01*
X156944577Y-91403942D01*
X156915500Y-91474142D01*
X156915500Y-98191331D01*
X156944577Y-98261531D01*
X156944579Y-98261534D01*
X167934040Y-109250995D01*
X167952346Y-109295189D01*
X167952346Y-118676737D01*
X167981423Y-118746937D01*
X167981425Y-118746940D01*
X170313306Y-121078821D01*
X170331612Y-121123015D01*
X170313307Y-121167209D01*
X170227962Y-121252555D01*
X170126461Y-121404461D01*
X170126460Y-121404463D01*
X170056542Y-121573259D01*
X170020900Y-121752448D01*
X170020900Y-121935151D01*
X170056542Y-122114340D01*
X170126460Y-122283136D01*
X170126461Y-122283138D01*
X170210992Y-122409647D01*
X170227964Y-122435047D01*
X170357153Y-122564236D01*
X170509064Y-122665740D01*
X170677858Y-122735657D01*
X170857049Y-122771300D01*
X171839751Y-122771300D01*
X172018942Y-122735657D01*
X172187736Y-122665740D01*
X172339647Y-122564236D01*
X172468836Y-122435047D01*
X172570340Y-122283136D01*
X172640257Y-122114342D01*
X172675900Y-121935151D01*
X172675900Y-121752449D01*
X172640257Y-121573258D01*
X172570340Y-121404464D01*
X172468836Y-121252553D01*
X172339647Y-121123364D01*
X172339646Y-121123363D01*
X172187738Y-121021861D01*
X172187736Y-121021860D01*
X172018940Y-120951942D01*
X171839751Y-120916300D01*
X170857049Y-120916300D01*
X170857046Y-120916300D01*
X170751324Y-120937328D01*
X170704408Y-120927995D01*
X170694938Y-120920223D01*
X168352652Y-118577937D01*
X168334346Y-118533743D01*
X168334346Y-116710749D01*
X168352652Y-116666555D01*
X168396846Y-116648249D01*
X168441040Y-116666555D01*
X170313306Y-118538821D01*
X170331612Y-118583015D01*
X170313307Y-118627209D01*
X170227962Y-118712555D01*
X170126461Y-118864461D01*
X170126460Y-118864463D01*
X170056542Y-119033259D01*
X170020900Y-119212448D01*
X170020900Y-119395151D01*
X170056542Y-119574340D01*
X170126460Y-119743136D01*
X170126461Y-119743138D01*
X170227963Y-119895046D01*
X170227964Y-119895047D01*
X170357153Y-120024236D01*
X170509064Y-120125740D01*
X170677858Y-120195657D01*
X170857049Y-120231300D01*
X171839751Y-120231300D01*
X172018942Y-120195657D01*
X172187736Y-120125740D01*
X172339647Y-120024236D01*
X172468836Y-119895047D01*
X172570340Y-119743136D01*
X172640257Y-119574342D01*
X172675900Y-119395151D01*
X172675900Y-119212449D01*
X172640257Y-119033258D01*
X172570340Y-118864464D01*
X172468836Y-118712553D01*
X172339647Y-118583364D01*
X172339646Y-118583363D01*
X172187738Y-118481861D01*
X172187736Y-118481860D01*
X172018940Y-118411942D01*
X171839751Y-118376300D01*
X170857049Y-118376300D01*
X170857046Y-118376300D01*
X170751324Y-118397328D01*
X170704408Y-118387995D01*
X170694938Y-118380223D01*
X168606652Y-116291937D01*
X168588346Y-116247743D01*
X168588346Y-114424749D01*
X168606652Y-114380555D01*
X168650846Y-114362249D01*
X168695040Y-114380555D01*
X170313306Y-115998821D01*
X170331612Y-116043015D01*
X170313307Y-116087209D01*
X170227962Y-116172555D01*
X170126461Y-116324461D01*
X170126460Y-116324463D01*
X170056542Y-116493259D01*
X170020900Y-116672448D01*
X170020900Y-116855151D01*
X170056542Y-117034340D01*
X170126460Y-117203136D01*
X170126461Y-117203138D01*
X170210992Y-117329647D01*
X170227964Y-117355047D01*
X170357153Y-117484236D01*
X170509064Y-117585740D01*
X170677858Y-117655657D01*
X170857049Y-117691300D01*
X171839751Y-117691300D01*
X172018942Y-117655657D01*
X172187736Y-117585740D01*
X172339647Y-117484236D01*
X172468836Y-117355047D01*
X172570340Y-117203136D01*
X172640257Y-117034342D01*
X172675900Y-116855151D01*
X172675900Y-116672449D01*
X172640257Y-116493258D01*
X172570340Y-116324464D01*
X172468836Y-116172553D01*
X172339647Y-116043364D01*
X172339646Y-116043363D01*
X172187738Y-115941861D01*
X172187736Y-115941860D01*
X172018940Y-115871942D01*
X171839751Y-115836300D01*
X170857049Y-115836300D01*
X170857046Y-115836300D01*
X170751324Y-115857328D01*
X170704408Y-115847995D01*
X170694938Y-115840223D01*
X168860652Y-114005937D01*
X168842346Y-113961743D01*
X168842346Y-112138749D01*
X168860652Y-112094555D01*
X168904846Y-112076249D01*
X168949040Y-112094555D01*
X170313306Y-113458821D01*
X170331612Y-113503015D01*
X170313307Y-113547209D01*
X170227962Y-113632555D01*
X170126461Y-113784461D01*
X170126460Y-113784463D01*
X170056542Y-113953259D01*
X170020900Y-114132448D01*
X170020900Y-114315151D01*
X170056542Y-114494340D01*
X170126460Y-114663136D01*
X170126461Y-114663138D01*
X170227963Y-114815046D01*
X170227964Y-114815047D01*
X170357153Y-114944236D01*
X170509064Y-115045740D01*
X170677858Y-115115657D01*
X170857049Y-115151300D01*
X171839751Y-115151300D01*
X172018942Y-115115657D01*
X172187736Y-115045740D01*
X172339647Y-114944236D01*
X172468836Y-114815047D01*
X172570340Y-114663136D01*
X172640257Y-114494342D01*
X172675900Y-114315151D01*
X172675900Y-114132449D01*
X172640257Y-113953258D01*
X172570340Y-113784464D01*
X172468836Y-113632553D01*
X172339647Y-113503364D01*
X172339643Y-113503361D01*
X172187738Y-113401861D01*
X172187736Y-113401860D01*
X172018940Y-113331942D01*
X171839751Y-113296300D01*
X170857049Y-113296300D01*
X170857046Y-113296300D01*
X170751324Y-113317328D01*
X170704408Y-113307995D01*
X170694938Y-113300223D01*
X169114652Y-111719937D01*
X169096346Y-111675743D01*
X169096346Y-111592448D01*
X170020900Y-111592448D01*
X170020900Y-111775151D01*
X170056542Y-111954340D01*
X170126460Y-112123136D01*
X170126461Y-112123138D01*
X170210992Y-112249647D01*
X170227964Y-112275047D01*
X170357153Y-112404236D01*
X170509064Y-112505740D01*
X170677858Y-112575657D01*
X170857049Y-112611300D01*
X171839751Y-112611300D01*
X172018942Y-112575657D01*
X172187736Y-112505740D01*
X172339647Y-112404236D01*
X172468836Y-112275047D01*
X172570340Y-112123136D01*
X172640257Y-111954342D01*
X172675900Y-111775151D01*
X172675900Y-111592449D01*
X172640257Y-111413258D01*
X172570340Y-111244464D01*
X172468836Y-111092553D01*
X172339647Y-110963364D01*
X172339646Y-110963363D01*
X172187738Y-110861861D01*
X172187736Y-110861860D01*
X172018940Y-110791942D01*
X171839751Y-110756300D01*
X170857049Y-110756300D01*
X170677859Y-110791942D01*
X170509063Y-110861860D01*
X170509061Y-110861861D01*
X170357153Y-110963363D01*
X170227963Y-111092553D01*
X170126461Y-111244461D01*
X170126460Y-111244463D01*
X170056542Y-111413259D01*
X170020900Y-111592448D01*
X169096346Y-111592448D01*
X169096346Y-109052448D01*
X170020900Y-109052448D01*
X170020900Y-109235151D01*
X170056542Y-109414340D01*
X170126460Y-109583136D01*
X170126461Y-109583138D01*
X170210992Y-109709647D01*
X170227964Y-109735047D01*
X170357153Y-109864236D01*
X170509064Y-109965740D01*
X170677858Y-110035657D01*
X170857049Y-110071300D01*
X171839751Y-110071300D01*
X172018942Y-110035657D01*
X172187736Y-109965740D01*
X172339647Y-109864236D01*
X172468836Y-109735047D01*
X172570340Y-109583136D01*
X172640257Y-109414342D01*
X172675900Y-109235151D01*
X172675900Y-109052449D01*
X172640257Y-108873258D01*
X172570340Y-108704464D01*
X172468836Y-108552553D01*
X172339647Y-108423364D01*
X172339646Y-108423363D01*
X172187738Y-108321861D01*
X172187736Y-108321860D01*
X172018940Y-108251942D01*
X171839751Y-108216300D01*
X170857049Y-108216300D01*
X170677859Y-108251942D01*
X170509063Y-108321860D01*
X170509061Y-108321861D01*
X170357153Y-108423363D01*
X170227963Y-108552553D01*
X170126461Y-108704461D01*
X170126460Y-108704463D01*
X170056542Y-108873259D01*
X170020900Y-109052448D01*
X169096346Y-109052448D01*
X169096346Y-108836566D01*
X169096346Y-108836564D01*
X169067268Y-108766363D01*
X169013539Y-108712634D01*
X166813353Y-106512448D01*
X170020900Y-106512448D01*
X170020900Y-106695151D01*
X170056542Y-106874340D01*
X170126460Y-107043136D01*
X170126461Y-107043138D01*
X170210992Y-107169647D01*
X170227964Y-107195047D01*
X170357153Y-107324236D01*
X170509064Y-107425740D01*
X170677858Y-107495657D01*
X170857049Y-107531300D01*
X171839751Y-107531300D01*
X172018942Y-107495657D01*
X172187736Y-107425740D01*
X172339647Y-107324236D01*
X172468836Y-107195047D01*
X172570340Y-107043136D01*
X172640257Y-106874342D01*
X172675900Y-106695151D01*
X172675900Y-106512449D01*
X172640257Y-106333258D01*
X172570340Y-106164464D01*
X172468836Y-106012553D01*
X172339647Y-105883364D01*
X172339646Y-105883363D01*
X172187738Y-105781861D01*
X172187736Y-105781860D01*
X172018940Y-105711942D01*
X171839751Y-105676300D01*
X170857049Y-105676300D01*
X170677859Y-105711942D01*
X170509063Y-105781860D01*
X170509061Y-105781861D01*
X170357153Y-105883363D01*
X170227963Y-106012553D01*
X170126461Y-106164461D01*
X170126460Y-106164463D01*
X170056542Y-106333259D01*
X170020900Y-106512448D01*
X166813353Y-106512448D01*
X162420599Y-102119694D01*
X162402293Y-102075500D01*
X162420599Y-102031306D01*
X162464793Y-102013000D01*
X168663188Y-102013000D01*
X168707382Y-102031306D01*
X170159916Y-103483840D01*
X170178222Y-103528034D01*
X170167690Y-103562756D01*
X170126460Y-103624462D01*
X170126460Y-103624463D01*
X170056542Y-103793259D01*
X170020900Y-103972448D01*
X170020900Y-104155151D01*
X170056542Y-104334340D01*
X170126460Y-104503136D01*
X170126461Y-104503138D01*
X170210992Y-104629647D01*
X170227964Y-104655047D01*
X170357153Y-104784236D01*
X170509064Y-104885740D01*
X170677858Y-104955657D01*
X170857049Y-104991300D01*
X171839751Y-104991300D01*
X172018942Y-104955657D01*
X172187736Y-104885740D01*
X172339647Y-104784236D01*
X172468836Y-104655047D01*
X172570340Y-104503136D01*
X172640257Y-104334342D01*
X172675900Y-104155151D01*
X172675900Y-103972449D01*
X172640257Y-103793258D01*
X172570340Y-103624464D01*
X172468836Y-103472553D01*
X172363977Y-103367694D01*
X172345671Y-103323500D01*
X172363977Y-103279306D01*
X172408171Y-103261000D01*
X174486577Y-103261000D01*
X174530771Y-103279306D01*
X184480594Y-113229129D01*
X184498900Y-113273323D01*
X184498900Y-119907308D01*
X184498900Y-119983292D01*
X184519460Y-120032929D01*
X184527977Y-120053491D01*
X184527979Y-120053494D01*
X185553306Y-121078821D01*
X185571612Y-121123015D01*
X185553307Y-121167209D01*
X185467962Y-121252555D01*
X185366461Y-121404461D01*
X185366460Y-121404463D01*
X185296542Y-121573259D01*
X185260900Y-121752448D01*
X185260900Y-121935151D01*
X185296542Y-122114340D01*
X185366460Y-122283136D01*
X185366461Y-122283138D01*
X185450992Y-122409647D01*
X185467964Y-122435047D01*
X185597153Y-122564236D01*
X185749064Y-122665740D01*
X185917858Y-122735657D01*
X186097049Y-122771300D01*
X187079751Y-122771300D01*
X187258942Y-122735657D01*
X187427736Y-122665740D01*
X187579647Y-122564236D01*
X187708836Y-122435047D01*
X187810340Y-122283136D01*
X187880257Y-122114342D01*
X187915900Y-121935151D01*
X187915900Y-121752449D01*
X187880257Y-121573258D01*
X187810340Y-121404464D01*
X187708836Y-121252553D01*
X187579647Y-121123364D01*
X187579646Y-121123363D01*
X187427738Y-121021861D01*
X187427736Y-121021860D01*
X187258940Y-120951942D01*
X187079751Y-120916300D01*
X186097049Y-120916300D01*
X186097046Y-120916300D01*
X185991324Y-120937328D01*
X185944408Y-120927995D01*
X185934938Y-120920223D01*
X184899206Y-119884491D01*
X184880900Y-119840297D01*
X184880900Y-118017303D01*
X184899206Y-117973109D01*
X184943400Y-117954803D01*
X184987594Y-117973109D01*
X185553306Y-118538821D01*
X185571612Y-118583015D01*
X185553307Y-118627209D01*
X185467962Y-118712555D01*
X185366461Y-118864461D01*
X185366460Y-118864463D01*
X185296542Y-119033259D01*
X185260900Y-119212448D01*
X185260900Y-119395151D01*
X185296542Y-119574340D01*
X185366460Y-119743136D01*
X185366461Y-119743138D01*
X185467963Y-119895046D01*
X185467964Y-119895047D01*
X185597153Y-120024236D01*
X185749064Y-120125740D01*
X185917858Y-120195657D01*
X186097049Y-120231300D01*
X187079751Y-120231300D01*
X187258942Y-120195657D01*
X187427736Y-120125740D01*
X187579647Y-120024236D01*
X187708836Y-119895047D01*
X187810340Y-119743136D01*
X187880257Y-119574342D01*
X187915900Y-119395151D01*
X187915900Y-119212449D01*
X187880257Y-119033258D01*
X187810340Y-118864464D01*
X187708836Y-118712553D01*
X187579647Y-118583364D01*
X187579646Y-118583363D01*
X187427738Y-118481861D01*
X187427736Y-118481860D01*
X187258940Y-118411942D01*
X187079751Y-118376300D01*
X186097049Y-118376300D01*
X186097046Y-118376300D01*
X185991324Y-118397328D01*
X185944408Y-118387995D01*
X185934938Y-118380223D01*
X185153206Y-117598491D01*
X185134900Y-117554297D01*
X185134900Y-115731303D01*
X185153206Y-115687109D01*
X185197400Y-115668803D01*
X185241594Y-115687109D01*
X185553306Y-115998821D01*
X185571612Y-116043015D01*
X185553307Y-116087209D01*
X185467962Y-116172555D01*
X185366461Y-116324461D01*
X185366460Y-116324463D01*
X185296542Y-116493259D01*
X185260900Y-116672448D01*
X185260900Y-116855151D01*
X185296542Y-117034340D01*
X185366460Y-117203136D01*
X185366461Y-117203138D01*
X185450992Y-117329647D01*
X185467964Y-117355047D01*
X185597153Y-117484236D01*
X185749064Y-117585740D01*
X185917858Y-117655657D01*
X186097049Y-117691300D01*
X187079751Y-117691300D01*
X187258942Y-117655657D01*
X187427736Y-117585740D01*
X187579647Y-117484236D01*
X187708836Y-117355047D01*
X187810340Y-117203136D01*
X187880257Y-117034342D01*
X187915900Y-116855151D01*
X187915900Y-116672449D01*
X187880257Y-116493258D01*
X187810340Y-116324464D01*
X187708836Y-116172553D01*
X187579647Y-116043364D01*
X187579646Y-116043363D01*
X187427738Y-115941861D01*
X187427736Y-115941860D01*
X187258940Y-115871942D01*
X187079751Y-115836300D01*
X186097049Y-115836300D01*
X186097046Y-115836300D01*
X185991324Y-115857328D01*
X185944408Y-115847995D01*
X185934938Y-115840223D01*
X185407206Y-115312491D01*
X185388900Y-115268297D01*
X185388900Y-114886871D01*
X185407206Y-114842677D01*
X185451400Y-114824371D01*
X185495594Y-114842677D01*
X185597153Y-114944236D01*
X185749064Y-115045740D01*
X185917858Y-115115657D01*
X186097049Y-115151300D01*
X187079751Y-115151300D01*
X187258942Y-115115657D01*
X187427736Y-115045740D01*
X187579647Y-114944236D01*
X187708836Y-114815047D01*
X187810340Y-114663136D01*
X187880257Y-114494342D01*
X187915900Y-114315151D01*
X187915900Y-114132449D01*
X187880257Y-113953258D01*
X187810340Y-113784464D01*
X187708836Y-113632553D01*
X187579647Y-113503364D01*
X187579643Y-113503361D01*
X187427738Y-113401861D01*
X187427736Y-113401860D01*
X187258940Y-113331942D01*
X187079751Y-113296300D01*
X186191513Y-113296300D01*
X186147319Y-113277994D01*
X184850819Y-111981494D01*
X184832513Y-111937300D01*
X184850819Y-111893106D01*
X184895013Y-111874800D01*
X185229429Y-111874800D01*
X185273623Y-111893106D01*
X185290728Y-111925107D01*
X185296542Y-111954340D01*
X185366460Y-112123136D01*
X185366461Y-112123138D01*
X185450992Y-112249647D01*
X185467964Y-112275047D01*
X185597153Y-112404236D01*
X185749064Y-112505740D01*
X185917858Y-112575657D01*
X186097049Y-112611300D01*
X187079751Y-112611300D01*
X187258942Y-112575657D01*
X187427736Y-112505740D01*
X187579647Y-112404236D01*
X187708836Y-112275047D01*
X187810340Y-112123136D01*
X187880257Y-111954342D01*
X187915900Y-111775151D01*
X187915900Y-111592449D01*
X187880257Y-111413258D01*
X187810340Y-111244464D01*
X187708836Y-111092553D01*
X187579647Y-110963364D01*
X187579646Y-110963363D01*
X187427738Y-110861861D01*
X187427736Y-110861860D01*
X187258940Y-110791942D01*
X187079751Y-110756300D01*
X186097049Y-110756300D01*
X185917859Y-110791942D01*
X185749063Y-110861860D01*
X185749061Y-110861861D01*
X185597153Y-110963363D01*
X185467963Y-111092553D01*
X185366461Y-111244461D01*
X185366460Y-111244463D01*
X185296542Y-111413259D01*
X185290728Y-111442493D01*
X185264153Y-111482267D01*
X185229429Y-111492800D01*
X184898333Y-111492800D01*
X184854139Y-111474494D01*
X182821139Y-109441494D01*
X182802833Y-109397300D01*
X182821139Y-109353106D01*
X182865333Y-109334800D01*
X185229429Y-109334800D01*
X185273623Y-109353106D01*
X185290728Y-109385107D01*
X185296542Y-109414340D01*
X185366460Y-109583136D01*
X185366461Y-109583138D01*
X185450992Y-109709647D01*
X185467964Y-109735047D01*
X185597153Y-109864236D01*
X185749064Y-109965740D01*
X185917858Y-110035657D01*
X186097049Y-110071300D01*
X187079751Y-110071300D01*
X187258942Y-110035657D01*
X187427736Y-109965740D01*
X187579647Y-109864236D01*
X187708836Y-109735047D01*
X187810340Y-109583136D01*
X187880257Y-109414342D01*
X187915900Y-109235151D01*
X187915900Y-109052449D01*
X187880257Y-108873258D01*
X187810340Y-108704464D01*
X187708836Y-108552553D01*
X187579647Y-108423364D01*
X187579646Y-108423363D01*
X187427738Y-108321861D01*
X187427736Y-108321860D01*
X187258940Y-108251942D01*
X187079751Y-108216300D01*
X186097049Y-108216300D01*
X185917859Y-108251942D01*
X185749063Y-108321860D01*
X185749061Y-108321861D01*
X185597153Y-108423363D01*
X185467963Y-108552553D01*
X185366461Y-108704461D01*
X185366460Y-108704463D01*
X185296542Y-108873259D01*
X185290728Y-108902493D01*
X185264153Y-108942267D01*
X185229429Y-108952800D01*
X184660403Y-108952800D01*
X184616209Y-108934494D01*
X184597903Y-108890300D01*
X184616209Y-108846106D01*
X184935162Y-108527153D01*
X185934939Y-107527374D01*
X185979132Y-107509069D01*
X185991323Y-107510269D01*
X186097049Y-107531300D01*
X187079751Y-107531300D01*
X187258942Y-107495657D01*
X187427736Y-107425740D01*
X187579647Y-107324236D01*
X187708836Y-107195047D01*
X187810340Y-107043136D01*
X187880257Y-106874342D01*
X187915900Y-106695151D01*
X187915900Y-106512449D01*
X187880257Y-106333258D01*
X187810340Y-106164464D01*
X187708836Y-106012553D01*
X187579647Y-105883364D01*
X187579646Y-105883363D01*
X187427738Y-105781861D01*
X187427736Y-105781860D01*
X187258940Y-105711942D01*
X187079751Y-105676300D01*
X186097049Y-105676300D01*
X185917859Y-105711942D01*
X185749063Y-105781860D01*
X185749061Y-105781861D01*
X185597153Y-105883363D01*
X185467963Y-106012553D01*
X185366461Y-106164461D01*
X185366460Y-106164463D01*
X185296542Y-106333259D01*
X185260900Y-106512448D01*
X185260900Y-106695151D01*
X185296542Y-106874340D01*
X185366460Y-107043136D01*
X185366461Y-107043138D01*
X185467963Y-107195046D01*
X185553306Y-107280389D01*
X185571612Y-107324583D01*
X185553306Y-107368777D01*
X184261391Y-108660694D01*
X184217197Y-108679000D01*
X182960639Y-108679000D01*
X182916445Y-108660694D01*
X175146827Y-100891076D01*
X175146826Y-100891075D01*
X175076625Y-100861997D01*
X175076624Y-100861997D01*
X174022231Y-100861997D01*
X173982057Y-100847375D01*
X173962992Y-100831378D01*
X173940904Y-100788948D01*
X173955288Y-100743326D01*
X173997718Y-100721238D01*
X174003166Y-100721000D01*
X176494269Y-100721000D01*
X176534443Y-100735622D01*
X176552171Y-100750497D01*
X176606416Y-100796014D01*
X176686449Y-100825143D01*
X176693456Y-100827694D01*
X176706661Y-100832500D01*
X176706664Y-100832500D01*
X176813336Y-100832500D01*
X176813339Y-100832500D01*
X176913584Y-100796014D01*
X176995304Y-100727443D01*
X177048643Y-100635057D01*
X177067167Y-100530000D01*
X177048643Y-100424943D01*
X176995304Y-100332557D01*
X176985557Y-100324378D01*
X176913585Y-100263986D01*
X176913582Y-100263985D01*
X176813341Y-100227500D01*
X176813339Y-100227500D01*
X176706661Y-100227500D01*
X176706658Y-100227500D01*
X176606418Y-100263985D01*
X176606415Y-100263987D01*
X176534444Y-100324378D01*
X176494270Y-100339000D01*
X170503429Y-100339000D01*
X170433229Y-100368077D01*
X170433226Y-100368079D01*
X170204612Y-100596694D01*
X170160418Y-100615000D01*
X169891396Y-100615000D01*
X169847202Y-100596694D01*
X169828896Y-100552500D01*
X169829845Y-100541647D01*
X169831899Y-100530000D01*
X169847680Y-100440500D01*
X169829156Y-100335443D01*
X169775817Y-100243057D01*
X169757277Y-100227500D01*
X169694098Y-100174486D01*
X169694095Y-100174485D01*
X169593854Y-100138000D01*
X169593852Y-100138000D01*
X169487174Y-100138000D01*
X169487171Y-100138000D01*
X169386931Y-100174485D01*
X169386928Y-100174487D01*
X169305208Y-100243057D01*
X169255157Y-100329750D01*
X169217206Y-100358870D01*
X169201030Y-100361000D01*
X163000739Y-100361000D01*
X162956545Y-100342694D01*
X161506299Y-98892448D01*
X170020900Y-98892448D01*
X170020900Y-99075151D01*
X170056542Y-99254340D01*
X170126460Y-99423136D01*
X170126461Y-99423138D01*
X170210992Y-99549647D01*
X170227964Y-99575047D01*
X170357153Y-99704236D01*
X170509064Y-99805740D01*
X170677858Y-99875657D01*
X170857049Y-99911300D01*
X171839751Y-99911300D01*
X172018942Y-99875657D01*
X172032599Y-99870000D01*
X173021333Y-99870000D01*
X173039857Y-99975057D01*
X173093196Y-100067443D01*
X173174914Y-100136013D01*
X173174915Y-100136013D01*
X173174916Y-100136014D01*
X173275161Y-100172500D01*
X173275164Y-100172500D01*
X173381836Y-100172500D01*
X173381839Y-100172500D01*
X173482084Y-100136014D01*
X173554057Y-100075622D01*
X173594231Y-100061000D01*
X182289597Y-100061000D01*
X182333791Y-100079306D01*
X185553306Y-103298821D01*
X185571612Y-103343015D01*
X185553307Y-103387209D01*
X185467962Y-103472555D01*
X185366461Y-103624461D01*
X185366460Y-103624463D01*
X185296542Y-103793259D01*
X185260900Y-103972448D01*
X185260900Y-104155151D01*
X185296542Y-104334340D01*
X185366460Y-104503136D01*
X185366461Y-104503138D01*
X185450992Y-104629647D01*
X185467964Y-104655047D01*
X185597153Y-104784236D01*
X185749064Y-104885740D01*
X185917858Y-104955657D01*
X186097049Y-104991300D01*
X187079751Y-104991300D01*
X187258942Y-104955657D01*
X187427736Y-104885740D01*
X187579647Y-104784236D01*
X187708836Y-104655047D01*
X187810340Y-104503136D01*
X187880257Y-104334342D01*
X187915900Y-104155151D01*
X187915900Y-103972449D01*
X187880257Y-103793258D01*
X187810340Y-103624464D01*
X187708836Y-103472553D01*
X187579647Y-103343364D01*
X187579646Y-103343363D01*
X187427738Y-103241861D01*
X187427736Y-103241860D01*
X187258940Y-103171942D01*
X187079751Y-103136300D01*
X186097049Y-103136300D01*
X186097046Y-103136300D01*
X185991324Y-103157328D01*
X185944408Y-103147995D01*
X185934938Y-103140223D01*
X182502794Y-99708079D01*
X182502793Y-99708078D01*
X182432592Y-99679000D01*
X182432591Y-99679000D01*
X173594231Y-99679000D01*
X173554057Y-99664378D01*
X173482085Y-99603987D01*
X173482084Y-99603986D01*
X173482082Y-99603985D01*
X173381841Y-99567500D01*
X173381839Y-99567500D01*
X173275161Y-99567500D01*
X173275158Y-99567500D01*
X173174918Y-99603985D01*
X173174915Y-99603987D01*
X173093195Y-99672557D01*
X173039857Y-99764942D01*
X173021333Y-99870000D01*
X172032599Y-99870000D01*
X172187736Y-99805740D01*
X172339647Y-99704236D01*
X172468836Y-99575047D01*
X172570340Y-99423136D01*
X172640257Y-99254342D01*
X172675900Y-99075151D01*
X172675900Y-98892449D01*
X172640257Y-98713258D01*
X172570340Y-98544464D01*
X172468836Y-98392553D01*
X172339647Y-98263364D01*
X172339646Y-98263363D01*
X172187738Y-98161861D01*
X172187736Y-98161860D01*
X172018940Y-98091942D01*
X171839751Y-98056300D01*
X170857049Y-98056300D01*
X170677859Y-98091942D01*
X170509063Y-98161860D01*
X170509061Y-98161861D01*
X170357153Y-98263363D01*
X170227963Y-98392553D01*
X170126461Y-98544461D01*
X170126460Y-98544463D01*
X170056542Y-98713259D01*
X170020900Y-98892448D01*
X161506299Y-98892448D01*
X160561487Y-97947636D01*
X160543181Y-97903442D01*
X160544035Y-97893683D01*
X160544035Y-97893134D01*
X160541596Y-97879299D01*
X160525511Y-97788075D01*
X160472172Y-97695689D01*
X160472171Y-97695688D01*
X160390453Y-97627118D01*
X160390450Y-97627117D01*
X160290209Y-97590632D01*
X160290207Y-97590632D01*
X160246535Y-97590632D01*
X160202341Y-97572326D01*
X160188108Y-97537965D01*
X160184984Y-97538516D01*
X160172949Y-97470257D01*
X160172000Y-97459405D01*
X160172000Y-94544003D01*
X160190306Y-94499809D01*
X162130809Y-92559306D01*
X162175003Y-92541000D01*
X162814269Y-92541000D01*
X162854443Y-92555622D01*
X162890459Y-92585842D01*
X162926416Y-92616014D01*
X163026661Y-92652500D01*
X163026664Y-92652500D01*
X163133336Y-92652500D01*
X163133339Y-92652500D01*
X163233584Y-92616014D01*
X163315304Y-92547443D01*
X163368643Y-92455057D01*
X163387167Y-92350000D01*
X163368643Y-92244943D01*
X163315304Y-92152557D01*
X163293171Y-92133985D01*
X163233585Y-92083986D01*
X163233582Y-92083985D01*
X163133341Y-92047500D01*
X163133339Y-92047500D01*
X163026661Y-92047500D01*
X163026658Y-92047500D01*
X162926418Y-92083985D01*
X162926415Y-92083987D01*
X162881833Y-92121395D01*
X162860130Y-92139607D01*
X162854444Y-92144378D01*
X162814270Y-92159000D01*
X162032008Y-92159000D01*
X161961808Y-92188077D01*
X161865145Y-92284739D01*
X161820950Y-92303044D01*
X161776756Y-92284738D01*
X161766827Y-92271798D01*
X161715304Y-92182557D01*
X161688826Y-92160339D01*
X161633585Y-92113986D01*
X161633582Y-92113985D01*
X161533341Y-92077500D01*
X161533339Y-92077500D01*
X161426661Y-92077500D01*
X161426658Y-92077500D01*
X161326418Y-92113985D01*
X161326415Y-92113987D01*
X161244695Y-92182557D01*
X161191357Y-92274942D01*
X161172833Y-92380002D01*
X161172833Y-92385467D01*
X161171407Y-92385467D01*
X161162377Y-92426165D01*
X161155380Y-92434503D01*
X159547694Y-94042190D01*
X159503500Y-94060496D01*
X159459306Y-94042190D01*
X159441000Y-93997996D01*
X159441000Y-92663762D01*
X159459306Y-92619568D01*
X159463327Y-92615884D01*
X159469671Y-92610559D01*
X159485304Y-92597443D01*
X159538643Y-92505057D01*
X159557167Y-92400000D01*
X159538643Y-92294943D01*
X159485304Y-92202557D01*
X159485303Y-92202556D01*
X159403585Y-92133986D01*
X159403582Y-92133985D01*
X159397273Y-92131689D01*
X159362005Y-92099372D01*
X159359918Y-92051582D01*
X159374457Y-92028762D01*
X159381921Y-92021298D01*
X159381921Y-92021297D01*
X159381922Y-92021297D01*
X159411000Y-91951096D01*
X159411000Y-91875112D01*
X159411000Y-89359007D01*
X159381922Y-89288806D01*
X159328193Y-89235077D01*
X158924083Y-88830967D01*
X158906726Y-88797623D01*
X158905636Y-88791436D01*
X158852297Y-88699050D01*
X158834869Y-88684426D01*
X158812782Y-88641996D01*
X158827166Y-88596375D01*
X158834864Y-88588676D01*
X158870886Y-88558451D01*
X158924225Y-88466065D01*
X158942749Y-88361008D01*
X158937783Y-88332845D01*
X158948135Y-88286144D01*
X158977955Y-88263262D01*
X159059084Y-88233734D01*
X159140804Y-88165163D01*
X159194143Y-88072777D01*
X159212667Y-87967720D01*
X159208811Y-87945851D01*
X159219165Y-87899151D01*
X159259510Y-87873449D01*
X159270362Y-87872500D01*
X159323336Y-87872500D01*
X159323339Y-87872500D01*
X159423584Y-87836014D01*
X159505304Y-87767443D01*
X159558643Y-87675057D01*
X159577167Y-87570000D01*
X159577166Y-87569998D01*
X159577167Y-87569997D01*
X159577167Y-87564532D01*
X159579721Y-87564532D01*
X159588120Y-87526669D01*
X159628467Y-87500971D01*
X159630264Y-87500813D01*
X159634749Y-87500023D01*
X159634753Y-87500023D01*
X159734998Y-87463537D01*
X159816718Y-87394966D01*
X159852463Y-87333053D01*
X159890411Y-87303934D01*
X159937837Y-87310177D01*
X159950782Y-87320110D01*
X160450694Y-87820022D01*
X160469000Y-87864216D01*
X160469000Y-88096237D01*
X160450694Y-88140431D01*
X160446679Y-88144111D01*
X160431389Y-88156941D01*
X160424694Y-88162559D01*
X160371357Y-88254942D01*
X160352833Y-88360000D01*
X160371357Y-88465057D01*
X160424696Y-88557443D01*
X160506414Y-88626013D01*
X160506415Y-88626013D01*
X160506416Y-88626014D01*
X160606661Y-88662500D01*
X160606662Y-88662500D01*
X160607876Y-88662942D01*
X160643144Y-88695259D01*
X160649000Y-88721673D01*
X160649000Y-90928114D01*
X160649000Y-91004098D01*
X160678078Y-91074299D01*
X161041972Y-91438193D01*
X161095701Y-91491922D01*
X161165902Y-91521000D01*
X163501225Y-91521000D01*
X163545419Y-91539306D01*
X163562775Y-91572645D01*
X163569175Y-91608940D01*
X163578580Y-91662280D01*
X163631919Y-91754666D01*
X163713637Y-91823236D01*
X163713638Y-91823236D01*
X163713639Y-91823237D01*
X163813884Y-91859723D01*
X163813887Y-91859723D01*
X163920559Y-91859723D01*
X163920562Y-91859723D01*
X164020807Y-91823237D01*
X164102527Y-91754666D01*
X164155866Y-91662280D01*
X164174390Y-91557223D01*
X164174389Y-91557221D01*
X164174390Y-91557220D01*
X164165246Y-91505362D01*
X164175599Y-91458660D01*
X164215943Y-91432959D01*
X164262645Y-91443312D01*
X164270990Y-91450315D01*
X165139294Y-92318619D01*
X165209495Y-92347697D01*
X165285479Y-92347697D01*
X168076040Y-92347697D01*
X168120234Y-92366003D01*
X168138540Y-92410197D01*
X168120234Y-92454391D01*
X166383399Y-94191226D01*
X166339205Y-94209532D01*
X165881476Y-94209532D01*
X165811276Y-94238609D01*
X165811273Y-94238611D01*
X165550691Y-94499194D01*
X165506497Y-94517500D01*
X165446658Y-94517500D01*
X165346418Y-94553985D01*
X165346415Y-94553987D01*
X165264695Y-94622557D01*
X165211357Y-94714942D01*
X165192833Y-94820000D01*
X165211357Y-94925057D01*
X165253843Y-94998645D01*
X165260086Y-95046071D01*
X165230966Y-95084022D01*
X165199716Y-95092395D01*
X164594504Y-95092395D01*
X164550310Y-95074089D01*
X164182721Y-94706500D01*
X164171836Y-94689413D01*
X164171377Y-94689679D01*
X164168642Y-94684942D01*
X164115304Y-94592557D01*
X164115303Y-94592556D01*
X164033585Y-94523986D01*
X164033582Y-94523985D01*
X163933341Y-94487500D01*
X163933339Y-94487500D01*
X163826661Y-94487500D01*
X163826658Y-94487500D01*
X163726418Y-94523985D01*
X163726415Y-94523987D01*
X163644695Y-94592557D01*
X163591357Y-94684942D01*
X163572833Y-94790000D01*
X163583992Y-94853285D01*
X163573638Y-94899987D01*
X163533294Y-94925689D01*
X163486592Y-94915335D01*
X163478247Y-94908332D01*
X163404419Y-94834504D01*
X163386113Y-94790310D01*
X163386967Y-94780551D01*
X163386967Y-94780002D01*
X163384022Y-94763300D01*
X163368443Y-94674943D01*
X163315104Y-94582557D01*
X163295202Y-94565857D01*
X163233385Y-94513986D01*
X163233382Y-94513985D01*
X163133141Y-94477500D01*
X163133139Y-94477500D01*
X163026461Y-94477500D01*
X163026458Y-94477500D01*
X162925423Y-94514274D01*
X162877633Y-94512187D01*
X162859853Y-94499737D01*
X162821090Y-94460974D01*
X162821075Y-94460961D01*
X162598193Y-94238078D01*
X162598191Y-94238077D01*
X162577629Y-94229560D01*
X162527992Y-94209000D01*
X161871292Y-94209000D01*
X161795308Y-94209000D01*
X161725108Y-94238077D01*
X161725105Y-94238079D01*
X161520691Y-94442494D01*
X161476497Y-94460800D01*
X161416658Y-94460800D01*
X161316418Y-94497285D01*
X161316415Y-94497287D01*
X161234695Y-94565857D01*
X161181357Y-94658242D01*
X161162833Y-94763300D01*
X161181357Y-94868357D01*
X161234696Y-94960743D01*
X161316414Y-95029313D01*
X161316415Y-95029313D01*
X161316416Y-95029314D01*
X161379290Y-95052198D01*
X161406209Y-95061996D01*
X161416661Y-95065800D01*
X161416664Y-95065800D01*
X161523336Y-95065800D01*
X161523339Y-95065800D01*
X161623584Y-95029314D01*
X161705304Y-94960743D01*
X161758643Y-94868357D01*
X161777167Y-94763300D01*
X161777166Y-94763298D01*
X161777167Y-94763297D01*
X161777167Y-94757832D01*
X161778596Y-94757832D01*
X161787616Y-94717141D01*
X161794619Y-94708795D01*
X161842440Y-94660975D01*
X161894109Y-94609306D01*
X161938303Y-94591000D01*
X161948744Y-94591000D01*
X161992938Y-94609306D01*
X162011244Y-94653500D01*
X162010295Y-94664348D01*
X161992460Y-94765500D01*
X162002069Y-94819997D01*
X162010984Y-94870557D01*
X162064323Y-94962943D01*
X162146041Y-95031513D01*
X162146042Y-95031513D01*
X162146043Y-95031514D01*
X162189853Y-95047459D01*
X162212671Y-95061996D01*
X162301481Y-95150806D01*
X162319787Y-95195000D01*
X162301481Y-95239194D01*
X162257287Y-95257500D01*
X162236658Y-95257500D01*
X162136418Y-95293985D01*
X162136415Y-95293987D01*
X162054695Y-95362557D01*
X162001357Y-95454942D01*
X161982833Y-95560000D01*
X162001357Y-95665057D01*
X162054696Y-95757443D01*
X162136414Y-95826013D01*
X162136415Y-95826013D01*
X162136416Y-95826014D01*
X162236661Y-95862500D01*
X162236664Y-95862500D01*
X162343336Y-95862500D01*
X162343339Y-95862500D01*
X162443584Y-95826014D01*
X162494267Y-95783485D01*
X162539888Y-95769102D01*
X162578635Y-95787170D01*
X162882770Y-96091305D01*
X162901076Y-96135499D01*
X162882770Y-96179693D01*
X162859958Y-96194228D01*
X162853644Y-96196526D01*
X162771921Y-96265099D01*
X162718583Y-96357484D01*
X162700059Y-96462542D01*
X162718583Y-96567599D01*
X162771922Y-96659985D01*
X162853640Y-96728555D01*
X162853641Y-96728555D01*
X162853642Y-96728556D01*
X162953887Y-96765042D01*
X163013723Y-96765042D01*
X163057917Y-96783348D01*
X163250491Y-96975922D01*
X163320692Y-97005000D01*
X163396676Y-97005000D01*
X163936117Y-97005000D01*
X163980311Y-97023306D01*
X163998617Y-97067500D01*
X163997668Y-97078348D01*
X163979833Y-97179500D01*
X163996851Y-97276014D01*
X163998357Y-97284557D01*
X164051696Y-97376943D01*
X164133414Y-97445513D01*
X164133415Y-97445513D01*
X164133416Y-97445514D01*
X164233661Y-97482000D01*
X164233664Y-97482000D01*
X164340336Y-97482000D01*
X164340339Y-97482000D01*
X164440584Y-97445514D01*
X164512557Y-97385122D01*
X164552731Y-97370500D01*
X169459898Y-97370500D01*
X169504092Y-97388806D01*
X169965508Y-97850222D01*
X170035709Y-97879300D01*
X170111693Y-97879300D01*
X182647897Y-97879300D01*
X182692091Y-97897606D01*
X185553306Y-100758821D01*
X185571612Y-100803015D01*
X185553307Y-100847209D01*
X185467962Y-100932555D01*
X185366461Y-101084461D01*
X185366460Y-101084463D01*
X185296542Y-101253259D01*
X185260900Y-101432448D01*
X185260900Y-101615151D01*
X185296542Y-101794340D01*
X185366460Y-101963136D01*
X185366461Y-101963138D01*
X185452192Y-102091443D01*
X185467964Y-102115047D01*
X185597153Y-102244236D01*
X185749064Y-102345740D01*
X185917858Y-102415657D01*
X186097049Y-102451300D01*
X187079751Y-102451300D01*
X187258942Y-102415657D01*
X187427736Y-102345740D01*
X187579647Y-102244236D01*
X187708836Y-102115047D01*
X187810340Y-101963136D01*
X187880257Y-101794342D01*
X187915900Y-101615151D01*
X187915900Y-101432449D01*
X187880257Y-101253258D01*
X187810340Y-101084464D01*
X187708836Y-100932553D01*
X187579647Y-100803364D01*
X187579646Y-100803363D01*
X187427738Y-100701861D01*
X187427736Y-100701860D01*
X187258940Y-100631942D01*
X187079751Y-100596300D01*
X186097049Y-100596300D01*
X186097046Y-100596300D01*
X185991324Y-100617328D01*
X185944408Y-100607995D01*
X185934938Y-100600223D01*
X183066709Y-97731994D01*
X183048403Y-97687800D01*
X183066709Y-97643606D01*
X183110903Y-97625300D01*
X184933897Y-97625300D01*
X184978091Y-97643606D01*
X185553306Y-98218821D01*
X185571612Y-98263015D01*
X185553307Y-98307209D01*
X185467962Y-98392555D01*
X185366461Y-98544461D01*
X185366460Y-98544463D01*
X185296542Y-98713259D01*
X185260900Y-98892448D01*
X185260900Y-99075151D01*
X185296542Y-99254340D01*
X185366460Y-99423136D01*
X185366461Y-99423138D01*
X185450992Y-99549647D01*
X185467964Y-99575047D01*
X185597153Y-99704236D01*
X185749064Y-99805740D01*
X185917858Y-99875657D01*
X186097049Y-99911300D01*
X187079751Y-99911300D01*
X187258942Y-99875657D01*
X187427736Y-99805740D01*
X187579647Y-99704236D01*
X187708836Y-99575047D01*
X187810340Y-99423136D01*
X187880257Y-99254342D01*
X187915900Y-99075151D01*
X187915900Y-98892449D01*
X187880257Y-98713258D01*
X187810340Y-98544464D01*
X187708836Y-98392553D01*
X187579647Y-98263364D01*
X187579646Y-98263363D01*
X187427738Y-98161861D01*
X187427736Y-98161860D01*
X187258940Y-98091942D01*
X187079751Y-98056300D01*
X186097049Y-98056300D01*
X186097046Y-98056300D01*
X185991324Y-98077328D01*
X185944408Y-98067995D01*
X185934938Y-98060223D01*
X185147094Y-97272379D01*
X185147093Y-97272378D01*
X185076892Y-97243300D01*
X185076891Y-97243300D01*
X172411471Y-97243300D01*
X172367277Y-97224994D01*
X172348971Y-97180800D01*
X172367277Y-97136606D01*
X172404132Y-97099751D01*
X172468836Y-97035047D01*
X172570340Y-96883136D01*
X172640257Y-96714342D01*
X172646072Y-96685106D01*
X172672647Y-96645333D01*
X172707371Y-96634800D01*
X175230716Y-96634800D01*
X175270890Y-96649422D01*
X175326414Y-96696013D01*
X175326415Y-96696013D01*
X175326416Y-96696014D01*
X175426661Y-96732500D01*
X175426664Y-96732500D01*
X175533336Y-96732500D01*
X175533339Y-96732500D01*
X175633584Y-96696014D01*
X175715304Y-96627443D01*
X175768643Y-96535057D01*
X175787167Y-96430000D01*
X175787166Y-96429998D01*
X175787167Y-96429997D01*
X175768539Y-96324353D01*
X175778892Y-96277652D01*
X175819236Y-96251950D01*
X175830089Y-96251000D01*
X184374997Y-96251000D01*
X184419191Y-96269306D01*
X184755607Y-96605722D01*
X184825808Y-96634800D01*
X184901792Y-96634800D01*
X185229429Y-96634800D01*
X185273623Y-96653106D01*
X185290728Y-96685107D01*
X185296542Y-96714340D01*
X185366460Y-96883136D01*
X185366461Y-96883138D01*
X185450992Y-97009647D01*
X185467964Y-97035047D01*
X185597153Y-97164236D01*
X185749064Y-97265740D01*
X185917858Y-97335657D01*
X186097049Y-97371300D01*
X187079751Y-97371300D01*
X187258942Y-97335657D01*
X187427736Y-97265740D01*
X187579647Y-97164236D01*
X187708836Y-97035047D01*
X187810340Y-96883136D01*
X187880257Y-96714342D01*
X187915900Y-96535151D01*
X187915900Y-96352449D01*
X187880257Y-96173258D01*
X187810340Y-96004464D01*
X187708836Y-95852553D01*
X187579647Y-95723364D01*
X187579646Y-95723363D01*
X187427738Y-95621861D01*
X187427736Y-95621860D01*
X187258940Y-95551942D01*
X187079751Y-95516300D01*
X186097049Y-95516300D01*
X185917859Y-95551942D01*
X185749063Y-95621860D01*
X185749061Y-95621861D01*
X185597153Y-95723363D01*
X185467963Y-95852553D01*
X185366461Y-96004461D01*
X185366460Y-96004463D01*
X185296542Y-96173259D01*
X185290728Y-96202493D01*
X185264153Y-96242267D01*
X185229429Y-96252800D01*
X184968803Y-96252800D01*
X184924609Y-96234494D01*
X184588194Y-95898079D01*
X184588193Y-95898078D01*
X184517992Y-95869000D01*
X184517991Y-95869000D01*
X173225003Y-95869000D01*
X173180809Y-95850694D01*
X173134864Y-95804749D01*
X173116558Y-95760555D01*
X173134864Y-95716361D01*
X173157680Y-95701825D01*
X173228084Y-95676201D01*
X173309804Y-95607630D01*
X173363143Y-95515244D01*
X173376476Y-95439620D01*
X173393831Y-95406282D01*
X174918809Y-93881306D01*
X174963003Y-93863000D01*
X184406997Y-93863000D01*
X184451191Y-93881306D01*
X184635607Y-94065722D01*
X184705808Y-94094800D01*
X184781792Y-94094800D01*
X185229429Y-94094800D01*
X185273623Y-94113106D01*
X185290728Y-94145107D01*
X185296542Y-94174340D01*
X185366460Y-94343136D01*
X185366461Y-94343138D01*
X185450992Y-94469647D01*
X185467964Y-94495047D01*
X185597153Y-94624236D01*
X185749064Y-94725740D01*
X185917858Y-94795657D01*
X186097049Y-94831300D01*
X187079751Y-94831300D01*
X187258942Y-94795657D01*
X187427736Y-94725740D01*
X187579647Y-94624236D01*
X187708836Y-94495047D01*
X187810340Y-94343136D01*
X187880257Y-94174342D01*
X187915900Y-93995151D01*
X187915900Y-93812449D01*
X187880257Y-93633258D01*
X187810340Y-93464464D01*
X187708836Y-93312553D01*
X187579647Y-93183364D01*
X187579646Y-93183363D01*
X187427738Y-93081861D01*
X187427736Y-93081860D01*
X187258940Y-93011942D01*
X187079751Y-92976300D01*
X186097049Y-92976300D01*
X185917859Y-93011942D01*
X185749063Y-93081860D01*
X185749061Y-93081861D01*
X185597153Y-93183363D01*
X185467963Y-93312553D01*
X185366461Y-93464461D01*
X185366460Y-93464463D01*
X185296542Y-93633259D01*
X185290728Y-93662493D01*
X185264153Y-93702267D01*
X185229429Y-93712800D01*
X184848803Y-93712800D01*
X184804609Y-93694494D01*
X184710408Y-93600293D01*
X184692102Y-93556099D01*
X184710408Y-93511905D01*
X185271413Y-92950900D01*
X185934939Y-92287374D01*
X185979132Y-92269069D01*
X185991323Y-92270269D01*
X186097049Y-92291300D01*
X187079751Y-92291300D01*
X187258942Y-92255657D01*
X187427736Y-92185740D01*
X187579647Y-92084236D01*
X187708836Y-91955047D01*
X187810340Y-91803136D01*
X187880257Y-91634342D01*
X187915900Y-91455151D01*
X187915900Y-91272449D01*
X187880257Y-91093258D01*
X187810340Y-90924464D01*
X187708836Y-90772553D01*
X187579647Y-90643364D01*
X187542726Y-90618694D01*
X187427738Y-90541861D01*
X187427736Y-90541860D01*
X187258940Y-90471942D01*
X187079751Y-90436300D01*
X186097049Y-90436300D01*
X185917859Y-90471942D01*
X185749063Y-90541860D01*
X185749061Y-90541861D01*
X185597153Y-90643363D01*
X185467963Y-90772553D01*
X185366461Y-90924461D01*
X185366460Y-90924463D01*
X185296542Y-91093259D01*
X185260900Y-91272448D01*
X185260900Y-91455151D01*
X185296542Y-91634340D01*
X185366460Y-91803136D01*
X185366461Y-91803138D01*
X185467963Y-91955046D01*
X185467965Y-91955048D01*
X185553306Y-92040390D01*
X185571612Y-92084584D01*
X185553306Y-92128778D01*
X184473391Y-93208694D01*
X184429197Y-93227000D01*
X182606203Y-93227000D01*
X182562009Y-93208694D01*
X182543703Y-93164500D01*
X182562009Y-93120306D01*
X183397577Y-92284738D01*
X185934939Y-89747374D01*
X185979132Y-89729069D01*
X185991323Y-89730269D01*
X186097049Y-89751300D01*
X187079751Y-89751300D01*
X187258942Y-89715657D01*
X187427736Y-89645740D01*
X187579647Y-89544236D01*
X187708836Y-89415047D01*
X187810340Y-89263136D01*
X187880257Y-89094342D01*
X187915900Y-88915151D01*
X187915900Y-88732449D01*
X187880257Y-88553258D01*
X187810340Y-88384464D01*
X187708836Y-88232553D01*
X187579647Y-88103364D01*
X187577787Y-88102121D01*
X187427738Y-88001861D01*
X187427736Y-88001860D01*
X187258940Y-87931942D01*
X187079751Y-87896300D01*
X186097049Y-87896300D01*
X185917859Y-87931942D01*
X185749063Y-88001860D01*
X185749061Y-88001861D01*
X185597153Y-88103363D01*
X185467963Y-88232553D01*
X185435467Y-88281188D01*
X185395693Y-88307764D01*
X185348777Y-88298432D01*
X185322201Y-88258658D01*
X185321000Y-88246465D01*
X185321000Y-87847202D01*
X185339305Y-87803009D01*
X185934939Y-87207374D01*
X185979132Y-87189069D01*
X185991323Y-87190269D01*
X186097049Y-87211300D01*
X187079751Y-87211300D01*
X187258942Y-87175657D01*
X187427736Y-87105740D01*
X187579647Y-87004236D01*
X187708836Y-86875047D01*
X187810340Y-86723136D01*
X187880257Y-86554342D01*
X187915900Y-86375151D01*
X187915900Y-86192449D01*
X187880257Y-86013258D01*
X187810340Y-85844464D01*
X187708836Y-85692553D01*
X187579647Y-85563364D01*
X187579646Y-85563363D01*
X187427738Y-85461861D01*
X187427736Y-85461860D01*
X187258940Y-85391942D01*
X187079751Y-85356300D01*
X186097049Y-85356300D01*
X185917859Y-85391942D01*
X185749063Y-85461860D01*
X185749061Y-85461861D01*
X185597153Y-85563363D01*
X185467963Y-85692553D01*
X185366461Y-85844461D01*
X185366460Y-85844463D01*
X185296542Y-86013259D01*
X185260900Y-86192448D01*
X185260900Y-86375151D01*
X185296542Y-86554340D01*
X185366460Y-86723136D01*
X185366461Y-86723138D01*
X185467963Y-86875046D01*
X185553306Y-86960389D01*
X185571612Y-87004583D01*
X185553306Y-87048777D01*
X185173694Y-87428390D01*
X185129500Y-87446696D01*
X185085306Y-87428390D01*
X185067000Y-87384196D01*
X185067000Y-85561202D01*
X185085305Y-85517009D01*
X185934939Y-84667374D01*
X185979132Y-84649069D01*
X185991323Y-84650269D01*
X186097049Y-84671300D01*
X187079751Y-84671300D01*
X187258942Y-84635657D01*
X187427736Y-84565740D01*
X187579647Y-84464236D01*
X187708836Y-84335047D01*
X187810340Y-84183136D01*
X187880257Y-84014342D01*
X187915900Y-83835151D01*
X187915900Y-83652449D01*
X187880257Y-83473258D01*
X187810340Y-83304464D01*
X187708836Y-83152553D01*
X187579647Y-83023364D01*
X187579646Y-83023363D01*
X187427738Y-82921861D01*
X187427736Y-82921860D01*
X187258940Y-82851942D01*
X187079751Y-82816300D01*
X186097049Y-82816300D01*
X185917859Y-82851942D01*
X185749063Y-82921860D01*
X185749061Y-82921861D01*
X185597153Y-83023363D01*
X185467963Y-83152553D01*
X185366461Y-83304461D01*
X185366460Y-83304463D01*
X185296542Y-83473259D01*
X185260900Y-83652448D01*
X185260900Y-83835151D01*
X185296542Y-84014340D01*
X185366460Y-84183136D01*
X185366461Y-84183138D01*
X185467963Y-84335046D01*
X185553306Y-84420389D01*
X185571612Y-84464583D01*
X185553306Y-84508777D01*
X184919694Y-85142390D01*
X184875500Y-85160696D01*
X184831306Y-85142390D01*
X184813000Y-85098196D01*
X184813000Y-83275202D01*
X184831305Y-83231009D01*
X185934939Y-82127374D01*
X185979132Y-82109069D01*
X185991323Y-82110269D01*
X186097049Y-82131300D01*
X187079751Y-82131300D01*
X187258942Y-82095657D01*
X187427736Y-82025740D01*
X187579647Y-81924236D01*
X187708836Y-81795047D01*
X187810340Y-81643136D01*
X187880257Y-81474342D01*
X187915900Y-81295151D01*
X187915900Y-81112449D01*
X187880257Y-80933258D01*
X187810340Y-80764464D01*
X187708836Y-80612553D01*
X187579647Y-80483364D01*
X187579646Y-80483363D01*
X187427738Y-80381861D01*
X187427736Y-80381860D01*
X187258940Y-80311942D01*
X187079751Y-80276300D01*
X186097049Y-80276300D01*
X185917859Y-80311942D01*
X185749063Y-80381860D01*
X185749061Y-80381861D01*
X185597153Y-80483363D01*
X185467963Y-80612553D01*
X185366461Y-80764461D01*
X185366460Y-80764463D01*
X185296542Y-80933259D01*
X185260900Y-81112448D01*
X185260900Y-81295151D01*
X185296542Y-81474340D01*
X185366460Y-81643136D01*
X185366461Y-81643138D01*
X185467963Y-81795046D01*
X185553306Y-81880389D01*
X185571612Y-81924583D01*
X185553306Y-81968777D01*
X184665694Y-82856390D01*
X184621500Y-82874696D01*
X184577306Y-82856390D01*
X184559000Y-82812196D01*
X184559000Y-80989202D01*
X184577305Y-80945009D01*
X185934939Y-79587374D01*
X185979132Y-79569069D01*
X185991323Y-79570269D01*
X186097049Y-79591300D01*
X187079751Y-79591300D01*
X187258942Y-79555657D01*
X187427736Y-79485740D01*
X187579647Y-79384236D01*
X187708836Y-79255047D01*
X187810340Y-79103136D01*
X187880257Y-78934342D01*
X187915900Y-78755151D01*
X187915900Y-78572449D01*
X187880257Y-78393258D01*
X187810340Y-78224464D01*
X187708836Y-78072553D01*
X187579647Y-77943364D01*
X187579646Y-77943363D01*
X187427738Y-77841861D01*
X187427736Y-77841860D01*
X187258940Y-77771942D01*
X187079751Y-77736300D01*
X186097049Y-77736300D01*
X185917859Y-77771942D01*
X185749063Y-77841860D01*
X185749061Y-77841861D01*
X185597153Y-77943363D01*
X185467963Y-78072553D01*
X185366461Y-78224461D01*
X185366460Y-78224463D01*
X185296542Y-78393259D01*
X185260900Y-78572448D01*
X185260900Y-78755151D01*
X185296542Y-78934340D01*
X185366460Y-79103136D01*
X185366461Y-79103138D01*
X185467963Y-79255046D01*
X185553306Y-79340389D01*
X185571612Y-79384583D01*
X185553306Y-79428777D01*
X184259807Y-80722278D01*
X184206079Y-80776005D01*
X184206077Y-80776008D01*
X184177000Y-80846208D01*
X184177000Y-89502357D01*
X184158694Y-89546551D01*
X181766551Y-91938694D01*
X181722357Y-91957000D01*
X173867958Y-91957000D01*
X173797758Y-91986077D01*
X173797755Y-91986079D01*
X173587841Y-92195994D01*
X173543647Y-92214300D01*
X172351027Y-92214300D01*
X172306833Y-92195994D01*
X172288527Y-92151800D01*
X172306833Y-92107606D01*
X172316301Y-92099834D01*
X172339647Y-92084236D01*
X172468836Y-91955047D01*
X172570340Y-91803136D01*
X172640257Y-91634342D01*
X172675900Y-91455151D01*
X172675900Y-91272449D01*
X172640257Y-91093258D01*
X172570340Y-90924464D01*
X172468836Y-90772553D01*
X172360790Y-90664507D01*
X172342484Y-90620313D01*
X172360790Y-90576119D01*
X172381064Y-90562571D01*
X172447093Y-90535222D01*
X185934939Y-77047374D01*
X185979132Y-77029069D01*
X185991323Y-77030269D01*
X186097049Y-77051300D01*
X187079751Y-77051300D01*
X187258942Y-77015657D01*
X187427736Y-76945740D01*
X187579647Y-76844236D01*
X187708836Y-76715047D01*
X187810340Y-76563136D01*
X187880257Y-76394342D01*
X187915900Y-76215151D01*
X187915900Y-76032449D01*
X187880257Y-75853258D01*
X187810340Y-75684464D01*
X187708836Y-75532553D01*
X187579647Y-75403364D01*
X187541635Y-75377965D01*
X187427738Y-75301861D01*
X187427736Y-75301860D01*
X187258940Y-75231942D01*
X187079751Y-75196300D01*
X186097049Y-75196300D01*
X185917859Y-75231942D01*
X185749063Y-75301860D01*
X185749061Y-75301861D01*
X185597153Y-75403363D01*
X185467963Y-75532553D01*
X185366461Y-75684461D01*
X185366460Y-75684463D01*
X185296542Y-75853259D01*
X185264799Y-76012846D01*
X185238223Y-76052620D01*
X185191307Y-76061952D01*
X185151533Y-76035376D01*
X185141000Y-76000653D01*
X185141000Y-75327202D01*
X185159305Y-75283009D01*
X185934939Y-74507374D01*
X185979132Y-74489069D01*
X185991323Y-74490269D01*
X186097049Y-74511300D01*
X187079751Y-74511300D01*
X187258942Y-74475657D01*
X187427736Y-74405740D01*
X187579647Y-74304236D01*
X187708836Y-74175047D01*
X187810340Y-74023136D01*
X187880257Y-73854342D01*
X187915900Y-73675151D01*
X187915900Y-73492449D01*
X187880257Y-73313258D01*
X187810340Y-73144464D01*
X187708836Y-72992553D01*
X187579647Y-72863364D01*
X187579646Y-72863363D01*
X187427738Y-72761861D01*
X187427736Y-72761860D01*
X187258940Y-72691942D01*
X187079751Y-72656300D01*
X186097049Y-72656300D01*
X185917859Y-72691942D01*
X185749063Y-72761860D01*
X185749061Y-72761861D01*
X185597153Y-72863363D01*
X185467963Y-72992553D01*
X185366461Y-73144461D01*
X185366460Y-73144463D01*
X185296542Y-73313259D01*
X185260900Y-73492448D01*
X185260900Y-73675151D01*
X185296542Y-73854340D01*
X185366460Y-74023136D01*
X185366461Y-74023138D01*
X185467963Y-74175046D01*
X185553306Y-74260389D01*
X185571612Y-74304583D01*
X185553306Y-74348777D01*
X184993694Y-74908390D01*
X184949500Y-74926696D01*
X184905306Y-74908390D01*
X184887000Y-74864196D01*
X184887000Y-73041202D01*
X184905305Y-72997009D01*
X185934939Y-71967374D01*
X185979132Y-71949069D01*
X185991323Y-71950269D01*
X186097049Y-71971300D01*
X187079751Y-71971300D01*
X187258942Y-71935657D01*
X187427736Y-71865740D01*
X187579647Y-71764236D01*
X187708836Y-71635047D01*
X187810340Y-71483136D01*
X187880257Y-71314342D01*
X187915900Y-71135151D01*
X187915900Y-70952449D01*
X187880257Y-70773258D01*
X187810340Y-70604464D01*
X187708836Y-70452553D01*
X187579647Y-70323364D01*
X187579646Y-70323363D01*
X187427738Y-70221861D01*
X187427736Y-70221860D01*
X187258940Y-70151942D01*
X187079751Y-70116300D01*
X186097049Y-70116300D01*
X185917859Y-70151942D01*
X185749063Y-70221860D01*
X185749061Y-70221861D01*
X185597153Y-70323363D01*
X185467963Y-70452553D01*
X185366461Y-70604461D01*
X185366460Y-70604463D01*
X185296542Y-70773259D01*
X185260900Y-70952448D01*
X185260900Y-71135151D01*
X185296542Y-71314340D01*
X185366460Y-71483136D01*
X185366461Y-71483138D01*
X185467963Y-71635046D01*
X185553306Y-71720389D01*
X185571612Y-71764583D01*
X185553306Y-71808777D01*
X184739694Y-72622390D01*
X184695500Y-72640696D01*
X184651306Y-72622390D01*
X184633000Y-72578196D01*
X184633000Y-70755202D01*
X184651305Y-70711009D01*
X185934939Y-69427374D01*
X185979132Y-69409069D01*
X185991323Y-69410269D01*
X186097049Y-69431300D01*
X187079751Y-69431300D01*
X187258942Y-69395657D01*
X187427736Y-69325740D01*
X187579647Y-69224236D01*
X187708836Y-69095047D01*
X187810340Y-68943136D01*
X187880257Y-68774342D01*
X187915900Y-68595151D01*
X187915900Y-68412449D01*
X187880257Y-68233258D01*
X187810340Y-68064464D01*
X187708836Y-67912553D01*
X187579647Y-67783364D01*
X187482482Y-67718440D01*
X187427738Y-67681861D01*
X187427736Y-67681860D01*
X187258940Y-67611942D01*
X187079751Y-67576300D01*
X186097049Y-67576300D01*
X185917859Y-67611942D01*
X185749063Y-67681860D01*
X185749061Y-67681861D01*
X185597153Y-67783363D01*
X185467963Y-67912553D01*
X185366461Y-68064461D01*
X185366460Y-68064463D01*
X185296542Y-68233259D01*
X185260900Y-68412448D01*
X185260900Y-68595151D01*
X185296542Y-68774340D01*
X185366460Y-68943136D01*
X185366461Y-68943138D01*
X185467963Y-69095046D01*
X185553306Y-69180389D01*
X185571612Y-69224583D01*
X185553306Y-69268777D01*
X184485694Y-70336390D01*
X184441500Y-70354696D01*
X184397306Y-70336390D01*
X184379000Y-70292196D01*
X184379000Y-68469202D01*
X184397305Y-68425009D01*
X185934939Y-66887374D01*
X185979132Y-66869069D01*
X185991323Y-66870269D01*
X186097049Y-66891300D01*
X187079751Y-66891300D01*
X187258942Y-66855657D01*
X187427736Y-66785740D01*
X187579647Y-66684236D01*
X187708836Y-66555047D01*
X187810340Y-66403136D01*
X187880257Y-66234342D01*
X187915900Y-66055151D01*
X187915900Y-65872449D01*
X187880257Y-65693258D01*
X187810340Y-65524464D01*
X187708836Y-65372553D01*
X187579647Y-65243364D01*
X187579646Y-65243363D01*
X187427738Y-65141861D01*
X187427736Y-65141860D01*
X187258940Y-65071942D01*
X187079751Y-65036300D01*
X186097049Y-65036300D01*
X185917859Y-65071942D01*
X185749063Y-65141860D01*
X185749061Y-65141861D01*
X185597153Y-65243363D01*
X185467963Y-65372553D01*
X185366461Y-65524461D01*
X185366460Y-65524463D01*
X185296542Y-65693259D01*
X185260900Y-65872448D01*
X185260900Y-66055151D01*
X185296542Y-66234340D01*
X185366460Y-66403136D01*
X185366461Y-66403138D01*
X185467963Y-66555046D01*
X185553306Y-66640389D01*
X185571612Y-66684583D01*
X185553306Y-66728777D01*
X184079807Y-68202278D01*
X184026079Y-68256005D01*
X184026077Y-68256008D01*
X183997000Y-68326208D01*
X183997000Y-76961556D01*
X183978694Y-77005750D01*
X178443455Y-82540989D01*
X178399261Y-82559295D01*
X178150902Y-82559295D01*
X178080702Y-82588372D01*
X178080699Y-82588374D01*
X173350080Y-87318994D01*
X173305886Y-87337300D01*
X172533703Y-87337300D01*
X172489509Y-87318994D01*
X172471203Y-87274800D01*
X172489509Y-87230606D01*
X173172896Y-86547219D01*
X173866872Y-85853243D01*
X173895950Y-85783042D01*
X173895950Y-85707058D01*
X173895950Y-84276070D01*
X173914256Y-84231876D01*
X173958450Y-84213570D01*
X173979821Y-84217338D01*
X174030334Y-84235723D01*
X174030337Y-84235723D01*
X174137009Y-84235723D01*
X174137012Y-84235723D01*
X174237257Y-84199237D01*
X174318977Y-84130666D01*
X174372316Y-84038280D01*
X174390840Y-83933223D01*
X174372316Y-83828166D01*
X174318977Y-83735780D01*
X174237257Y-83667209D01*
X174191073Y-83650399D01*
X174155805Y-83618081D01*
X174149950Y-83591668D01*
X174149950Y-81305400D01*
X174759191Y-81305400D01*
X174779571Y-81499302D01*
X174839816Y-81684720D01*
X174839818Y-81684724D01*
X174839819Y-81684726D01*
X174937303Y-81853574D01*
X175067763Y-81998464D01*
X175166578Y-82070257D01*
X175221650Y-82110270D01*
X175225495Y-82113063D01*
X175403608Y-82192364D01*
X175403613Y-82192365D01*
X175594315Y-82232900D01*
X175594316Y-82232900D01*
X175789285Y-82232900D01*
X175872366Y-82215240D01*
X175979992Y-82192364D01*
X176158105Y-82113063D01*
X176315837Y-81998464D01*
X176446297Y-81853574D01*
X176543781Y-81684726D01*
X176604029Y-81499300D01*
X176624409Y-81305400D01*
X176604029Y-81111500D01*
X176596084Y-81087048D01*
X176543783Y-80926079D01*
X176543782Y-80926077D01*
X176543781Y-80926074D01*
X176446297Y-80757226D01*
X176315837Y-80612336D01*
X176163710Y-80501809D01*
X176158110Y-80497740D01*
X176158107Y-80497738D01*
X176158105Y-80497737D01*
X176033882Y-80442429D01*
X175979995Y-80418437D01*
X175979986Y-80418434D01*
X175789285Y-80377900D01*
X175789284Y-80377900D01*
X175594316Y-80377900D01*
X175594315Y-80377900D01*
X175403613Y-80418434D01*
X175403596Y-80418440D01*
X175225497Y-80497736D01*
X175219891Y-80501809D01*
X175067763Y-80612336D01*
X175067760Y-80612338D01*
X175067760Y-80612339D01*
X174937302Y-80757227D01*
X174839816Y-80926079D01*
X174779571Y-81111497D01*
X174759191Y-81305400D01*
X174149950Y-81305400D01*
X174149950Y-71145397D01*
X174386834Y-71145397D01*
X174386834Y-71145402D01*
X174406658Y-71372001D01*
X174406661Y-71372014D01*
X174458170Y-71564244D01*
X174460300Y-71580421D01*
X174460300Y-72606908D01*
X174460300Y-72682892D01*
X174464049Y-72691942D01*
X174489377Y-72753091D01*
X174489379Y-72753094D01*
X174880041Y-73143756D01*
X174898347Y-73187950D01*
X174889974Y-73219199D01*
X174839818Y-73306072D01*
X174779571Y-73491497D01*
X174759191Y-73685400D01*
X174779571Y-73879302D01*
X174839816Y-74064720D01*
X174839818Y-74064724D01*
X174889974Y-74151599D01*
X174896217Y-74199025D01*
X174880041Y-74227042D01*
X174533607Y-74573478D01*
X174479879Y-74627205D01*
X174479877Y-74627208D01*
X174450800Y-74697408D01*
X174450800Y-77753391D01*
X174479877Y-77823591D01*
X174479879Y-77823594D01*
X174880041Y-78223756D01*
X174898347Y-78267950D01*
X174889974Y-78299199D01*
X174839818Y-78386072D01*
X174779571Y-78571497D01*
X174759191Y-78765400D01*
X174779571Y-78959302D01*
X174839816Y-79144720D01*
X174839818Y-79144724D01*
X174839819Y-79144726D01*
X174937303Y-79313574D01*
X175067763Y-79458464D01*
X175166578Y-79530257D01*
X175221650Y-79570270D01*
X175225495Y-79573063D01*
X175403608Y-79652364D01*
X175403613Y-79652365D01*
X175594315Y-79692900D01*
X175594316Y-79692900D01*
X175789285Y-79692900D01*
X175872366Y-79675240D01*
X175979992Y-79652364D01*
X176158105Y-79573063D01*
X176315837Y-79458464D01*
X176446297Y-79313574D01*
X176543781Y-79144726D01*
X176604029Y-78959300D01*
X176624409Y-78765400D01*
X176604029Y-78571500D01*
X176546116Y-78393259D01*
X176543783Y-78386079D01*
X176543782Y-78386077D01*
X176543781Y-78386074D01*
X176446297Y-78217226D01*
X176315837Y-78072336D01*
X176199368Y-77987716D01*
X176158110Y-77957740D01*
X176158107Y-77957738D01*
X176158105Y-77957737D01*
X176033882Y-77902429D01*
X175979995Y-77878437D01*
X175979986Y-77878434D01*
X175789285Y-77837900D01*
X175789284Y-77837900D01*
X175594316Y-77837900D01*
X175594315Y-77837900D01*
X175403613Y-77878434D01*
X175403596Y-77878440D01*
X175225497Y-77957736D01*
X175222651Y-77959379D01*
X175221694Y-77957720D01*
X175180882Y-77967504D01*
X175146486Y-77949971D01*
X174851106Y-77654591D01*
X174832800Y-77610397D01*
X174832800Y-76820329D01*
X174851106Y-76776135D01*
X174895300Y-76757829D01*
X174939494Y-76776135D01*
X174941720Y-76778479D01*
X175067763Y-76918464D01*
X175127074Y-76961556D01*
X175221650Y-77030270D01*
X175225495Y-77033063D01*
X175403608Y-77112364D01*
X175403613Y-77112365D01*
X175594315Y-77152900D01*
X175594316Y-77152900D01*
X175789285Y-77152900D01*
X175872366Y-77135240D01*
X175979992Y-77112364D01*
X176158105Y-77033063D01*
X176315837Y-76918464D01*
X176446297Y-76773574D01*
X176543781Y-76604726D01*
X176604029Y-76419300D01*
X176624409Y-76225400D01*
X176604029Y-76031500D01*
X176546116Y-75853259D01*
X176543783Y-75846079D01*
X176543782Y-75846077D01*
X176543781Y-75846074D01*
X176446297Y-75677226D01*
X176315837Y-75532336D01*
X176243146Y-75479523D01*
X176158110Y-75417740D01*
X176158107Y-75417738D01*
X176158105Y-75417737D01*
X176033882Y-75362429D01*
X175979995Y-75338437D01*
X175979986Y-75338434D01*
X175789285Y-75297900D01*
X175789284Y-75297900D01*
X175594316Y-75297900D01*
X175594315Y-75297900D01*
X175403613Y-75338434D01*
X175403596Y-75338440D01*
X175225497Y-75417736D01*
X175158178Y-75466645D01*
X175067763Y-75532336D01*
X175067762Y-75532337D01*
X175067758Y-75532340D01*
X175067757Y-75532341D01*
X174941746Y-75672291D01*
X174898571Y-75692884D01*
X174853479Y-75676916D01*
X174832886Y-75633741D01*
X174832800Y-75630470D01*
X174832800Y-74840402D01*
X174851105Y-74796209D01*
X175146486Y-74500827D01*
X175190679Y-74482522D01*
X175221925Y-74492680D01*
X175222652Y-74491422D01*
X175225488Y-74493059D01*
X175225491Y-74493060D01*
X175225495Y-74493063D01*
X175403608Y-74572364D01*
X175403613Y-74572365D01*
X175594315Y-74612900D01*
X175594316Y-74612900D01*
X175789285Y-74612900D01*
X175872366Y-74595240D01*
X175979992Y-74572364D01*
X176158105Y-74493063D01*
X176315837Y-74378464D01*
X176446297Y-74233574D01*
X176543781Y-74064726D01*
X176604029Y-73879300D01*
X176624409Y-73685400D01*
X176604029Y-73491500D01*
X176546116Y-73313259D01*
X176543783Y-73306079D01*
X176543782Y-73306077D01*
X176543781Y-73306074D01*
X176446297Y-73137226D01*
X176315837Y-72992336D01*
X176199368Y-72907716D01*
X176158110Y-72877740D01*
X176158107Y-72877738D01*
X176158105Y-72877737D01*
X176020890Y-72816645D01*
X175979995Y-72798437D01*
X175979986Y-72798434D01*
X175789285Y-72757900D01*
X175789284Y-72757900D01*
X175594316Y-72757900D01*
X175594315Y-72757900D01*
X175403613Y-72798434D01*
X175403596Y-72798440D01*
X175225497Y-72877736D01*
X175222651Y-72879379D01*
X175221694Y-72877720D01*
X175180882Y-72887504D01*
X175146486Y-72869971D01*
X174860606Y-72584091D01*
X174842300Y-72539897D01*
X174842300Y-72257642D01*
X174860606Y-72213448D01*
X174904800Y-72195142D01*
X174940649Y-72206445D01*
X175039320Y-72275535D01*
X175245476Y-72371667D01*
X175245478Y-72371668D01*
X175465182Y-72430538D01*
X175465198Y-72430541D01*
X175691798Y-72450366D01*
X175691802Y-72450366D01*
X175918401Y-72430541D01*
X175918417Y-72430538D01*
X176138121Y-72371668D01*
X176138123Y-72371667D01*
X176344284Y-72275533D01*
X176344287Y-72275531D01*
X176417271Y-72224425D01*
X176417272Y-72224425D01*
X175821209Y-71628362D01*
X175884793Y-71611325D01*
X175998807Y-71545499D01*
X176091899Y-71452407D01*
X176157725Y-71338393D01*
X176174762Y-71274809D01*
X176770825Y-71870872D01*
X176770825Y-71870871D01*
X176821931Y-71797887D01*
X176821933Y-71797884D01*
X176918067Y-71591723D01*
X176918068Y-71591721D01*
X176976938Y-71372017D01*
X176976941Y-71372001D01*
X176996766Y-71145402D01*
X176996766Y-71145397D01*
X176976941Y-70918798D01*
X176976938Y-70918782D01*
X176918068Y-70699078D01*
X176918067Y-70699076D01*
X176821934Y-70492917D01*
X176770824Y-70419927D01*
X176174762Y-71015989D01*
X176157725Y-70952407D01*
X176091899Y-70838393D01*
X175998807Y-70745301D01*
X175884793Y-70679475D01*
X175821208Y-70662437D01*
X176417272Y-70066374D01*
X176344279Y-70015264D01*
X176138123Y-69919132D01*
X176138121Y-69919131D01*
X175918417Y-69860261D01*
X175918401Y-69860258D01*
X175691802Y-69840434D01*
X175691798Y-69840434D01*
X175465198Y-69860258D01*
X175465182Y-69860261D01*
X175245478Y-69919131D01*
X175245476Y-69919132D01*
X175039317Y-70015265D01*
X174940648Y-70084354D01*
X174893947Y-70094707D01*
X174853603Y-70069005D01*
X174842300Y-70033157D01*
X174842300Y-69750902D01*
X174860605Y-69706709D01*
X175146486Y-69420827D01*
X175190679Y-69402522D01*
X175221925Y-69412680D01*
X175222652Y-69411422D01*
X175225488Y-69413059D01*
X175225491Y-69413060D01*
X175225495Y-69413063D01*
X175403608Y-69492364D01*
X175403613Y-69492365D01*
X175594315Y-69532900D01*
X175594316Y-69532900D01*
X175789285Y-69532900D01*
X175872366Y-69515240D01*
X175979992Y-69492364D01*
X176158105Y-69413063D01*
X176315837Y-69298464D01*
X176446297Y-69153574D01*
X176543781Y-68984726D01*
X176604029Y-68799300D01*
X176624409Y-68605400D01*
X176604029Y-68411500D01*
X176546116Y-68233259D01*
X176543783Y-68226079D01*
X176543782Y-68226077D01*
X176543781Y-68226074D01*
X176446297Y-68057226D01*
X176315837Y-67912336D01*
X176233920Y-67852820D01*
X176158110Y-67797740D01*
X176158107Y-67797738D01*
X176158105Y-67797737D01*
X176033882Y-67742429D01*
X175979995Y-67718437D01*
X175979986Y-67718434D01*
X175789285Y-67677900D01*
X175789284Y-67677900D01*
X175594316Y-67677900D01*
X175594315Y-67677900D01*
X175403613Y-67718434D01*
X175403596Y-67718440D01*
X175225497Y-67797736D01*
X175217565Y-67803499D01*
X175067763Y-67912336D01*
X175067760Y-67912338D01*
X175067760Y-67912339D01*
X174937302Y-68057227D01*
X174839816Y-68226079D01*
X174779571Y-68411497D01*
X174759191Y-68605400D01*
X174779571Y-68799302D01*
X174839816Y-68984720D01*
X174839818Y-68984724D01*
X174889974Y-69071599D01*
X174896217Y-69119025D01*
X174880041Y-69147042D01*
X174543107Y-69483978D01*
X174489379Y-69537705D01*
X174489377Y-69537708D01*
X174460300Y-69607908D01*
X174460300Y-70710377D01*
X174458170Y-70726553D01*
X174406661Y-70918782D01*
X174406658Y-70918798D01*
X174386834Y-71145397D01*
X174149950Y-71145397D01*
X174149950Y-66065397D01*
X174386834Y-66065397D01*
X174386834Y-66065402D01*
X174406658Y-66292001D01*
X174406661Y-66292017D01*
X174465531Y-66511721D01*
X174465532Y-66511723D01*
X174561664Y-66717879D01*
X174612774Y-66790871D01*
X175208837Y-66194808D01*
X175225875Y-66258393D01*
X175291701Y-66372407D01*
X175384793Y-66465499D01*
X175498807Y-66531325D01*
X175562390Y-66548362D01*
X174966327Y-67144424D01*
X175039317Y-67195534D01*
X175245476Y-67291667D01*
X175245478Y-67291668D01*
X175465182Y-67350538D01*
X175465198Y-67350541D01*
X175691798Y-67370366D01*
X175691802Y-67370366D01*
X175918401Y-67350541D01*
X175918417Y-67350538D01*
X176138121Y-67291668D01*
X176138123Y-67291667D01*
X176344284Y-67195533D01*
X176344287Y-67195531D01*
X176417271Y-67144425D01*
X176417272Y-67144425D01*
X175821209Y-66548362D01*
X175884793Y-66531325D01*
X175998807Y-66465499D01*
X176091899Y-66372407D01*
X176157725Y-66258393D01*
X176174762Y-66194809D01*
X176770825Y-66790872D01*
X176770825Y-66790871D01*
X176821931Y-66717887D01*
X176821933Y-66717884D01*
X176918067Y-66511723D01*
X176918068Y-66511721D01*
X176976938Y-66292017D01*
X176976941Y-66292001D01*
X176996766Y-66065402D01*
X176996766Y-66065397D01*
X176976941Y-65838798D01*
X176976938Y-65838782D01*
X176918068Y-65619078D01*
X176918067Y-65619076D01*
X176821934Y-65412917D01*
X176770824Y-65339927D01*
X176174762Y-65935989D01*
X176157725Y-65872407D01*
X176091899Y-65758393D01*
X175998807Y-65665301D01*
X175884793Y-65599475D01*
X175821208Y-65582437D01*
X176417272Y-64986374D01*
X176344279Y-64935264D01*
X176138123Y-64839132D01*
X176138121Y-64839131D01*
X175918417Y-64780261D01*
X175918401Y-64780258D01*
X175691802Y-64760434D01*
X175691798Y-64760434D01*
X175465198Y-64780258D01*
X175465182Y-64780261D01*
X175245478Y-64839131D01*
X175245476Y-64839132D01*
X175039317Y-64935265D01*
X174966327Y-64986373D01*
X174966326Y-64986373D01*
X175562390Y-65582437D01*
X175498807Y-65599475D01*
X175384793Y-65665301D01*
X175291701Y-65758393D01*
X175225875Y-65872407D01*
X175208837Y-65935990D01*
X174612773Y-65339926D01*
X174612773Y-65339927D01*
X174561665Y-65412917D01*
X174465532Y-65619076D01*
X174465531Y-65619078D01*
X174406661Y-65838782D01*
X174406658Y-65838798D01*
X174386834Y-66065397D01*
X174149950Y-66065397D01*
X174149950Y-65996360D01*
X174149950Y-65996358D01*
X174120872Y-65926157D01*
X174067143Y-65872428D01*
X172616312Y-64421597D01*
X172598006Y-64377403D01*
X172616312Y-64333209D01*
X172625782Y-64325437D01*
X172640322Y-64315722D01*
X172668502Y-64273548D01*
X172675900Y-64236358D01*
X172675900Y-62712842D01*
X174764300Y-62712842D01*
X174764300Y-64337958D01*
X174765543Y-64344206D01*
X174771698Y-64375148D01*
X174771698Y-64375149D01*
X174799877Y-64417322D01*
X174822734Y-64432594D01*
X174842052Y-64445502D01*
X174879242Y-64452900D01*
X174879243Y-64452900D01*
X176504357Y-64452900D01*
X176504358Y-64452900D01*
X176541548Y-64445502D01*
X176583722Y-64417322D01*
X176611902Y-64375148D01*
X176619300Y-64337958D01*
X176619300Y-63332448D01*
X185260900Y-63332448D01*
X185260900Y-63515151D01*
X185296542Y-63694340D01*
X185366460Y-63863136D01*
X185366461Y-63863138D01*
X185454397Y-63994743D01*
X185467964Y-64015047D01*
X185597153Y-64144236D01*
X185749064Y-64245740D01*
X185917858Y-64315657D01*
X186097049Y-64351300D01*
X187079751Y-64351300D01*
X187258942Y-64315657D01*
X187427736Y-64245740D01*
X187579647Y-64144236D01*
X187708836Y-64015047D01*
X187810340Y-63863136D01*
X187880257Y-63694342D01*
X187915900Y-63515151D01*
X187915900Y-63332449D01*
X187880257Y-63153258D01*
X187810340Y-62984464D01*
X187708836Y-62832553D01*
X187579647Y-62703364D01*
X187579646Y-62703363D01*
X187427738Y-62601861D01*
X187427736Y-62601860D01*
X187258940Y-62531942D01*
X187079751Y-62496300D01*
X186097049Y-62496300D01*
X185917859Y-62531942D01*
X185749063Y-62601860D01*
X185749061Y-62601861D01*
X185597153Y-62703363D01*
X185467963Y-62832553D01*
X185366461Y-62984461D01*
X185366460Y-62984463D01*
X185296542Y-63153259D01*
X185260900Y-63332448D01*
X176619300Y-63332448D01*
X176619300Y-62712842D01*
X176611902Y-62675652D01*
X176611901Y-62675650D01*
X176583722Y-62633477D01*
X176541548Y-62605298D01*
X176524265Y-62601860D01*
X176504358Y-62597900D01*
X174879242Y-62597900D01*
X174860647Y-62601599D01*
X174842051Y-62605298D01*
X174842050Y-62605298D01*
X174799877Y-62633477D01*
X174771698Y-62675650D01*
X174771698Y-62675651D01*
X174771698Y-62675652D01*
X174764300Y-62712842D01*
X172675900Y-62712842D01*
X172675900Y-62611242D01*
X172668502Y-62574052D01*
X172668501Y-62574050D01*
X172640322Y-62531877D01*
X172598148Y-62503698D01*
X172560958Y-62496300D01*
X170135842Y-62496300D01*
X170117247Y-62499999D01*
X170098651Y-62503698D01*
X170098650Y-62503698D01*
X170056477Y-62531877D01*
X170028298Y-62574050D01*
X170028298Y-62574051D01*
X170020900Y-62611242D01*
X170020900Y-64236357D01*
X170028298Y-64273548D01*
X170028298Y-64273549D01*
X170056477Y-64315722D01*
X170065333Y-64321639D01*
X170098652Y-64343902D01*
X170135842Y-64351300D01*
X171979897Y-64351300D01*
X172024091Y-64369606D01*
X173749644Y-66095159D01*
X173767950Y-66139353D01*
X173767950Y-67962347D01*
X173749644Y-68006541D01*
X173705450Y-68024847D01*
X173661256Y-68006541D01*
X172383493Y-66728778D01*
X172365187Y-66684584D01*
X172383493Y-66640390D01*
X172391577Y-66632306D01*
X172468836Y-66555047D01*
X172570340Y-66403136D01*
X172640257Y-66234342D01*
X172675900Y-66055151D01*
X172675900Y-65872449D01*
X172640257Y-65693258D01*
X172570340Y-65524464D01*
X172468836Y-65372553D01*
X172339647Y-65243364D01*
X172339646Y-65243363D01*
X172187738Y-65141861D01*
X172187736Y-65141860D01*
X172018940Y-65071942D01*
X171839751Y-65036300D01*
X170857049Y-65036300D01*
X170677859Y-65071942D01*
X170509063Y-65141860D01*
X170509061Y-65141861D01*
X170357153Y-65243363D01*
X170227963Y-65372553D01*
X170126461Y-65524461D01*
X170126460Y-65524463D01*
X170056542Y-65693259D01*
X170020900Y-65872448D01*
X170020900Y-66055151D01*
X170056542Y-66234340D01*
X170126460Y-66403136D01*
X170126461Y-66403138D01*
X170210992Y-66529647D01*
X170227964Y-66555047D01*
X170357153Y-66684236D01*
X170509064Y-66785740D01*
X170677858Y-66855657D01*
X170857049Y-66891300D01*
X171839750Y-66891300D01*
X171839751Y-66891300D01*
X171945473Y-66870270D01*
X171992389Y-66879602D01*
X172001860Y-66887375D01*
X173495644Y-68381159D01*
X173513950Y-68425353D01*
X173513950Y-70248347D01*
X173495644Y-70292541D01*
X173451450Y-70310847D01*
X173407256Y-70292541D01*
X172383493Y-69268778D01*
X172365187Y-69224584D01*
X172383493Y-69180390D01*
X172416841Y-69147042D01*
X172468836Y-69095047D01*
X172570340Y-68943136D01*
X172640257Y-68774342D01*
X172675900Y-68595151D01*
X172675900Y-68412449D01*
X172640257Y-68233258D01*
X172570340Y-68064464D01*
X172468836Y-67912553D01*
X172339647Y-67783364D01*
X172242482Y-67718440D01*
X172187738Y-67681861D01*
X172187736Y-67681860D01*
X172018940Y-67611942D01*
X171839751Y-67576300D01*
X170857049Y-67576300D01*
X170677859Y-67611942D01*
X170509063Y-67681860D01*
X170509061Y-67681861D01*
X170357153Y-67783363D01*
X170227963Y-67912553D01*
X170126461Y-68064461D01*
X170126460Y-68064463D01*
X170056542Y-68233259D01*
X170020900Y-68412448D01*
X170020900Y-68595151D01*
X170056542Y-68774340D01*
X170126460Y-68943136D01*
X170126461Y-68943138D01*
X170212296Y-69071599D01*
X170227964Y-69095047D01*
X170357153Y-69224236D01*
X170509064Y-69325740D01*
X170677858Y-69395657D01*
X170857049Y-69431300D01*
X171839750Y-69431300D01*
X171839751Y-69431300D01*
X171945473Y-69410270D01*
X171992389Y-69419602D01*
X172001860Y-69427375D01*
X173241644Y-70667159D01*
X173259950Y-70711353D01*
X173259950Y-72534347D01*
X173241644Y-72578541D01*
X173197450Y-72596847D01*
X173153256Y-72578541D01*
X172383493Y-71808778D01*
X172365187Y-71764584D01*
X172383493Y-71720390D01*
X172383494Y-71720389D01*
X172468836Y-71635047D01*
X172570340Y-71483136D01*
X172640257Y-71314342D01*
X172675900Y-71135151D01*
X172675900Y-70952449D01*
X172640257Y-70773258D01*
X172570340Y-70604464D01*
X172468836Y-70452553D01*
X172339647Y-70323364D01*
X172339646Y-70323363D01*
X172187738Y-70221861D01*
X172187736Y-70221860D01*
X172018940Y-70151942D01*
X171839751Y-70116300D01*
X170857049Y-70116300D01*
X170677859Y-70151942D01*
X170509063Y-70221860D01*
X170509061Y-70221861D01*
X170357153Y-70323363D01*
X170227963Y-70452553D01*
X170126461Y-70604461D01*
X170126460Y-70604463D01*
X170056542Y-70773259D01*
X170020900Y-70952448D01*
X170020900Y-71135151D01*
X170056542Y-71314340D01*
X170126460Y-71483136D01*
X170126461Y-71483138D01*
X170210992Y-71609647D01*
X170227964Y-71635047D01*
X170357153Y-71764236D01*
X170509064Y-71865740D01*
X170677858Y-71935657D01*
X170857049Y-71971300D01*
X171839750Y-71971300D01*
X171839751Y-71971300D01*
X171945473Y-71950270D01*
X171992389Y-71959602D01*
X172001860Y-71967375D01*
X172960694Y-72926208D01*
X172979000Y-72970402D01*
X172979000Y-74793397D01*
X172960694Y-74837591D01*
X172916500Y-74855897D01*
X172872306Y-74837591D01*
X172383493Y-74348778D01*
X172365187Y-74304584D01*
X172383493Y-74260390D01*
X172422412Y-74221471D01*
X172468836Y-74175047D01*
X172570340Y-74023136D01*
X172640257Y-73854342D01*
X172675900Y-73675151D01*
X172675900Y-73492449D01*
X172640257Y-73313258D01*
X172570340Y-73144464D01*
X172468836Y-72992553D01*
X172339647Y-72863364D01*
X172339646Y-72863363D01*
X172187738Y-72761861D01*
X172187736Y-72761860D01*
X172018940Y-72691942D01*
X171839751Y-72656300D01*
X170857049Y-72656300D01*
X170677859Y-72691942D01*
X170509063Y-72761860D01*
X170509061Y-72761861D01*
X170357153Y-72863363D01*
X170227963Y-72992553D01*
X170126461Y-73144461D01*
X170126460Y-73144463D01*
X170056542Y-73313259D01*
X170020900Y-73492448D01*
X170020900Y-73675151D01*
X170056542Y-73854340D01*
X170126460Y-74023136D01*
X170126461Y-74023138D01*
X170210992Y-74149647D01*
X170227964Y-74175047D01*
X170357153Y-74304236D01*
X170509064Y-74405740D01*
X170677858Y-74475657D01*
X170857049Y-74511300D01*
X171839750Y-74511300D01*
X171839751Y-74511300D01*
X171945473Y-74490270D01*
X171992389Y-74499602D01*
X172001860Y-74507375D01*
X172595194Y-75100709D01*
X172613500Y-75144903D01*
X172613500Y-75543022D01*
X172595194Y-75587216D01*
X172551000Y-75605522D01*
X172506806Y-75587216D01*
X172499034Y-75577746D01*
X172468838Y-75532556D01*
X172468834Y-75532551D01*
X172339646Y-75403363D01*
X172187738Y-75301861D01*
X172187736Y-75301860D01*
X172018940Y-75231942D01*
X171839751Y-75196300D01*
X170857049Y-75196300D01*
X170677859Y-75231942D01*
X170509063Y-75301860D01*
X170509061Y-75301861D01*
X170357153Y-75403363D01*
X170227963Y-75532553D01*
X170126461Y-75684461D01*
X170126460Y-75684463D01*
X170056542Y-75853259D01*
X170020900Y-76032448D01*
X170020900Y-76215151D01*
X170056542Y-76394340D01*
X170126460Y-76563136D01*
X170126461Y-76563138D01*
X170210992Y-76689647D01*
X170227964Y-76715047D01*
X170357153Y-76844236D01*
X170509064Y-76945740D01*
X170677858Y-77015657D01*
X170857049Y-77051300D01*
X171839751Y-77051300D01*
X172018942Y-77015657D01*
X172187736Y-76945740D01*
X172339647Y-76844236D01*
X172468836Y-76715047D01*
X172499033Y-76669853D01*
X172538807Y-76643278D01*
X172585723Y-76652610D01*
X172612299Y-76692384D01*
X172613500Y-76704577D01*
X172613500Y-76790037D01*
X172595194Y-76834231D01*
X172591179Y-76837911D01*
X172583228Y-76844583D01*
X172569194Y-76856359D01*
X172515857Y-76948742D01*
X172497333Y-77053800D01*
X172515857Y-77158857D01*
X172569196Y-77251243D01*
X172650914Y-77319813D01*
X172650915Y-77319813D01*
X172650916Y-77319814D01*
X172751161Y-77356300D01*
X172751164Y-77356300D01*
X172857836Y-77356300D01*
X172857839Y-77356300D01*
X172895124Y-77342729D01*
X172942913Y-77344816D01*
X172975231Y-77380083D01*
X172979000Y-77401460D01*
X172979000Y-82413397D01*
X172960694Y-82457591D01*
X172916500Y-82475897D01*
X172872306Y-82457591D01*
X172383493Y-81968778D01*
X172365187Y-81924584D01*
X172383493Y-81880390D01*
X172410311Y-81853572D01*
X172468836Y-81795047D01*
X172570340Y-81643136D01*
X172640257Y-81474342D01*
X172675900Y-81295151D01*
X172675900Y-81112449D01*
X172640257Y-80933258D01*
X172570340Y-80764464D01*
X172468836Y-80612553D01*
X172339647Y-80483364D01*
X172339646Y-80483363D01*
X172187738Y-80381861D01*
X172187736Y-80381860D01*
X172018940Y-80311942D01*
X171839751Y-80276300D01*
X170857049Y-80276300D01*
X170677859Y-80311942D01*
X170509063Y-80381860D01*
X170509061Y-80381861D01*
X170357153Y-80483363D01*
X170227963Y-80612553D01*
X170126461Y-80764461D01*
X170126460Y-80764463D01*
X170056542Y-80933259D01*
X170020900Y-81112448D01*
X170020900Y-81295151D01*
X170056542Y-81474340D01*
X170126460Y-81643136D01*
X170126461Y-81643138D01*
X170210992Y-81769647D01*
X170227964Y-81795047D01*
X170357153Y-81924236D01*
X170509064Y-82025740D01*
X170677858Y-82095657D01*
X170857049Y-82131300D01*
X171839750Y-82131300D01*
X171839751Y-82131300D01*
X171945473Y-82110270D01*
X171992389Y-82119602D01*
X172001860Y-82127375D01*
X172530694Y-82656209D01*
X172549000Y-82700403D01*
X172549000Y-83081829D01*
X172530694Y-83126023D01*
X172486500Y-83144329D01*
X172442306Y-83126023D01*
X172339646Y-83023363D01*
X172187738Y-82921861D01*
X172187736Y-82921860D01*
X172018940Y-82851942D01*
X171839751Y-82816300D01*
X170857049Y-82816300D01*
X170677859Y-82851942D01*
X170509063Y-82921860D01*
X170509061Y-82921861D01*
X170357153Y-83023363D01*
X170227963Y-83152553D01*
X170126461Y-83304461D01*
X170126460Y-83304463D01*
X170056542Y-83473259D01*
X170020900Y-83652448D01*
X170020900Y-83835151D01*
X170056542Y-84014340D01*
X170126460Y-84183136D01*
X170126461Y-84183138D01*
X170227963Y-84335046D01*
X170357153Y-84464236D01*
X170375557Y-84476533D01*
X170402133Y-84516307D01*
X170392801Y-84563223D01*
X170353027Y-84589799D01*
X170340834Y-84591000D01*
X170293009Y-84591000D01*
X170222809Y-84620077D01*
X170222806Y-84620079D01*
X168260185Y-86582700D01*
X168260183Y-86582703D01*
X168231106Y-86652903D01*
X168231106Y-89805261D01*
X168212800Y-89849455D01*
X167443561Y-90618694D01*
X167399367Y-90637000D01*
X166169899Y-90637000D01*
X166125705Y-90618694D01*
X165743282Y-90236271D01*
X165724976Y-90192077D01*
X165733350Y-90160827D01*
X165788642Y-90065059D01*
X165788642Y-90065058D01*
X165788643Y-90065057D01*
X165807167Y-89960000D01*
X165788643Y-89854943D01*
X165735304Y-89762557D01*
X165725557Y-89754378D01*
X165653585Y-89693986D01*
X165653582Y-89693985D01*
X165553341Y-89657500D01*
X165553339Y-89657500D01*
X165446661Y-89657500D01*
X165446658Y-89657500D01*
X165346418Y-89693985D01*
X165346415Y-89693987D01*
X165308384Y-89725899D01*
X165282790Y-89747375D01*
X165274444Y-89754378D01*
X165234270Y-89769000D01*
X163221109Y-89769000D01*
X163176915Y-89750694D01*
X162945617Y-89519396D01*
X162927311Y-89475202D01*
X162945617Y-89431008D01*
X162989811Y-89412702D01*
X163011186Y-89416470D01*
X163045610Y-89429000D01*
X163045613Y-89429000D01*
X163152285Y-89429000D01*
X163152288Y-89429000D01*
X163252533Y-89392514D01*
X163334253Y-89323943D01*
X163387592Y-89231557D01*
X163406116Y-89126500D01*
X163406115Y-89126498D01*
X163406116Y-89126497D01*
X163406116Y-89121032D01*
X163407543Y-89121032D01*
X163416566Y-89080338D01*
X163423562Y-89072000D01*
X164268422Y-88227142D01*
X164297500Y-88156941D01*
X164297500Y-88080957D01*
X164297500Y-86783762D01*
X164315806Y-86739568D01*
X164319827Y-86735884D01*
X164326171Y-86730559D01*
X164341804Y-86717443D01*
X164395143Y-86625057D01*
X164413667Y-86520000D01*
X164395143Y-86414943D01*
X164341804Y-86322557D01*
X164341803Y-86322556D01*
X164260085Y-86253986D01*
X164260082Y-86253985D01*
X164159841Y-86217500D01*
X164159839Y-86217500D01*
X164053161Y-86217500D01*
X164053158Y-86217500D01*
X163952918Y-86253985D01*
X163952915Y-86253987D01*
X163871195Y-86322557D01*
X163817857Y-86414942D01*
X163799333Y-86520000D01*
X163817857Y-86625057D01*
X163871196Y-86717443D01*
X163893173Y-86735884D01*
X163915262Y-86778314D01*
X163915500Y-86783762D01*
X163915500Y-88013946D01*
X163897194Y-88058140D01*
X163149640Y-88805694D01*
X163105446Y-88824000D01*
X163045607Y-88824000D01*
X162945367Y-88860485D01*
X162945364Y-88860487D01*
X162863644Y-88929057D01*
X162810306Y-89021442D01*
X162791782Y-89126500D01*
X162808537Y-89221524D01*
X162798183Y-89268226D01*
X162757839Y-89293928D01*
X162711137Y-89283574D01*
X162702792Y-89276571D01*
X161742806Y-88316585D01*
X161724500Y-88272391D01*
X161724500Y-87517093D01*
X161724500Y-87517091D01*
X161695422Y-87446890D01*
X161641693Y-87393161D01*
X160156633Y-85908101D01*
X160086432Y-85879023D01*
X160086431Y-85879023D01*
X157089205Y-85879023D01*
X157045011Y-85860717D01*
X156290273Y-85105979D01*
X156290272Y-85105978D01*
X156220071Y-85076900D01*
X154599513Y-85076900D01*
X154523529Y-85076900D01*
X154453329Y-85105977D01*
X154453326Y-85105979D01*
X153841807Y-85717499D01*
X153841806Y-85717500D01*
X153822551Y-85736754D01*
X153778356Y-85755059D01*
X153734163Y-85736752D01*
X153724231Y-85723809D01*
X153723588Y-85722695D01*
X153670249Y-85630309D01*
X153650055Y-85613364D01*
X153588530Y-85561738D01*
X153588527Y-85561737D01*
X153488286Y-85525252D01*
X153488284Y-85525252D01*
X153381606Y-85525252D01*
X153381603Y-85525252D01*
X153281363Y-85561737D01*
X153281360Y-85561739D01*
X153217428Y-85615384D01*
X153171806Y-85629768D01*
X153137080Y-85615384D01*
X153063733Y-85553838D01*
X153063730Y-85553837D01*
X152963489Y-85517352D01*
X152963487Y-85517352D01*
X152856809Y-85517352D01*
X152856806Y-85517352D01*
X152756566Y-85553837D01*
X152756563Y-85553839D01*
X152674843Y-85622409D01*
X152621505Y-85714794D01*
X152602981Y-85819852D01*
X152621505Y-85924909D01*
X152674844Y-86017295D01*
X152696821Y-86035736D01*
X152718910Y-86078166D01*
X152719148Y-86083614D01*
X152719148Y-86547219D01*
X152700842Y-86591413D01*
X150106079Y-89186175D01*
X150106077Y-89186178D01*
X150077000Y-89256378D01*
X150077000Y-108677987D01*
X150058694Y-108722181D01*
X142251781Y-116529094D01*
X142207587Y-116547400D01*
X141490771Y-116547400D01*
X141446577Y-116529094D01*
X141429472Y-116497093D01*
X141428709Y-116493259D01*
X141423657Y-116467858D01*
X141353740Y-116299064D01*
X141252236Y-116147153D01*
X141123047Y-116017964D01*
X141056384Y-115973421D01*
X140971138Y-115916461D01*
X140971136Y-115916460D01*
X140802340Y-115846542D01*
X140623151Y-115810900D01*
X139640449Y-115810900D01*
X139461259Y-115846542D01*
X139292463Y-115916460D01*
X139292461Y-115916461D01*
X139140553Y-116017963D01*
X139011363Y-116147153D01*
X138909861Y-116299061D01*
X138909860Y-116299063D01*
X138839942Y-116467859D01*
X138804300Y-116647048D01*
X138258300Y-116647048D01*
X138258300Y-114107048D01*
X138804300Y-114107048D01*
X138804300Y-114289751D01*
X138839942Y-114468940D01*
X138909860Y-114637736D01*
X138909861Y-114637738D01*
X139011363Y-114789646D01*
X139011364Y-114789647D01*
X139140553Y-114918836D01*
X139292464Y-115020340D01*
X139461258Y-115090257D01*
X139640449Y-115125900D01*
X140623151Y-115125900D01*
X140802342Y-115090257D01*
X140971136Y-115020340D01*
X141123047Y-114918836D01*
X141252236Y-114789647D01*
X141353740Y-114637736D01*
X141423657Y-114468942D01*
X141459300Y-114289751D01*
X141459300Y-114107049D01*
X141423657Y-113927858D01*
X141353740Y-113759064D01*
X141252236Y-113607153D01*
X141123047Y-113477964D01*
X141123046Y-113477963D01*
X140971138Y-113376461D01*
X140971136Y-113376460D01*
X140802340Y-113306542D01*
X140623151Y-113270900D01*
X139640449Y-113270900D01*
X139461259Y-113306542D01*
X139292463Y-113376460D01*
X139292461Y-113376461D01*
X139140553Y-113477963D01*
X139011363Y-113607153D01*
X138909861Y-113759061D01*
X138909860Y-113759063D01*
X138839942Y-113927859D01*
X138804300Y-114107048D01*
X138258300Y-114107048D01*
X138258300Y-111567048D01*
X138804300Y-111567048D01*
X138804300Y-111749751D01*
X138839942Y-111928940D01*
X138909860Y-112097736D01*
X138909861Y-112097738D01*
X138926833Y-112123138D01*
X139011364Y-112249647D01*
X139140553Y-112378836D01*
X139292464Y-112480340D01*
X139461258Y-112550257D01*
X139640449Y-112585900D01*
X140623151Y-112585900D01*
X140802342Y-112550257D01*
X140971136Y-112480340D01*
X141123047Y-112378836D01*
X141252236Y-112249647D01*
X141353740Y-112097736D01*
X141423657Y-111928942D01*
X141459300Y-111749751D01*
X141459300Y-111567049D01*
X141423657Y-111387858D01*
X141353740Y-111219064D01*
X141252236Y-111067153D01*
X141123047Y-110937964D01*
X141123046Y-110937963D01*
X140971138Y-110836461D01*
X140971136Y-110836460D01*
X140802340Y-110766542D01*
X140623151Y-110730900D01*
X139640449Y-110730900D01*
X139461259Y-110766542D01*
X139292463Y-110836460D01*
X139292461Y-110836461D01*
X139140553Y-110937963D01*
X139011363Y-111067153D01*
X138909861Y-111219061D01*
X138909860Y-111219063D01*
X138839942Y-111387859D01*
X138804300Y-111567048D01*
X138258300Y-111567048D01*
X138258300Y-109027048D01*
X138804300Y-109027048D01*
X138804300Y-109209751D01*
X138839942Y-109388940D01*
X138909860Y-109557736D01*
X138909861Y-109557738D01*
X138926833Y-109583138D01*
X139011364Y-109709647D01*
X139140553Y-109838836D01*
X139292464Y-109940340D01*
X139461258Y-110010257D01*
X139640449Y-110045900D01*
X140623151Y-110045900D01*
X140802342Y-110010257D01*
X140971136Y-109940340D01*
X141123047Y-109838836D01*
X141252236Y-109709647D01*
X141353740Y-109557736D01*
X141423657Y-109388942D01*
X141459300Y-109209751D01*
X141459300Y-109027049D01*
X141423657Y-108847858D01*
X141353740Y-108679064D01*
X141252236Y-108527153D01*
X141123047Y-108397964D01*
X141123046Y-108397963D01*
X140971138Y-108296461D01*
X140971136Y-108296460D01*
X140802340Y-108226542D01*
X140623151Y-108190900D01*
X139640449Y-108190900D01*
X139461259Y-108226542D01*
X139292463Y-108296460D01*
X139292461Y-108296461D01*
X139140553Y-108397963D01*
X139011363Y-108527153D01*
X138909861Y-108679061D01*
X138909860Y-108679063D01*
X138839942Y-108847859D01*
X138804300Y-109027048D01*
X138258300Y-109027048D01*
X138258300Y-106487048D01*
X138804300Y-106487048D01*
X138804300Y-106669751D01*
X138839942Y-106848940D01*
X138909860Y-107017736D01*
X138909861Y-107017738D01*
X138926833Y-107043138D01*
X139011364Y-107169647D01*
X139140553Y-107298836D01*
X139292464Y-107400340D01*
X139461258Y-107470257D01*
X139640449Y-107505900D01*
X140623151Y-107505900D01*
X140802342Y-107470257D01*
X140971136Y-107400340D01*
X141123047Y-107298836D01*
X141252236Y-107169647D01*
X141353740Y-107017736D01*
X141423657Y-106848942D01*
X141459300Y-106669751D01*
X141459300Y-106487049D01*
X141423657Y-106307858D01*
X141353740Y-106139064D01*
X141252236Y-105987153D01*
X141123047Y-105857964D01*
X141123046Y-105857963D01*
X140971138Y-105756461D01*
X140971136Y-105756460D01*
X140802340Y-105686542D01*
X140623151Y-105650900D01*
X139640449Y-105650900D01*
X139461259Y-105686542D01*
X139292463Y-105756460D01*
X139292461Y-105756461D01*
X139140553Y-105857963D01*
X139011363Y-105987153D01*
X138909861Y-106139061D01*
X138909860Y-106139063D01*
X138839942Y-106307859D01*
X138804300Y-106487048D01*
X138258300Y-106487048D01*
X138258300Y-103947048D01*
X138804300Y-103947048D01*
X138804300Y-104129751D01*
X138839942Y-104308940D01*
X138909860Y-104477736D01*
X138909861Y-104477738D01*
X138926833Y-104503138D01*
X139011364Y-104629647D01*
X139140553Y-104758836D01*
X139292464Y-104860340D01*
X139461258Y-104930257D01*
X139640449Y-104965900D01*
X140623151Y-104965900D01*
X140802342Y-104930257D01*
X140971136Y-104860340D01*
X141123047Y-104758836D01*
X141252236Y-104629647D01*
X141353740Y-104477736D01*
X141423657Y-104308942D01*
X141459300Y-104129751D01*
X141459300Y-103947049D01*
X141423657Y-103767858D01*
X141353740Y-103599064D01*
X141252236Y-103447153D01*
X141123047Y-103317964D01*
X141094398Y-103298821D01*
X140971138Y-103216461D01*
X140971136Y-103216460D01*
X140802340Y-103146542D01*
X140623151Y-103110900D01*
X139640449Y-103110900D01*
X139461259Y-103146542D01*
X139292463Y-103216460D01*
X139292461Y-103216461D01*
X139140553Y-103317963D01*
X139011363Y-103447153D01*
X138909861Y-103599061D01*
X138909860Y-103599063D01*
X138839942Y-103767859D01*
X138804300Y-103947048D01*
X138258300Y-103947048D01*
X138258300Y-101407048D01*
X138804300Y-101407048D01*
X138804300Y-101589751D01*
X138839942Y-101768940D01*
X138909860Y-101937736D01*
X138909861Y-101937738D01*
X139001911Y-102075500D01*
X139011364Y-102089647D01*
X139140553Y-102218836D01*
X139292464Y-102320340D01*
X139461258Y-102390257D01*
X139640449Y-102425900D01*
X140623151Y-102425900D01*
X140802342Y-102390257D01*
X140971136Y-102320340D01*
X141123047Y-102218836D01*
X141252236Y-102089647D01*
X141353740Y-101937736D01*
X141423657Y-101768942D01*
X141459300Y-101589751D01*
X141459300Y-101407049D01*
X141423657Y-101227858D01*
X141353740Y-101059064D01*
X141252236Y-100907153D01*
X141123047Y-100777964D01*
X141071208Y-100743326D01*
X140971138Y-100676461D01*
X140971136Y-100676460D01*
X140802340Y-100606542D01*
X140623151Y-100570900D01*
X139640449Y-100570900D01*
X139461259Y-100606542D01*
X139292463Y-100676460D01*
X139292461Y-100676461D01*
X139140553Y-100777963D01*
X139011363Y-100907153D01*
X138909861Y-101059061D01*
X138909860Y-101059063D01*
X138839942Y-101227859D01*
X138804300Y-101407048D01*
X138258300Y-101407048D01*
X138258300Y-98867048D01*
X138804300Y-98867048D01*
X138804300Y-99049751D01*
X138839942Y-99228940D01*
X138909860Y-99397736D01*
X138909861Y-99397738D01*
X138926833Y-99423138D01*
X139011364Y-99549647D01*
X139140553Y-99678836D01*
X139292464Y-99780340D01*
X139461258Y-99850257D01*
X139640449Y-99885900D01*
X140623151Y-99885900D01*
X140802342Y-99850257D01*
X140971136Y-99780340D01*
X141123047Y-99678836D01*
X141252236Y-99549647D01*
X141353740Y-99397736D01*
X141423657Y-99228942D01*
X141459300Y-99049751D01*
X141459300Y-98867049D01*
X141423657Y-98687858D01*
X141353740Y-98519064D01*
X141252236Y-98367153D01*
X141123047Y-98237964D01*
X141094398Y-98218821D01*
X140971138Y-98136461D01*
X140971136Y-98136460D01*
X140802340Y-98066542D01*
X140623151Y-98030900D01*
X139640449Y-98030900D01*
X139461259Y-98066542D01*
X139292463Y-98136460D01*
X139292461Y-98136461D01*
X139140553Y-98237963D01*
X139011363Y-98367153D01*
X138909861Y-98519061D01*
X138909860Y-98519063D01*
X138839942Y-98687859D01*
X138804300Y-98867048D01*
X138258300Y-98867048D01*
X138258300Y-96168399D01*
X138455190Y-96168399D01*
X138455191Y-96168400D01*
X139816114Y-96168400D01*
X139811720Y-96172794D01*
X139759059Y-96264006D01*
X139731800Y-96365739D01*
X139731800Y-96471061D01*
X139759059Y-96572794D01*
X139811720Y-96664006D01*
X139816114Y-96668400D01*
X138455191Y-96668400D01*
X138463809Y-96722816D01*
X138527042Y-96917425D01*
X138527046Y-96917433D01*
X138619941Y-97099751D01*
X138740214Y-97265292D01*
X138740221Y-97265300D01*
X138884899Y-97409978D01*
X138884907Y-97409985D01*
X139050448Y-97530258D01*
X139232766Y-97623153D01*
X139232774Y-97623157D01*
X139427378Y-97686388D01*
X139629486Y-97718399D01*
X139629490Y-97718400D01*
X139881800Y-97718400D01*
X139881800Y-96734086D01*
X139886194Y-96738480D01*
X139977406Y-96791141D01*
X140079139Y-96818400D01*
X140184461Y-96818400D01*
X140286194Y-96791141D01*
X140377406Y-96738480D01*
X140381800Y-96734086D01*
X140381800Y-97718400D01*
X140634110Y-97718400D01*
X140634113Y-97718399D01*
X140836221Y-97686388D01*
X141030825Y-97623157D01*
X141030833Y-97623153D01*
X141213151Y-97530258D01*
X141378692Y-97409985D01*
X141378700Y-97409978D01*
X141523378Y-97265300D01*
X141523385Y-97265292D01*
X141643658Y-97099751D01*
X141736553Y-96917433D01*
X141736557Y-96917425D01*
X141799790Y-96722816D01*
X141808409Y-96668400D01*
X140447486Y-96668400D01*
X140451880Y-96664006D01*
X140504541Y-96572794D01*
X140531800Y-96471061D01*
X140531800Y-96365739D01*
X140504541Y-96264006D01*
X140451880Y-96172794D01*
X140447486Y-96168400D01*
X141808409Y-96168400D01*
X141808409Y-96168399D01*
X141799790Y-96113983D01*
X141736557Y-95919374D01*
X141736553Y-95919366D01*
X141643658Y-95737048D01*
X141523385Y-95571507D01*
X141523378Y-95571499D01*
X141378700Y-95426821D01*
X141378692Y-95426814D01*
X141213151Y-95306541D01*
X141030833Y-95213646D01*
X141030825Y-95213642D01*
X140836221Y-95150411D01*
X140634113Y-95118400D01*
X140381800Y-95118400D01*
X140381800Y-96102714D01*
X140377406Y-96098320D01*
X140286194Y-96045659D01*
X140184461Y-96018400D01*
X140079139Y-96018400D01*
X139977406Y-96045659D01*
X139886194Y-96098320D01*
X139881800Y-96102714D01*
X139881800Y-95118400D01*
X139629486Y-95118400D01*
X139427378Y-95150411D01*
X139232774Y-95213642D01*
X139232766Y-95213646D01*
X139050448Y-95306541D01*
X138884907Y-95426814D01*
X138884899Y-95426821D01*
X138740221Y-95571499D01*
X138740214Y-95571507D01*
X138619941Y-95737048D01*
X138527046Y-95919366D01*
X138527042Y-95919374D01*
X138463809Y-96113983D01*
X138455190Y-96168399D01*
X138258300Y-96168399D01*
X138258300Y-93787048D01*
X138804300Y-93787048D01*
X138804300Y-93969751D01*
X138839942Y-94148940D01*
X138909860Y-94317736D01*
X138909861Y-94317738D01*
X139007944Y-94464529D01*
X139011364Y-94469647D01*
X139140553Y-94598836D01*
X139292464Y-94700340D01*
X139461258Y-94770257D01*
X139640449Y-94805900D01*
X140623151Y-94805900D01*
X140802342Y-94770257D01*
X140971136Y-94700340D01*
X141123047Y-94598836D01*
X141252236Y-94469647D01*
X141353740Y-94317736D01*
X141423657Y-94148942D01*
X141459300Y-93969751D01*
X141459300Y-93787049D01*
X141423657Y-93607858D01*
X141353740Y-93439064D01*
X141252236Y-93287153D01*
X141123047Y-93157964D01*
X141123046Y-93157963D01*
X140971138Y-93056461D01*
X140971136Y-93056460D01*
X140802340Y-92986542D01*
X140623151Y-92950900D01*
X139640449Y-92950900D01*
X139461259Y-92986542D01*
X139292463Y-93056460D01*
X139292461Y-93056461D01*
X139140553Y-93157963D01*
X139011363Y-93287153D01*
X138909861Y-93439061D01*
X138909860Y-93439063D01*
X138839942Y-93607859D01*
X138804300Y-93787048D01*
X138258300Y-93787048D01*
X138258300Y-91247048D01*
X138804300Y-91247048D01*
X138804300Y-91429751D01*
X138839942Y-91608940D01*
X138909860Y-91777736D01*
X138909861Y-91777738D01*
X139011363Y-91929646D01*
X139011364Y-91929647D01*
X139140553Y-92058836D01*
X139292464Y-92160340D01*
X139461258Y-92230257D01*
X139640449Y-92265900D01*
X140623151Y-92265900D01*
X140802342Y-92230257D01*
X140971136Y-92160340D01*
X141123047Y-92058836D01*
X141252236Y-91929647D01*
X141353740Y-91777736D01*
X141423657Y-91608942D01*
X141459300Y-91429751D01*
X141459300Y-91247049D01*
X141423657Y-91067858D01*
X141353740Y-90899064D01*
X141252236Y-90747153D01*
X141123047Y-90617964D01*
X141123046Y-90617963D01*
X140971138Y-90516461D01*
X140971136Y-90516460D01*
X140802340Y-90446542D01*
X140623151Y-90410900D01*
X139640449Y-90410900D01*
X139461259Y-90446542D01*
X139292463Y-90516460D01*
X139292461Y-90516461D01*
X139140553Y-90617963D01*
X139011363Y-90747153D01*
X138909861Y-90899061D01*
X138909860Y-90899063D01*
X138839942Y-91067859D01*
X138804300Y-91247048D01*
X138258300Y-91247048D01*
X138258300Y-84805903D01*
X138276606Y-84761709D01*
X138320800Y-84743403D01*
X138364994Y-84761709D01*
X139096706Y-85493421D01*
X139115012Y-85537615D01*
X139096707Y-85581809D01*
X139011362Y-85667155D01*
X138909861Y-85819061D01*
X138909860Y-85819063D01*
X138839942Y-85987859D01*
X138804300Y-86167048D01*
X138804300Y-86349751D01*
X138839942Y-86528940D01*
X138909860Y-86697736D01*
X138909861Y-86697738D01*
X138974780Y-86794896D01*
X139011364Y-86849647D01*
X139140553Y-86978836D01*
X139292464Y-87080340D01*
X139461258Y-87150257D01*
X139640449Y-87185900D01*
X140623151Y-87185900D01*
X140802342Y-87150257D01*
X140971136Y-87080340D01*
X141123047Y-86978836D01*
X141252236Y-86849647D01*
X141353740Y-86697736D01*
X141423657Y-86528942D01*
X141459300Y-86349751D01*
X141459300Y-86167049D01*
X141423657Y-85987858D01*
X141353740Y-85819064D01*
X141252236Y-85667153D01*
X141123047Y-85537964D01*
X141123046Y-85537963D01*
X140971138Y-85436461D01*
X140971136Y-85436460D01*
X140802340Y-85366542D01*
X140623151Y-85330900D01*
X139640449Y-85330900D01*
X139640446Y-85330900D01*
X139534724Y-85351928D01*
X139487808Y-85342595D01*
X139478338Y-85334823D01*
X138696606Y-84553091D01*
X138678300Y-84508897D01*
X138678300Y-83627048D01*
X138804300Y-83627048D01*
X138804300Y-83809751D01*
X138839942Y-83988940D01*
X138909860Y-84157736D01*
X138909861Y-84157738D01*
X138961969Y-84235723D01*
X139011364Y-84309647D01*
X139140553Y-84438836D01*
X139292464Y-84540340D01*
X139461258Y-84610257D01*
X139640449Y-84645900D01*
X140623151Y-84645900D01*
X140802342Y-84610257D01*
X140971136Y-84540340D01*
X141123047Y-84438836D01*
X141252236Y-84309647D01*
X141353740Y-84157736D01*
X141423657Y-83988942D01*
X141459300Y-83809751D01*
X141459300Y-83627049D01*
X141423657Y-83447858D01*
X141353740Y-83279064D01*
X141252236Y-83127153D01*
X141123047Y-82997964D01*
X141123046Y-82997963D01*
X140971138Y-82896461D01*
X140971136Y-82896460D01*
X140802340Y-82826542D01*
X140623151Y-82790900D01*
X139640449Y-82790900D01*
X139461259Y-82826542D01*
X139292463Y-82896460D01*
X139292461Y-82896461D01*
X139140553Y-82997963D01*
X139011363Y-83127153D01*
X138909861Y-83279061D01*
X138909860Y-83279063D01*
X138839942Y-83447859D01*
X138804300Y-83627048D01*
X138678300Y-83627048D01*
X138678300Y-77605903D01*
X138696606Y-77561709D01*
X138740800Y-77543403D01*
X138784994Y-77561709D01*
X139096706Y-77873421D01*
X139115012Y-77917615D01*
X139096707Y-77961809D01*
X139011362Y-78047155D01*
X138909861Y-78199061D01*
X138909860Y-78199063D01*
X138839942Y-78367859D01*
X138804300Y-78547048D01*
X138804300Y-78729751D01*
X138839942Y-78908940D01*
X138909860Y-79077736D01*
X138909861Y-79077738D01*
X138926833Y-79103138D01*
X139011364Y-79229647D01*
X139140553Y-79358836D01*
X139292464Y-79460340D01*
X139461258Y-79530257D01*
X139640449Y-79565900D01*
X140623151Y-79565900D01*
X140802342Y-79530257D01*
X140971136Y-79460340D01*
X141123047Y-79358836D01*
X141252236Y-79229647D01*
X141353740Y-79077736D01*
X141423657Y-78908942D01*
X141459300Y-78729751D01*
X141459300Y-78547049D01*
X141423657Y-78367858D01*
X141353740Y-78199064D01*
X141252236Y-78047153D01*
X141123047Y-77917964D01*
X141123046Y-77917963D01*
X140971138Y-77816461D01*
X140971136Y-77816460D01*
X140802340Y-77746542D01*
X140623151Y-77710900D01*
X139640449Y-77710900D01*
X139640446Y-77710900D01*
X139534724Y-77731928D01*
X139487808Y-77722595D01*
X139478338Y-77714823D01*
X138950606Y-77187091D01*
X138932300Y-77142897D01*
X138932300Y-76761471D01*
X138950606Y-76717277D01*
X138994800Y-76698971D01*
X139038994Y-76717277D01*
X139140553Y-76818836D01*
X139292464Y-76920340D01*
X139461258Y-76990257D01*
X139640449Y-77025900D01*
X140623151Y-77025900D01*
X140802342Y-76990257D01*
X140971136Y-76920340D01*
X141123047Y-76818836D01*
X141252236Y-76689647D01*
X141353740Y-76537736D01*
X141423657Y-76368942D01*
X141459300Y-76189751D01*
X141459300Y-76007049D01*
X141423657Y-75827858D01*
X141353740Y-75659064D01*
X141252236Y-75507153D01*
X141166892Y-75421809D01*
X141148586Y-75377615D01*
X141166891Y-75333422D01*
X141478607Y-75021707D01*
X141522800Y-75003402D01*
X141566994Y-75021708D01*
X141585300Y-75065902D01*
X141585300Y-79428896D01*
X141566994Y-79473090D01*
X140785260Y-80254823D01*
X140741066Y-80273129D01*
X140728874Y-80271928D01*
X140623153Y-80250900D01*
X140623151Y-80250900D01*
X139640449Y-80250900D01*
X139461259Y-80286542D01*
X139292463Y-80356460D01*
X139292461Y-80356461D01*
X139140553Y-80457963D01*
X139011363Y-80587153D01*
X138909861Y-80739061D01*
X138909860Y-80739063D01*
X138839942Y-80907859D01*
X138804300Y-81087048D01*
X138804300Y-81269751D01*
X138839942Y-81448940D01*
X138909860Y-81617736D01*
X138909861Y-81617738D01*
X138926833Y-81643138D01*
X139011364Y-81769647D01*
X139140553Y-81898836D01*
X139292464Y-82000340D01*
X139461258Y-82070257D01*
X139640449Y-82105900D01*
X140623151Y-82105900D01*
X140802342Y-82070257D01*
X140971136Y-82000340D01*
X141123047Y-81898836D01*
X141252236Y-81769647D01*
X141353740Y-81617736D01*
X141423657Y-81448942D01*
X141459300Y-81269751D01*
X141459300Y-81087049D01*
X141423657Y-80907858D01*
X141353740Y-80739064D01*
X141252236Y-80587153D01*
X141166892Y-80501809D01*
X141148586Y-80457615D01*
X141166891Y-80413422D01*
X141732607Y-79847707D01*
X141776800Y-79829402D01*
X141820994Y-79847708D01*
X141839300Y-79891902D01*
X141839300Y-86794896D01*
X141820994Y-86839090D01*
X140785260Y-87874823D01*
X140741066Y-87893129D01*
X140728874Y-87891928D01*
X140623153Y-87870900D01*
X140623151Y-87870900D01*
X139640449Y-87870900D01*
X139461259Y-87906542D01*
X139292463Y-87976460D01*
X139292461Y-87976461D01*
X139140553Y-88077963D01*
X139011363Y-88207153D01*
X138909861Y-88359061D01*
X138909860Y-88359063D01*
X138839942Y-88527859D01*
X138804300Y-88707048D01*
X138804300Y-88889751D01*
X138839942Y-89068940D01*
X138909860Y-89237736D01*
X138909861Y-89237738D01*
X138990891Y-89359007D01*
X139011364Y-89389647D01*
X139140553Y-89518836D01*
X139292464Y-89620340D01*
X139461258Y-89690257D01*
X139640449Y-89725900D01*
X140623151Y-89725900D01*
X140802342Y-89690257D01*
X140971136Y-89620340D01*
X141123047Y-89518836D01*
X141252236Y-89389647D01*
X141353740Y-89237736D01*
X141423657Y-89068942D01*
X141459300Y-88889751D01*
X141459300Y-88707049D01*
X141423657Y-88527858D01*
X141353740Y-88359064D01*
X141252236Y-88207153D01*
X141166892Y-88121809D01*
X141148586Y-88077615D01*
X141166891Y-88033422D01*
X142129701Y-87070611D01*
X142129704Y-87070610D01*
X142138492Y-87061822D01*
X142138493Y-87061822D01*
X142192222Y-87008093D01*
X142221300Y-86937892D01*
X142221300Y-83627048D01*
X154044300Y-83627048D01*
X154044300Y-83809751D01*
X154079942Y-83988940D01*
X154149860Y-84157736D01*
X154149861Y-84157738D01*
X154201969Y-84235723D01*
X154251364Y-84309647D01*
X154380553Y-84438836D01*
X154532464Y-84540340D01*
X154701258Y-84610257D01*
X154880449Y-84645900D01*
X155863151Y-84645900D01*
X156042342Y-84610257D01*
X156211136Y-84540340D01*
X156363047Y-84438836D01*
X156492236Y-84309647D01*
X156593740Y-84157736D01*
X156663657Y-83988942D01*
X156699300Y-83809751D01*
X156699300Y-83627049D01*
X156663657Y-83447858D01*
X156593740Y-83279064D01*
X156492236Y-83127153D01*
X156363047Y-82997964D01*
X156363046Y-82997963D01*
X156211138Y-82896461D01*
X156211136Y-82896460D01*
X156042340Y-82826542D01*
X155863151Y-82790900D01*
X154880449Y-82790900D01*
X154701259Y-82826542D01*
X154532463Y-82896460D01*
X154532461Y-82896461D01*
X154380553Y-82997963D01*
X154251363Y-83127153D01*
X154149861Y-83279061D01*
X154149860Y-83279063D01*
X154079942Y-83447859D01*
X154044300Y-83627048D01*
X142221300Y-83627048D01*
X142221300Y-81087048D01*
X154044300Y-81087048D01*
X154044300Y-81269751D01*
X154079942Y-81448940D01*
X154149860Y-81617736D01*
X154149861Y-81617738D01*
X154166833Y-81643138D01*
X154251364Y-81769647D01*
X154380553Y-81898836D01*
X154532464Y-82000340D01*
X154701258Y-82070257D01*
X154880449Y-82105900D01*
X155863151Y-82105900D01*
X156042342Y-82070257D01*
X156211136Y-82000340D01*
X156363047Y-81898836D01*
X156492236Y-81769647D01*
X156593740Y-81617736D01*
X156663657Y-81448942D01*
X156699300Y-81269751D01*
X156699300Y-81087049D01*
X156663657Y-80907858D01*
X156593740Y-80739064D01*
X156492236Y-80587153D01*
X156363047Y-80457964D01*
X156363046Y-80457963D01*
X156211138Y-80356461D01*
X156211136Y-80356460D01*
X156042340Y-80286542D01*
X155863151Y-80250900D01*
X154880449Y-80250900D01*
X154701259Y-80286542D01*
X154532463Y-80356460D01*
X154532461Y-80356461D01*
X154380553Y-80457963D01*
X154251363Y-80587153D01*
X154149861Y-80739061D01*
X154149860Y-80739063D01*
X154079942Y-80907859D01*
X154044300Y-81087048D01*
X142221300Y-81087048D01*
X142221300Y-78547048D01*
X154044300Y-78547048D01*
X154044300Y-78729751D01*
X154079942Y-78908940D01*
X154149860Y-79077736D01*
X154149861Y-79077738D01*
X154166833Y-79103138D01*
X154251364Y-79229647D01*
X154380553Y-79358836D01*
X154532464Y-79460340D01*
X154701258Y-79530257D01*
X154880449Y-79565900D01*
X155863151Y-79565900D01*
X156042342Y-79530257D01*
X156211136Y-79460340D01*
X156363047Y-79358836D01*
X156492236Y-79229647D01*
X156593740Y-79077736D01*
X156663657Y-78908942D01*
X156699300Y-78729751D01*
X156699300Y-78572448D01*
X170020900Y-78572448D01*
X170020900Y-78755151D01*
X170056542Y-78934340D01*
X170126460Y-79103136D01*
X170126461Y-79103138D01*
X170210992Y-79229647D01*
X170227964Y-79255047D01*
X170357153Y-79384236D01*
X170509064Y-79485740D01*
X170677858Y-79555657D01*
X170857049Y-79591300D01*
X171839751Y-79591300D01*
X172018942Y-79555657D01*
X172187736Y-79485740D01*
X172339647Y-79384236D01*
X172468836Y-79255047D01*
X172570340Y-79103136D01*
X172640257Y-78934342D01*
X172675900Y-78755151D01*
X172675900Y-78572449D01*
X172640257Y-78393258D01*
X172570340Y-78224464D01*
X172468836Y-78072553D01*
X172339647Y-77943364D01*
X172339646Y-77943363D01*
X172187738Y-77841861D01*
X172187736Y-77841860D01*
X172018940Y-77771942D01*
X171839751Y-77736300D01*
X170857049Y-77736300D01*
X170677859Y-77771942D01*
X170509063Y-77841860D01*
X170509061Y-77841861D01*
X170357153Y-77943363D01*
X170227963Y-78072553D01*
X170126461Y-78224461D01*
X170126460Y-78224463D01*
X170056542Y-78393259D01*
X170020900Y-78572448D01*
X156699300Y-78572448D01*
X156699300Y-78547049D01*
X156663657Y-78367858D01*
X156593740Y-78199064D01*
X156492236Y-78047153D01*
X156363047Y-77917964D01*
X156363046Y-77917963D01*
X156211138Y-77816461D01*
X156211136Y-77816460D01*
X156042340Y-77746542D01*
X155863151Y-77710900D01*
X154880449Y-77710900D01*
X154701259Y-77746542D01*
X154532463Y-77816460D01*
X154532461Y-77816461D01*
X154380553Y-77917963D01*
X154251363Y-78047153D01*
X154149861Y-78199061D01*
X154149860Y-78199063D01*
X154079942Y-78367859D01*
X154044300Y-78547048D01*
X142221300Y-78547048D01*
X142221300Y-76007048D01*
X154044300Y-76007048D01*
X154044300Y-76189751D01*
X154079942Y-76368940D01*
X154149860Y-76537736D01*
X154149861Y-76537738D01*
X154251363Y-76689646D01*
X154251364Y-76689647D01*
X154380553Y-76818836D01*
X154532464Y-76920340D01*
X154701258Y-76990257D01*
X154880449Y-77025900D01*
X155863151Y-77025900D01*
X156042342Y-76990257D01*
X156211136Y-76920340D01*
X156363047Y-76818836D01*
X156492236Y-76689647D01*
X156593740Y-76537736D01*
X156663657Y-76368942D01*
X156699300Y-76189751D01*
X156699300Y-76007049D01*
X156663657Y-75827858D01*
X156593740Y-75659064D01*
X156492236Y-75507153D01*
X156363047Y-75377964D01*
X156363046Y-75377963D01*
X156211138Y-75276461D01*
X156211136Y-75276460D01*
X156042340Y-75206542D01*
X155863151Y-75170900D01*
X154880449Y-75170900D01*
X154701259Y-75206542D01*
X154532463Y-75276460D01*
X154532461Y-75276461D01*
X154380553Y-75377963D01*
X154251363Y-75507153D01*
X154149861Y-75659061D01*
X154149860Y-75659063D01*
X154079942Y-75827859D01*
X154044300Y-76007048D01*
X142221300Y-76007048D01*
X142221300Y-73467048D01*
X154044300Y-73467048D01*
X154044300Y-73649751D01*
X154079942Y-73828940D01*
X154149860Y-73997736D01*
X154149861Y-73997738D01*
X154194617Y-74064720D01*
X154251364Y-74149647D01*
X154380553Y-74278836D01*
X154532464Y-74380340D01*
X154701258Y-74450257D01*
X154880449Y-74485900D01*
X155863151Y-74485900D01*
X156042342Y-74450257D01*
X156211136Y-74380340D01*
X156363047Y-74278836D01*
X156492236Y-74149647D01*
X156593740Y-73997736D01*
X156663657Y-73828942D01*
X156699300Y-73649751D01*
X156699300Y-73467049D01*
X156663657Y-73287858D01*
X156593740Y-73119064D01*
X156492236Y-72967153D01*
X156363047Y-72837964D01*
X156363046Y-72837963D01*
X156211138Y-72736461D01*
X156211136Y-72736460D01*
X156042340Y-72666542D01*
X155863151Y-72630900D01*
X154880449Y-72630900D01*
X154701259Y-72666542D01*
X154532463Y-72736460D01*
X154532461Y-72736461D01*
X154380553Y-72837963D01*
X154251363Y-72967153D01*
X154149861Y-73119061D01*
X154149860Y-73119063D01*
X154079942Y-73287859D01*
X154044300Y-73467048D01*
X142221300Y-73467048D01*
X142221300Y-72842533D01*
X142239606Y-72798339D01*
X144110897Y-70927048D01*
X154044300Y-70927048D01*
X154044300Y-71109751D01*
X154079942Y-71288940D01*
X154149860Y-71457736D01*
X154149861Y-71457738D01*
X154251363Y-71609646D01*
X154251364Y-71609647D01*
X154380553Y-71738836D01*
X154532464Y-71840340D01*
X154701258Y-71910257D01*
X154880449Y-71945900D01*
X155863151Y-71945900D01*
X156042342Y-71910257D01*
X156211136Y-71840340D01*
X156363047Y-71738836D01*
X156492236Y-71609647D01*
X156593740Y-71457736D01*
X156663657Y-71288942D01*
X156699300Y-71109751D01*
X156699300Y-70927049D01*
X156663657Y-70747858D01*
X156593740Y-70579064D01*
X156492236Y-70427153D01*
X156363047Y-70297964D01*
X156354415Y-70292196D01*
X156211138Y-70196461D01*
X156211136Y-70196460D01*
X156042340Y-70126542D01*
X155863151Y-70090900D01*
X154880449Y-70090900D01*
X154701259Y-70126542D01*
X154532463Y-70196460D01*
X154532461Y-70196461D01*
X154380553Y-70297963D01*
X154251363Y-70427153D01*
X154149861Y-70579061D01*
X154149860Y-70579063D01*
X154079942Y-70747859D01*
X154044300Y-70927048D01*
X144110897Y-70927048D01*
X147025139Y-68012806D01*
X147069333Y-67994500D01*
X150144269Y-67994500D01*
X150184443Y-68009122D01*
X150203184Y-68024847D01*
X150256416Y-68069514D01*
X150356661Y-68106000D01*
X150356664Y-68106000D01*
X150463336Y-68106000D01*
X150463339Y-68106000D01*
X150563584Y-68069514D01*
X150645304Y-68000943D01*
X150698643Y-67908557D01*
X150717167Y-67803500D01*
X150699332Y-67702351D01*
X150709686Y-67655651D01*
X150750030Y-67629949D01*
X150760883Y-67629000D01*
X153859373Y-67629000D01*
X153903567Y-67647306D01*
X153921873Y-67691500D01*
X153909937Y-67728237D01*
X153859939Y-67797053D01*
X153767046Y-67979366D01*
X153767042Y-67979374D01*
X153703809Y-68173983D01*
X153695190Y-68228399D01*
X153695191Y-68228400D01*
X155056114Y-68228400D01*
X155051720Y-68232794D01*
X154999059Y-68324006D01*
X154971800Y-68425739D01*
X154971800Y-68531061D01*
X154999059Y-68632794D01*
X155051720Y-68724006D01*
X155056114Y-68728400D01*
X153695191Y-68728400D01*
X153703809Y-68782816D01*
X153767042Y-68977425D01*
X153767046Y-68977433D01*
X153859941Y-69159751D01*
X153980214Y-69325292D01*
X153980221Y-69325300D01*
X154124899Y-69469978D01*
X154124907Y-69469985D01*
X154290448Y-69590258D01*
X154472766Y-69683153D01*
X154472774Y-69683157D01*
X154667378Y-69746388D01*
X154869486Y-69778399D01*
X154869490Y-69778400D01*
X155121800Y-69778400D01*
X155121800Y-68794086D01*
X155126194Y-68798480D01*
X155217406Y-68851141D01*
X155319139Y-68878400D01*
X155424461Y-68878400D01*
X155526194Y-68851141D01*
X155617406Y-68798480D01*
X155621800Y-68794086D01*
X155621800Y-69778400D01*
X155874110Y-69778400D01*
X155874113Y-69778399D01*
X156076221Y-69746388D01*
X156270825Y-69683157D01*
X156270833Y-69683153D01*
X156453151Y-69590258D01*
X156618692Y-69469985D01*
X156618700Y-69469978D01*
X156763378Y-69325300D01*
X156763385Y-69325292D01*
X156883658Y-69159751D01*
X156976553Y-68977433D01*
X156976557Y-68977425D01*
X157039790Y-68782816D01*
X157048409Y-68728400D01*
X155687486Y-68728400D01*
X155691880Y-68724006D01*
X155744541Y-68632794D01*
X155771800Y-68531061D01*
X155771800Y-68425739D01*
X155744541Y-68324006D01*
X155691880Y-68232794D01*
X155687486Y-68228400D01*
X157048409Y-68228400D01*
X157048409Y-68228399D01*
X157039790Y-68173983D01*
X156976557Y-67979374D01*
X156976553Y-67979366D01*
X156883660Y-67797053D01*
X156833663Y-67728237D01*
X156822496Y-67681723D01*
X156847490Y-67640936D01*
X156884227Y-67629000D01*
X159361694Y-67629000D01*
X159405888Y-67647306D01*
X159557675Y-67799093D01*
X159611404Y-67852822D01*
X159681605Y-67881900D01*
X159681607Y-67881900D01*
X160770234Y-67881900D01*
X160770236Y-67881900D01*
X160840437Y-67852822D01*
X163646135Y-65047124D01*
X163648757Y-65040794D01*
X163682581Y-65006968D01*
X163730416Y-65006967D01*
X163764242Y-65040791D01*
X163769000Y-65064710D01*
X163769000Y-70121737D01*
X163750694Y-70165931D01*
X163746675Y-70169615D01*
X163724694Y-70188059D01*
X163671357Y-70280442D01*
X163652833Y-70385500D01*
X163671357Y-70490557D01*
X163724696Y-70582943D01*
X163806414Y-70651513D01*
X163806415Y-70651513D01*
X163806416Y-70651514D01*
X163906661Y-70688000D01*
X163906664Y-70688000D01*
X164013336Y-70688000D01*
X164013339Y-70688000D01*
X164113584Y-70651514D01*
X164195304Y-70582943D01*
X164248643Y-70490557D01*
X164267167Y-70385500D01*
X164248643Y-70280443D01*
X164195304Y-70188057D01*
X164173324Y-70169613D01*
X164151238Y-70127184D01*
X164151000Y-70121737D01*
X164151000Y-64364263D01*
X164169306Y-64320069D01*
X164173315Y-64316394D01*
X164196140Y-64297243D01*
X164249479Y-64204857D01*
X164268003Y-64099800D01*
X164249479Y-63994743D01*
X164196140Y-63902357D01*
X164196139Y-63902356D01*
X164114421Y-63833786D01*
X164114418Y-63833785D01*
X164014177Y-63797300D01*
X164014175Y-63797300D01*
X163907497Y-63797300D01*
X163907494Y-63797300D01*
X163807254Y-63833785D01*
X163807251Y-63833787D01*
X163725531Y-63902357D01*
X163672192Y-63994744D01*
X163667635Y-64020587D01*
X163641932Y-64060930D01*
X163595230Y-64071282D01*
X163584710Y-64068463D01*
X163537556Y-64051301D01*
X163537553Y-64051300D01*
X163537552Y-64051300D01*
X163430874Y-64051300D01*
X163430871Y-64051300D01*
X163330631Y-64087785D01*
X163330628Y-64087787D01*
X163248908Y-64156357D01*
X163195570Y-64248741D01*
X163195568Y-64248746D01*
X163191158Y-64273761D01*
X163165456Y-64314105D01*
X163118755Y-64324458D01*
X163108233Y-64321639D01*
X163063343Y-64305301D01*
X163063340Y-64305300D01*
X163063339Y-64305300D01*
X162956661Y-64305300D01*
X162956658Y-64305300D01*
X162856418Y-64341785D01*
X162856415Y-64341787D01*
X162774695Y-64410357D01*
X162721357Y-64502742D01*
X162702833Y-64607800D01*
X162721357Y-64712857D01*
X162774696Y-64805243D01*
X162796673Y-64823684D01*
X162818762Y-64866114D01*
X162819000Y-64871562D01*
X162819000Y-64948931D01*
X162800694Y-64993125D01*
X160566225Y-67227594D01*
X160522031Y-67245900D01*
X160327086Y-67245900D01*
X160282892Y-67227594D01*
X160264586Y-67183400D01*
X160265535Y-67172547D01*
X160283370Y-67071400D01*
X160264846Y-66966343D01*
X160211507Y-66873957D01*
X160201904Y-66865899D01*
X160129788Y-66805386D01*
X160129785Y-66805385D01*
X160029544Y-66768900D01*
X160029542Y-66768900D01*
X159957413Y-66768900D01*
X159933496Y-66764143D01*
X159924310Y-66760338D01*
X159872795Y-66739000D01*
X159872794Y-66739000D01*
X156433771Y-66739000D01*
X156389577Y-66720694D01*
X156371271Y-66676500D01*
X156389577Y-66632306D01*
X156492236Y-66529647D01*
X156593740Y-66377736D01*
X156663657Y-66208942D01*
X156699300Y-66029751D01*
X156699300Y-65847049D01*
X156663657Y-65667858D01*
X156593740Y-65499064D01*
X156492236Y-65347153D01*
X156363047Y-65217964D01*
X156362629Y-65217685D01*
X156351557Y-65210286D01*
X156339703Y-65202366D01*
X156313128Y-65162593D01*
X156322460Y-65115677D01*
X156362234Y-65089101D01*
X156374427Y-65087900D01*
X157700601Y-65087900D01*
X157744795Y-65106206D01*
X157946782Y-65308193D01*
X158000511Y-65361922D01*
X158070712Y-65391000D01*
X158279769Y-65391000D01*
X158319943Y-65405622D01*
X158391916Y-65466014D01*
X158471949Y-65495143D01*
X158482720Y-65499064D01*
X158492161Y-65502500D01*
X158492164Y-65502500D01*
X158598836Y-65502500D01*
X158598839Y-65502500D01*
X158699084Y-65466014D01*
X158780804Y-65397443D01*
X158834143Y-65305057D01*
X158852667Y-65200000D01*
X158834143Y-65094943D01*
X158780804Y-65002557D01*
X158780803Y-65002556D01*
X158699085Y-64933986D01*
X158699082Y-64933985D01*
X158598841Y-64897500D01*
X158598839Y-64897500D01*
X158536419Y-64897500D01*
X158492225Y-64879194D01*
X158473919Y-64835000D01*
X158474869Y-64824147D01*
X158487167Y-64754402D01*
X158475632Y-64688980D01*
X158469332Y-64653251D01*
X158479686Y-64606551D01*
X158520030Y-64580849D01*
X158530883Y-64579900D01*
X159830673Y-64579900D01*
X159870847Y-64594522D01*
X159907649Y-64625402D01*
X159939936Y-64652494D01*
X160040181Y-64688980D01*
X160040184Y-64688980D01*
X160146856Y-64688980D01*
X160146859Y-64688980D01*
X160247104Y-64652494D01*
X160328824Y-64583923D01*
X160382163Y-64491537D01*
X160400687Y-64386480D01*
X160382163Y-64281423D01*
X160328824Y-64189037D01*
X160321961Y-64183278D01*
X160247105Y-64120466D01*
X160247102Y-64120465D01*
X160146861Y-64083980D01*
X160146859Y-64083980D01*
X160040181Y-64083980D01*
X160040178Y-64083980D01*
X159939938Y-64120465D01*
X159939935Y-64120467D01*
X159865079Y-64183278D01*
X159824905Y-64197900D01*
X156434871Y-64197900D01*
X156390677Y-64179594D01*
X156372371Y-64135400D01*
X156390677Y-64091206D01*
X156430583Y-64051300D01*
X156492236Y-63989647D01*
X156593740Y-63837736D01*
X156663657Y-63668942D01*
X156699300Y-63489751D01*
X156699300Y-63307049D01*
X156663657Y-63127858D01*
X156593740Y-62959064D01*
X156492236Y-62807153D01*
X156363047Y-62677964D01*
X156359587Y-62675652D01*
X156211138Y-62576461D01*
X156211136Y-62576460D01*
X156042340Y-62506542D01*
X155863151Y-62470900D01*
X154880449Y-62470900D01*
X154701259Y-62506542D01*
X154532463Y-62576460D01*
X154532461Y-62576461D01*
X154380553Y-62677963D01*
X154251363Y-62807153D01*
X154149861Y-62959061D01*
X154149860Y-62959063D01*
X154079942Y-63127859D01*
X154044300Y-63307048D01*
X154044300Y-63489751D01*
X154079942Y-63668940D01*
X154149860Y-63837736D01*
X154149861Y-63837738D01*
X154251363Y-63989646D01*
X154352923Y-64091206D01*
X154371229Y-64135400D01*
X154352923Y-64179594D01*
X154308729Y-64197900D01*
X141643308Y-64197900D01*
X141573108Y-64226977D01*
X141573104Y-64226979D01*
X141565992Y-64234092D01*
X141521797Y-64252396D01*
X141477604Y-64234088D01*
X141459300Y-64189896D01*
X141459300Y-62585842D01*
X141457434Y-62576461D01*
X141451902Y-62548652D01*
X141451901Y-62548650D01*
X141423722Y-62506477D01*
X141381548Y-62478298D01*
X141344358Y-62470900D01*
X138919242Y-62470900D01*
X138900647Y-62474599D01*
X138882051Y-62478298D01*
X138882050Y-62478298D01*
X138839877Y-62506477D01*
X138811698Y-62548650D01*
X138811698Y-62548651D01*
X138806645Y-62574052D01*
X138804300Y-62585842D01*
X138804300Y-64210958D01*
X138809353Y-64236358D01*
X138811698Y-64248148D01*
X138811698Y-64248149D01*
X138839877Y-64290322D01*
X138862294Y-64305300D01*
X138882052Y-64318502D01*
X138919242Y-64325900D01*
X138919243Y-64325900D01*
X141323297Y-64325900D01*
X141367491Y-64344206D01*
X141385797Y-64388400D01*
X141367491Y-64432594D01*
X140785260Y-65014823D01*
X140741066Y-65033129D01*
X140728874Y-65031928D01*
X140623153Y-65010900D01*
X140623151Y-65010900D01*
X139640449Y-65010900D01*
X139461259Y-65046542D01*
X139292463Y-65116460D01*
X139292461Y-65116461D01*
X139140553Y-65217963D01*
X139011363Y-65347153D01*
X138909861Y-65499061D01*
X138909860Y-65499063D01*
X138839942Y-65667859D01*
X138804300Y-65847048D01*
X138804300Y-66029751D01*
X138839942Y-66208940D01*
X138909860Y-66377736D01*
X138909861Y-66377738D01*
X139011363Y-66529646D01*
X139011364Y-66529647D01*
X139140553Y-66658836D01*
X139292464Y-66760340D01*
X139461258Y-66830257D01*
X139640449Y-66865900D01*
X140623151Y-66865900D01*
X140802342Y-66830257D01*
X140971136Y-66760340D01*
X141123047Y-66658836D01*
X141252236Y-66529647D01*
X141353740Y-66377736D01*
X141423657Y-66208942D01*
X141459300Y-66029751D01*
X141459300Y-65847049D01*
X141423657Y-65667858D01*
X141353740Y-65499064D01*
X141252236Y-65347153D01*
X141166892Y-65261809D01*
X141148586Y-65217615D01*
X141166891Y-65173422D01*
X141742109Y-64598206D01*
X141786303Y-64579900D01*
X147970877Y-64579900D01*
X148015071Y-64598206D01*
X148033377Y-64642400D01*
X148015071Y-64686594D01*
X141565994Y-71135670D01*
X141521800Y-71153976D01*
X141477606Y-71135670D01*
X141459300Y-71091476D01*
X141459300Y-70927049D01*
X141423657Y-70747858D01*
X141353740Y-70579064D01*
X141252236Y-70427153D01*
X141123047Y-70297964D01*
X141114415Y-70292196D01*
X140971138Y-70196461D01*
X140971136Y-70196460D01*
X140802340Y-70126542D01*
X140623151Y-70090900D01*
X139640449Y-70090900D01*
X139461259Y-70126542D01*
X139292463Y-70196460D01*
X139292461Y-70196461D01*
X139140553Y-70297963D01*
X139011363Y-70427153D01*
X138909861Y-70579061D01*
X138909860Y-70579063D01*
X138839942Y-70747859D01*
X138804300Y-70927048D01*
X138804300Y-71109751D01*
X138839942Y-71288940D01*
X138909860Y-71457736D01*
X138909861Y-71457738D01*
X139011363Y-71609646D01*
X139011364Y-71609647D01*
X139140553Y-71738836D01*
X139292464Y-71840340D01*
X139461258Y-71910257D01*
X139640449Y-71945900D01*
X140604877Y-71945900D01*
X140649071Y-71964206D01*
X140667377Y-72008400D01*
X140649071Y-72052594D01*
X140597071Y-72104594D01*
X140552877Y-72122900D01*
X139178319Y-72122900D01*
X139108119Y-72151977D01*
X139108116Y-72151979D01*
X138364994Y-72895102D01*
X138320800Y-72913408D01*
X138276606Y-72895102D01*
X138258300Y-72850908D01*
X138258300Y-68228399D01*
X138455190Y-68228399D01*
X138455191Y-68228400D01*
X139816114Y-68228400D01*
X139811720Y-68232794D01*
X139759059Y-68324006D01*
X139731800Y-68425739D01*
X139731800Y-68531061D01*
X139759059Y-68632794D01*
X139811720Y-68724006D01*
X139816114Y-68728400D01*
X138455191Y-68728400D01*
X138463809Y-68782816D01*
X138527042Y-68977425D01*
X138527046Y-68977433D01*
X138619941Y-69159751D01*
X138740214Y-69325292D01*
X138740221Y-69325300D01*
X138884899Y-69469978D01*
X138884907Y-69469985D01*
X139050448Y-69590258D01*
X139232766Y-69683153D01*
X139232774Y-69683157D01*
X139427378Y-69746388D01*
X139629486Y-69778399D01*
X139629490Y-69778400D01*
X139881800Y-69778400D01*
X139881800Y-68794086D01*
X139886194Y-68798480D01*
X139977406Y-68851141D01*
X140079139Y-68878400D01*
X140184461Y-68878400D01*
X140286194Y-68851141D01*
X140377406Y-68798480D01*
X140381800Y-68794086D01*
X140381800Y-69778400D01*
X140634110Y-69778400D01*
X140634113Y-69778399D01*
X140836221Y-69746388D01*
X141030825Y-69683157D01*
X141030833Y-69683153D01*
X141213151Y-69590258D01*
X141378692Y-69469985D01*
X141378700Y-69469978D01*
X141523378Y-69325300D01*
X141523385Y-69325292D01*
X141643658Y-69159751D01*
X141736553Y-68977433D01*
X141736557Y-68977425D01*
X141799790Y-68782816D01*
X141808409Y-68728400D01*
X140447486Y-68728400D01*
X140451880Y-68724006D01*
X140504541Y-68632794D01*
X140531800Y-68531061D01*
X140531800Y-68425739D01*
X140504541Y-68324006D01*
X140451880Y-68232794D01*
X140447486Y-68228400D01*
X141808409Y-68228400D01*
X141808409Y-68228399D01*
X141799790Y-68173983D01*
X141736557Y-67979374D01*
X141736553Y-67979366D01*
X141643658Y-67797048D01*
X141523385Y-67631507D01*
X141523378Y-67631499D01*
X141378700Y-67486821D01*
X141378692Y-67486814D01*
X141213151Y-67366541D01*
X141030833Y-67273646D01*
X141030825Y-67273642D01*
X140836221Y-67210411D01*
X140634113Y-67178400D01*
X140381800Y-67178400D01*
X140381800Y-68162714D01*
X140377406Y-68158320D01*
X140286194Y-68105659D01*
X140184461Y-68078400D01*
X140079139Y-68078400D01*
X139977406Y-68105659D01*
X139886194Y-68158320D01*
X139881800Y-68162714D01*
X139881800Y-67178400D01*
X139629486Y-67178400D01*
X139427378Y-67210411D01*
X139232774Y-67273642D01*
X139232766Y-67273646D01*
X139050448Y-67366541D01*
X138884907Y-67486814D01*
X138884899Y-67486821D01*
X138740221Y-67631499D01*
X138740214Y-67631507D01*
X138619941Y-67797048D01*
X138527046Y-67979366D01*
X138527042Y-67979374D01*
X138463809Y-68173983D01*
X138455190Y-68228399D01*
X138258300Y-68228399D01*
X138258300Y-62238200D01*
X138276606Y-62194006D01*
X138320800Y-62175700D01*
X188388600Y-62175700D01*
X188432794Y-62194006D01*
G37*
%TD.AperFunction*%
%TD*%
M02*
