%TF.GenerationSoftware,KiCad,Pcbnew,8.0.7*%
%TF.CreationDate,2025-02-11T22:57:12-05:00*%
%TF.ProjectId,Intel 105 BGA NOR+NAND NonMux,496e7465-6c20-4313-9035-20424741204e,rev?*%
%TF.SameCoordinates,Original*%
%TF.FileFunction,Copper,L1,Top*%
%TF.FilePolarity,Positive*%
%FSLAX46Y46*%
G04 Gerber Fmt 4.6, Leading zero omitted, Abs format (unit mm)*
G04 Created by KiCad (PCBNEW 8.0.7) date 2025-02-11 22:57:12*
%MOMM*%
%LPD*%
G01*
G04 APERTURE LIST*
G04 Aperture macros list*
%AMRoundRect*
0 Rectangle with rounded corners*
0 $1 Rounding radius*
0 $2 $3 $4 $5 $6 $7 $8 $9 X,Y pos of 4 corners*
0 Add a 4 corners polygon primitive as box body*
4,1,4,$2,$3,$4,$5,$6,$7,$8,$9,$2,$3,0*
0 Add four circle primitives for the rounded corners*
1,1,$1+$1,$2,$3*
1,1,$1+$1,$4,$5*
1,1,$1+$1,$6,$7*
1,1,$1+$1,$8,$9*
0 Add four rect primitives between the rounded corners*
20,1,$1+$1,$2,$3,$4,$5,0*
20,1,$1+$1,$4,$5,$6,$7,0*
20,1,$1+$1,$6,$7,$8,$9,0*
20,1,$1+$1,$8,$9,$2,$3,0*%
%AMFreePoly0*
4,1,19,0.550000,-0.750000,0.000000,-0.750000,0.000000,-0.744911,-0.071157,-0.744911,-0.207708,-0.704816,-0.327430,-0.627875,-0.420627,-0.520320,-0.479746,-0.390866,-0.500000,-0.250000,-0.500000,0.250000,-0.479746,0.390866,-0.420627,0.520320,-0.327430,0.627875,-0.207708,0.704816,-0.071157,0.744911,0.000000,0.744911,0.000000,0.750000,0.550000,0.750000,0.550000,-0.750000,0.550000,-0.750000,
$1*%
%AMFreePoly1*
4,1,19,0.000000,0.744911,0.071157,0.744911,0.207708,0.704816,0.327430,0.627875,0.420627,0.520320,0.479746,0.390866,0.500000,0.250000,0.500000,-0.250000,0.479746,-0.390866,0.420627,-0.520320,0.327430,-0.627875,0.207708,-0.704816,0.071157,-0.744911,0.000000,-0.744911,0.000000,-0.750000,-0.550000,-0.750000,-0.550000,0.750000,0.000000,0.750000,0.000000,0.744911,0.000000,0.744911,
$1*%
G04 Aperture macros list end*
%TA.AperFunction,SMDPad,CuDef*%
%ADD10RoundRect,0.250000X-0.475000X0.337500X-0.475000X-0.337500X0.475000X-0.337500X0.475000X0.337500X0*%
%TD*%
%TA.AperFunction,SMDPad,CuDef*%
%ADD11FreePoly0,0.000000*%
%TD*%
%TA.AperFunction,SMDPad,CuDef*%
%ADD12R,1.000000X1.500000*%
%TD*%
%TA.AperFunction,SMDPad,CuDef*%
%ADD13FreePoly1,0.000000*%
%TD*%
%TA.AperFunction,ComponentPad*%
%ADD14R,2.400000X1.600000*%
%TD*%
%TA.AperFunction,ComponentPad*%
%ADD15O,2.400000X1.600000*%
%TD*%
%TA.AperFunction,ComponentPad*%
%ADD16R,1.600000X1.600000*%
%TD*%
%TA.AperFunction,ComponentPad*%
%ADD17C,1.600000*%
%TD*%
%TA.AperFunction,SMDPad,CuDef*%
%ADD18C,0.400000*%
%TD*%
%TA.AperFunction,SMDPad,CuDef*%
%ADD19RoundRect,0.250000X0.475000X-0.337500X0.475000X0.337500X-0.475000X0.337500X-0.475000X-0.337500X0*%
%TD*%
%TA.AperFunction,ViaPad*%
%ADD20C,0.350000*%
%TD*%
%TA.AperFunction,Conductor*%
%ADD21C,0.150000*%
%TD*%
%TA.AperFunction,Conductor*%
%ADD22C,0.127000*%
%TD*%
%TA.AperFunction,Conductor*%
%ADD23C,0.250000*%
%TD*%
G04 APERTURE END LIST*
D10*
%TO.P,C2,1*%
%TO.N,VCC*%
X157690000Y-93982500D03*
%TO.P,C2,2*%
%TO.N,GND*%
X157690000Y-96057500D03*
%TD*%
D11*
%TO.P,CE4,1,A*%
%TO.N,/CE*%
X150000000Y-102847500D03*
D12*
%TO.P,CE4,2,C*%
%TO.N,/F4-CE*%
X151300000Y-102847500D03*
D13*
%TO.P,CE4,3,B*%
%TO.N,VCC*%
X152600000Y-102847500D03*
%TD*%
D14*
%TO.P,J3,1,Pin_1*%
%TO.N,/D4*%
X140131800Y-63398400D03*
D15*
%TO.P,J3,2,Pin_2*%
%TO.N,/D6*%
X140131800Y-65938400D03*
%TO.P,J3,3,Pin_3*%
%TO.N,GND*%
X140131800Y-68478400D03*
%TO.P,J3,4,Pin_4*%
%TO.N,VCC*%
X140131800Y-71018400D03*
%TO.P,J3,5,Pin_5*%
%TO.N,/D5*%
X140131800Y-73558400D03*
%TO.P,J3,6,Pin_6*%
%TO.N,/D7*%
X140131800Y-76098400D03*
%TO.P,J3,7,Pin_7*%
%TO.N,/D12*%
X140131800Y-78638400D03*
%TO.P,J3,8,Pin_8*%
%TO.N,/D14*%
X140131800Y-81178400D03*
%TO.P,J3,9,Pin_9*%
%TO.N,VCC*%
X140131800Y-83718400D03*
%TO.P,J3,10,Pin_10*%
%TO.N,/D13*%
X140131800Y-86258400D03*
%TO.P,J3,11,Pin_11*%
%TO.N,/D15*%
X140131800Y-88798400D03*
%TO.P,J3,12,Pin_12*%
%TO.N,unconnected-(J3-Pin_12-Pad12)*%
X140131800Y-91338400D03*
%TO.P,J3,13,Pin_13*%
%TO.N,unconnected-(J3-Pin_13-Pad13)*%
X140131800Y-93878400D03*
%TO.P,J3,14,Pin_14*%
%TO.N,GND*%
X140131800Y-96418400D03*
%TO.P,J3,15,Pin_15*%
%TO.N,unconnected-(J3-Pin_15-Pad15)*%
X140131800Y-98958400D03*
%TO.P,J3,16,Pin_16*%
%TO.N,unconnected-(J3-Pin_16-Pad16)*%
X140131800Y-101498400D03*
%TO.P,J3,17,Pin_17*%
%TO.N,unconnected-(J3-Pin_17-Pad17)*%
X140131800Y-104038400D03*
%TO.P,J3,18,Pin_18*%
%TO.N,unconnected-(J3-Pin_18-Pad18)*%
X140131800Y-106578400D03*
%TO.P,J3,19,Pin_19*%
%TO.N,unconnected-(J3-Pin_19-Pad19)*%
X140131800Y-109118400D03*
%TO.P,J3,20,Pin_20*%
%TO.N,unconnected-(J3-Pin_20-Pad20)*%
X140131800Y-111658400D03*
%TO.P,J3,21,Pin_21*%
%TO.N,unconnected-(J3-Pin_21-Pad21)*%
X140131800Y-114198400D03*
%TO.P,J3,22,Pin_22*%
%TO.N,/N-RY{slash}BY*%
X140131800Y-116738400D03*
%TO.P,J3,23,Pin_23*%
%TO.N,/N-WE*%
X140131800Y-119278400D03*
%TO.P,J3,24,Pin_24*%
%TO.N,/CE*%
X140131800Y-121818400D03*
%TO.P,J3,25,Pin_25*%
%TO.N,GND*%
X155371800Y-121818400D03*
%TO.P,J3,26,Pin_26*%
%TO.N,/ALE*%
X155371800Y-119278400D03*
%TO.P,J3,27,Pin_27*%
%TO.N,/N-WP2*%
X155371800Y-116738400D03*
%TO.P,J3,28,Pin_28*%
%TO.N,/CLE*%
X155371800Y-114198400D03*
%TO.P,J3,29,Pin_29*%
%TO.N,/N-RE*%
X155371800Y-111658400D03*
%TO.P,J3,30,Pin_30*%
%TO.N,VCC*%
X155371800Y-109118400D03*
%TO.P,J3,31,Pin_31*%
%TO.N,unconnected-(J3-Pin_31-Pad31)*%
X155371800Y-106578400D03*
%TO.P,J3,32,Pin_32*%
%TO.N,unconnected-(J3-Pin_32-Pad32)*%
X155371800Y-104038400D03*
%TO.P,J3,33,Pin_33*%
%TO.N,unconnected-(J3-Pin_33-Pad33)*%
X155371800Y-101498400D03*
%TO.P,J3,34,Pin_34*%
%TO.N,unconnected-(J3-Pin_34-Pad34)*%
X155371800Y-98958400D03*
%TO.P,J3,35,Pin_35*%
%TO.N,unconnected-(J3-Pin_35-Pad35)*%
X155371800Y-96418400D03*
%TO.P,J3,36,Pin_36*%
%TO.N,unconnected-(J3-Pin_36-Pad36)*%
X155371800Y-93878400D03*
%TO.P,J3,37,Pin_37*%
%TO.N,unconnected-(J3-Pin_37-Pad37)*%
X155371800Y-91338400D03*
%TO.P,J3,38,Pin_38*%
%TO.N,VCC*%
X155371800Y-88798400D03*
%TO.P,J3,39,Pin_39*%
%TO.N,unconnected-(J3-Pin_39-Pad39)*%
X155371800Y-86258400D03*
%TO.P,J3,40,Pin_40*%
%TO.N,/D8*%
X155371800Y-83718400D03*
%TO.P,J3,41,Pin_41*%
%TO.N,/D0*%
X155371800Y-81178400D03*
%TO.P,J3,42,Pin_42*%
%TO.N,/D10*%
X155371800Y-78638400D03*
%TO.P,J3,43,Pin_43*%
%TO.N,/D9*%
X155371800Y-76098400D03*
%TO.P,J3,44,Pin_44*%
%TO.N,/D1*%
X155371800Y-73558400D03*
%TO.P,J3,45,Pin_45*%
%TO.N,/D11*%
X155371800Y-71018400D03*
%TO.P,J3,46,Pin_46*%
%TO.N,GND*%
X155371800Y-68478400D03*
%TO.P,J3,47,Pin_47*%
%TO.N,/D2*%
X155371800Y-65938400D03*
%TO.P,J3,48,Pin_48*%
%TO.N,/D3*%
X155371800Y-63398400D03*
%TD*%
D14*
%TO.P,J1,1,Pin_1*%
%TO.N,/A16*%
X171348400Y-63423800D03*
D15*
%TO.P,J1,2,Pin_2*%
%TO.N,/A20*%
X171348400Y-65963800D03*
%TO.P,J1,3,Pin_3*%
%TO.N,/A21*%
X171348400Y-68503800D03*
%TO.P,J1,4,Pin_4*%
%TO.N,/A15*%
X171348400Y-71043800D03*
%TO.P,J1,5,Pin_5*%
%TO.N,/A19*%
X171348400Y-73583800D03*
%TO.P,J1,6,Pin_6*%
%TO.N,/A18*%
X171348400Y-76123800D03*
%TO.P,J1,7,Pin_7*%
%TO.N,/A17*%
X171348400Y-78663800D03*
%TO.P,J1,8,Pin_8*%
%TO.N,/F-WP1*%
X171348400Y-81203800D03*
%TO.P,J1,9,Pin_9*%
%TO.N,/A24*%
X171348400Y-83743800D03*
%TO.P,J1,10,Pin_10*%
%TO.N,/A14*%
X171348400Y-86283800D03*
%TO.P,J1,11,Pin_11*%
%TO.N,/A13*%
X171348400Y-88823800D03*
%TO.P,J1,12,Pin_12*%
%TO.N,/A12*%
X171348400Y-91363800D03*
%TO.P,J1,13,Pin_13*%
%TO.N,VPP*%
X171348400Y-93903800D03*
%TO.P,J1,14,Pin_14*%
%TO.N,/CE*%
X171348400Y-96443800D03*
%TO.P,J1,15,Pin_15*%
%TO.N,/A11*%
X171348400Y-98983800D03*
%TO.P,J1,16,Pin_16*%
%TO.N,/F-RST*%
X171348400Y-101523800D03*
%TO.P,J1,17,Pin_17*%
%TO.N,/A7*%
X171348400Y-104063800D03*
%TO.P,J1,18,Pin_18*%
%TO.N,/A8*%
X171348400Y-106603800D03*
%TO.P,J1,19,Pin_19*%
%TO.N,/A9*%
X171348400Y-109143800D03*
%TO.P,J1,20,Pin_20*%
%TO.N,/A10*%
X171348400Y-111683800D03*
%TO.P,J1,21,Pin_21*%
%TO.N,/A5*%
X171348400Y-114223800D03*
%TO.P,J1,22,Pin_22*%
%TO.N,/A6*%
X171348400Y-116763800D03*
%TO.P,J1,23,Pin_23*%
%TO.N,/A4*%
X171348400Y-119303800D03*
%TO.P,J1,24,Pin_24*%
%TO.N,/A0*%
X171348400Y-121843800D03*
%TO.P,J1,25,Pin_25*%
%TO.N,/A1*%
X186588400Y-121843800D03*
%TO.P,J1,26,Pin_26*%
%TO.N,/A2*%
X186588400Y-119303800D03*
%TO.P,J1,27,Pin_27*%
%TO.N,/A3*%
X186588400Y-116763800D03*
%TO.P,J1,28,Pin_28*%
%TO.N,/D8*%
X186588400Y-114223800D03*
%TO.P,J1,29,Pin_29*%
%TO.N,/A22*%
X186588400Y-111683800D03*
%TO.P,J1,30,Pin_30*%
%TO.N,/D1*%
X186588400Y-109143800D03*
%TO.P,J1,31,Pin_31*%
%TO.N,/D0*%
X186588400Y-106603800D03*
%TO.P,J1,32,Pin_32*%
%TO.N,/D9*%
X186588400Y-104063800D03*
%TO.P,J1,33,Pin_33*%
%TO.N,/D10*%
X186588400Y-101523800D03*
%TO.P,J1,34,Pin_34*%
%TO.N,/D2*%
X186588400Y-98983800D03*
%TO.P,J1,35,Pin_35*%
%TO.N,/D3*%
X186588400Y-96443800D03*
%TO.P,J1,36,Pin_36*%
%TO.N,/D11*%
X186588400Y-93903800D03*
%TO.P,J1,37,Pin_37*%
%TO.N,/D13*%
X186588400Y-91363800D03*
%TO.P,J1,38,Pin_38*%
%TO.N,/D5*%
X186588400Y-88823800D03*
%TO.P,J1,39,Pin_39*%
%TO.N,/D12*%
X186588400Y-86283800D03*
%TO.P,J1,40,Pin_40*%
%TO.N,/D4*%
X186588400Y-83743800D03*
%TO.P,J1,41,Pin_41*%
%TO.N,/D6*%
X186588400Y-81203800D03*
%TO.P,J1,42,Pin_42*%
%TO.N,/D7*%
X186588400Y-78663800D03*
%TO.P,J1,43,Pin_43*%
%TO.N,/D14*%
X186588400Y-76123800D03*
%TO.P,J1,44,Pin_44*%
%TO.N,/D15*%
X186588400Y-73583800D03*
%TO.P,J1,45,Pin_45*%
%TO.N,/A23*%
X186588400Y-71043800D03*
%TO.P,J1,46,Pin_46*%
%TO.N,/F-WE*%
X186588400Y-68503800D03*
%TO.P,J1,47,Pin_47*%
%TO.N,/F-OE*%
X186588400Y-65963800D03*
%TO.P,J1,48,Pin_48*%
%TO.N,unconnected-(J1-Pin_48-Pad48)*%
X186588400Y-63423800D03*
%TD*%
D11*
%TO.P,CE2,1,A*%
%TO.N,/CE*%
X175480000Y-93900000D03*
D12*
%TO.P,CE2,2,C*%
%TO.N,/F2-CE*%
X176780000Y-93900000D03*
D13*
%TO.P,CE2,3,B*%
%TO.N,VCC*%
X178080000Y-93900000D03*
%TD*%
D16*
%TO.P,J2,1,Pin_1*%
%TO.N,unconnected-(J2-Pin_1-Pad1)*%
X175691800Y-63525400D03*
D17*
%TO.P,J2,2,Pin_2*%
%TO.N,GND*%
X175691800Y-66065400D03*
%TO.P,J2,3,Pin_3*%
%TO.N,VCC*%
X175691800Y-68605400D03*
%TO.P,J2,4,Pin_4*%
%TO.N,GND*%
X175691800Y-71145400D03*
%TO.P,J2,5,Pin_5*%
%TO.N,VCC*%
X175691800Y-73685400D03*
%TO.P,J2,6,Pin_6*%
%TO.N,/ADV*%
X175691800Y-76225400D03*
%TO.P,J2,7,Pin_7*%
%TO.N,VCC*%
X175691800Y-78765400D03*
%TO.P,J2,8,Pin_8*%
%TO.N,/A25*%
X175691800Y-81305400D03*
%TD*%
D18*
%TO.P,U1,A1*%
%TO.N,N/C*%
X160287000Y-87172800D03*
%TO.P,U1,A2,A4*%
%TO.N,/A4*%
X161087000Y-87172800D03*
%TO.P,U1,A3,A6*%
%TO.N,/A6*%
X161887000Y-87172800D03*
%TO.P,U1,A4,A7*%
%TO.N,/A7*%
X162687000Y-87172800D03*
%TO.P,U1,A5,A19*%
%TO.N,/A19*%
X163487000Y-87172800D03*
%TO.P,U1,A6,A23*%
%TO.N,/A23*%
X164287000Y-87172800D03*
%TO.P,U1,A7,A24*%
%TO.N,/A24*%
X165087000Y-87172800D03*
%TO.P,U1,A8,A25*%
%TO.N,/A25*%
X165887000Y-87172800D03*
%TO.P,U1,A9*%
%TO.N,N/C*%
X166687000Y-87172800D03*
%TO.P,U1,B1,A2*%
%TO.N,/A2*%
X160287000Y-87972800D03*
%TO.P,U1,B2,A3*%
%TO.N,/A3*%
X161087000Y-87972800D03*
%TO.P,U1,B3,A5*%
%TO.N,/A5*%
X161887000Y-87972800D03*
%TO.P,U1,B4,A17*%
%TO.N,/A17*%
X162687000Y-87972800D03*
%TO.P,U1,B5,A18*%
%TO.N,/A18*%
X163487000Y-87972800D03*
%TO.P,U1,B6,F-DPD*%
%TO.N,VCC*%
X164287000Y-87972800D03*
%TO.P,U1,B7,A22*%
%TO.N,/A22*%
X165087000Y-87972800D03*
%TO.P,U1,B8,A26*%
%TO.N,GND*%
X165887000Y-87972800D03*
%TO.P,U1,B9,A16*%
%TO.N,/A16*%
X166687000Y-87972800D03*
%TO.P,U1,C1,A1*%
%TO.N,/A1*%
X160287000Y-88772800D03*
%TO.P,U1,C2,VSS*%
%TO.N,GND*%
X161087000Y-88772800D03*
%TO.P,U1,C3,VSS*%
X161887000Y-88772800D03*
%TO.P,U1,C4,VSS*%
X162687000Y-88772800D03*
%TO.P,U1,C5,D-VCC*%
%TO.N,VCC*%
X163487000Y-88772800D03*
%TO.P,U1,C6,VSS*%
%TO.N,GND*%
X164287000Y-88772800D03*
%TO.P,U1,C7,VSS*%
X165087000Y-88772800D03*
%TO.P,U1,C8,VSS*%
X165887000Y-88772800D03*
%TO.P,U1,C9,A15*%
%TO.N,/A15*%
X166687000Y-88772800D03*
%TO.P,U1,D1,A0*%
%TO.N,/A0*%
X160287000Y-89572800D03*
%TO.P,U1,D2,S-VCC*%
%TO.N,VCC*%
X161087000Y-89572800D03*
%TO.P,U1,D3,D-VCC*%
X161887000Y-89572800D03*
%TO.P,U1,D4,F1-VCC*%
X162687000Y-89572800D03*
%TO.P,U1,D5,~{ADV}*%
%TO.N,/ADV*%
X163487000Y-89572800D03*
%TO.P,U1,D6,F2-VCC*%
%TO.N,VCC*%
X164287000Y-89572800D03*
%TO.P,U1,D7,D-VCC*%
X165087000Y-89572800D03*
%TO.P,U1,D8,N-ALE*%
%TO.N,/ALE*%
X165887000Y-89572800D03*
%TO.P,U1,D9,A14*%
%TO.N,/A14*%
X166687000Y-89572800D03*
%TO.P,U1,E1,F-~{WP1}*%
%TO.N,/F-WP1*%
X160287000Y-90372800D03*
%TO.P,U1,E2,~{WE}*%
%TO.N,/F-WE*%
X161087000Y-90372800D03*
%TO.P,U1,E3,D2-~{CS}*%
%TO.N,VCC*%
X161887000Y-90372800D03*
%TO.P,U1,E5,N-CLE*%
%TO.N,/CLE*%
X163487000Y-90372800D03*
%TO.P,U1,E6,F4-~{CE}/A27*%
%TO.N,/F4-CE*%
X164287000Y-90372800D03*
%TO.P,U1,E7,A21*%
%TO.N,/A21*%
X165087000Y-90372800D03*
%TO.P,U1,E8,A10*%
%TO.N,/A10*%
X165887000Y-90372800D03*
%TO.P,U1,E9,A13*%
%TO.N,/A13*%
X166687000Y-90372800D03*
%TO.P,U1,F1,F-~{WP2}*%
%TO.N,/N-WP2*%
X160287000Y-91172800D03*
%TO.P,U1,F2,D1-~{CS}*%
%TO.N,VCC*%
X161087000Y-91172800D03*
%TO.P,U1,F3,D-~{CAS}*%
X161887000Y-91172800D03*
%TO.P,U1,F4,D-~{RAS}*%
X162687000Y-91172800D03*
%TO.P,U1,F6,N-~{RE}/S-~{CS1}*%
%TO.N,/N-RE*%
X164287000Y-91172800D03*
%TO.P,U1,F7,A20*%
%TO.N,/A20*%
X165087000Y-91172800D03*
%TO.P,U1,F8,A9*%
%TO.N,/A9*%
X165887000Y-91172800D03*
%TO.P,U1,F9,A12*%
%TO.N,/A12*%
X166687000Y-91172800D03*
%TO.P,U1,G1,N/C*%
%TO.N,unconnected-(U1-N{slash}C-PadG1)*%
X160287000Y-91972800D03*
%TO.P,U1,G2,F2-~{CE}*%
%TO.N,/F2-CE*%
X161087000Y-91972800D03*
%TO.P,U1,G3,F1-~{CE}*%
%TO.N,/F1-CE*%
X161887000Y-91972800D03*
%TO.P,U1,G4,D-BA0*%
%TO.N,GND*%
X162687000Y-91972800D03*
%TO.P,U1,G6,D-CKE*%
X164287000Y-91972800D03*
%TO.P,U1,G7,F-~{RST}*%
%TO.N,/F-RST*%
X165087000Y-91972800D03*
%TO.P,U1,G8,A8*%
%TO.N,/A8*%
X165887000Y-91972800D03*
%TO.P,U1,G9,A11*%
%TO.N,/A11*%
X166687000Y-91972800D03*
%TO.P,U1,H1,N-RY/~{BY}*%
%TO.N,/N-RY{slash}BY*%
X160287000Y-92772800D03*
%TO.P,U1,H2,N-~{WE}/S-CS2*%
%TO.N,/N-WE*%
X161087000Y-92772800D03*
%TO.P,U1,H3,F3-~{CE}*%
%TO.N,/F3-CE*%
X161887000Y-92772800D03*
%TO.P,U1,H4,D-BA1*%
%TO.N,GND*%
X162687000Y-92772800D03*
%TO.P,U1,H5,D-~{CLK}*%
X163487000Y-92772800D03*
%TO.P,U1,H6,D-~{WE}*%
%TO.N,VCC*%
X164287000Y-92772800D03*
%TO.P,U1,H7,~{OE}*%
%TO.N,/F-OE*%
X165087000Y-92772800D03*
%TO.P,U1,H8,D-DM1/R-~{UB}*%
%TO.N,GND*%
X165887000Y-92772800D03*
%TO.P,U1,H9,D-DM0/R-~{LB}*%
%TO.N,VCC*%
X166687000Y-92772800D03*
%TO.P,U1,J1,F-VPP*%
%TO.N,VPP*%
X160287000Y-93572800D03*
%TO.P,U1,J2,VCCQ*%
%TO.N,VCC*%
X161087000Y-93572800D03*
%TO.P,U1,J3,VCCQ*%
X161887000Y-93572800D03*
%TO.P,U1,J4,F1-VCC*%
X162687000Y-93572800D03*
%TO.P,U1,J5,D-CLK*%
%TO.N,GND*%
X163487000Y-93572800D03*
%TO.P,U1,J6,F2-VCC*%
%TO.N,VCC*%
X164287000Y-93572800D03*
%TO.P,U1,J7,VCCQ*%
X165087000Y-93572800D03*
%TO.P,U1,J8,VCCQ*%
X165887000Y-93572800D03*
%TO.P,U1,J9,F-WAIT*%
%TO.N,unconnected-(U1-F-WAIT-PadJ9)*%
X166687000Y-93572800D03*
%TO.P,U1,K1,AD2/DQ2*%
%TO.N,/D2*%
X160287000Y-94372800D03*
%TO.P,U1,K2,VSS*%
%TO.N,GND*%
X161087000Y-94372800D03*
%TO.P,U1,K3,VSS*%
X161887000Y-94372800D03*
%TO.P,U1,K4,VSS*%
X162687000Y-94372800D03*
%TO.P,U1,K5,F-CLK*%
%TO.N,VCC*%
X163487000Y-94372800D03*
%TO.P,U1,K6,VSS*%
%TO.N,GND*%
X164287000Y-94372800D03*
%TO.P,U1,K7,VSS*%
X165087000Y-94372800D03*
%TO.P,U1,K8,VSS*%
X165887000Y-94372800D03*
%TO.P,U1,K9,DQ13*%
%TO.N,/D13*%
X166687000Y-94372800D03*
%TO.P,U1,L1,AD1/DQ1*%
%TO.N,/D1*%
X160287000Y-95172800D03*
%TO.P,U1,L2,AD3/DQ3*%
%TO.N,/D3*%
X161087000Y-95172800D03*
%TO.P,U1,L3,AD5/DQ5*%
%TO.N,/D5*%
X161887000Y-95172800D03*
%TO.P,U1,L4,AD6/DQ6*%
%TO.N,/D6*%
X162687000Y-95172800D03*
%TO.P,U1,L5,AD7/DQ7*%
%TO.N,/D7*%
X163487000Y-95172800D03*
%TO.P,U1,L6,DQ9*%
%TO.N,/D9*%
X164287000Y-95172800D03*
%TO.P,U1,L7,DQ11*%
%TO.N,/D11*%
X165087000Y-95172800D03*
%TO.P,U1,L8,DQ12*%
%TO.N,/D12*%
X165887000Y-95172800D03*
%TO.P,U1,L9,DQ14*%
%TO.N,/D14*%
X166687000Y-95172800D03*
%TO.P,U1,M1*%
%TO.N,N/C*%
X160287000Y-95972800D03*
%TO.P,U1,M2,AD0/DQ0*%
%TO.N,/D0*%
X161087000Y-95972800D03*
%TO.P,U1,M3,D-LDQS*%
%TO.N,unconnected-(U1-D-LDQS-PadM3)*%
X161887000Y-95972800D03*
%TO.P,U1,M4,AD4/DQ4*%
%TO.N,/D4*%
X162687000Y-95972800D03*
%TO.P,U1,M5,DQ8*%
%TO.N,/D8*%
X163487000Y-95972800D03*
%TO.P,U1,M6,DQ10*%
%TO.N,/D10*%
X164287000Y-95972800D03*
%TO.P,U1,M7,D-UDQS*%
%TO.N,unconnected-(U1-D-UDQS-PadM7)*%
X165087000Y-95972800D03*
%TO.P,U1,M8,DQ15*%
%TO.N,/D15*%
X165887000Y-95972800D03*
%TO.P,U1,M9*%
%TO.N,N/C*%
X166687000Y-95972800D03*
%TD*%
D19*
%TO.P,C1,1*%
%TO.N,VCC*%
X166590000Y-84727500D03*
%TO.P,C1,2*%
%TO.N,GND*%
X166590000Y-82652500D03*
%TD*%
D11*
%TO.P,CE3,1,A*%
%TO.N,/CE*%
X149975000Y-98172500D03*
D12*
%TO.P,CE3,2,C*%
%TO.N,/F3-CE*%
X151275000Y-98172500D03*
D13*
%TO.P,CE3,3,B*%
%TO.N,VCC*%
X152575000Y-98172500D03*
%TD*%
D11*
%TO.P,CE1,1,A*%
%TO.N,/CE*%
X175480000Y-87010000D03*
D12*
%TO.P,CE1,2,C*%
%TO.N,/F1-CE*%
X176780000Y-87010000D03*
D13*
%TO.P,CE1,3,B*%
%TO.N,VCC*%
X178080000Y-87010000D03*
%TD*%
D20*
%TO.N,/D15*%
X163960000Y-70385500D03*
X150410000Y-67803500D03*
X163960836Y-64099800D03*
%TO.N,/D14*%
X163484213Y-64353800D03*
%TO.N,/D7*%
X163010000Y-64607800D03*
%TO.N,/A19*%
X172804500Y-77053800D03*
%TO.N,/D6*%
X160093520Y-64386480D03*
%TO.N,/D13*%
X158180000Y-64754400D03*
%TO.N,/D12*%
X158545500Y-65200000D03*
%TO.N,/D5*%
X159976203Y-67071400D03*
%TO.N,/A22*%
X175119765Y-102010235D03*
%TO.N,/ALE*%
X165500000Y-89960000D03*
%TO.N,GND*%
X156360000Y-95170000D03*
%TO.N,/A23*%
X178445500Y-83369795D03*
%TO.N,/D15*%
X165500000Y-94820000D03*
%TO.N,VCC*%
X152480000Y-97010000D03*
%TO.N,/CE*%
X160236868Y-97893132D03*
X169540513Y-100440500D03*
%TO.N,/F4-CE*%
X159876868Y-97533132D03*
%TO.N,/F3-CE*%
X159615500Y-97134113D03*
X161480000Y-92380000D03*
%TO.N,/N-RY{slash}BY*%
X152910148Y-85819852D03*
%TO.N,/N-WE*%
X153434945Y-85827752D03*
%TO.N,/N-WP2*%
X156985000Y-86988104D03*
%TO.N,/ADV*%
X164106500Y-86520000D03*
X163098949Y-89126500D03*
%TO.N,/CE*%
X175480000Y-96430000D03*
%TO.N,/F1-CE*%
X176097646Y-85717647D03*
X161460000Y-90710000D03*
%TO.N,/F2-CE*%
X176760000Y-100530000D03*
X159250000Y-92400000D03*
%TO.N,/A7*%
X158635582Y-88361008D03*
%TO.N,/F4-CE*%
X163080000Y-92350000D03*
%TO.N,/D10*%
X164287000Y-97179500D03*
%TO.N,/D7*%
X163880000Y-94790000D03*
%TO.N,/A3*%
X158616993Y-88896493D03*
%TO.N,/D6*%
X163079800Y-94780000D03*
%TO.N,/A6*%
X159270000Y-87570000D03*
%TO.N,/A2*%
X158600500Y-89373210D03*
%TO.N,/D2*%
X163007226Y-96462542D03*
%TO.N,/A14*%
X169237398Y-87589500D03*
%TO.N,/D11*%
X173074500Y-95410187D03*
%TO.N,/A0*%
X160660000Y-88360000D03*
%TO.N,/A4*%
X159581414Y-87197523D03*
%TO.N,/D8*%
X173070000Y-102196500D03*
%TO.N,/A20*%
X165533303Y-91537197D03*
%TO.N,VPP*%
X161470000Y-94763300D03*
%TO.N,/D3*%
X162290000Y-95560000D03*
%TO.N,/D9*%
X173328500Y-99870000D03*
%TO.N,/D5*%
X162299627Y-94765500D03*
%TO.N,/F-WE*%
X162280000Y-90000000D03*
%TO.N,/A21*%
X165490000Y-90770000D03*
%TO.N,/F-OE*%
X168163843Y-91403843D03*
%TO.N,/A16*%
X174083673Y-83933223D03*
%TO.N,/A1*%
X158600500Y-89875535D03*
%TO.N,/D1*%
X173756500Y-101530000D03*
%TO.N,/D4*%
X163900000Y-95570000D03*
%TO.N,/A5*%
X158905500Y-87967720D03*
%TO.N,/D14*%
X166280232Y-94766032D03*
%TO.N,/D13*%
X173074500Y-94933184D03*
%TO.N,/A15*%
X168787606Y-87005500D03*
%TO.N,/D12*%
X168498843Y-94658843D03*
%TO.N,/F-WP1*%
X161480000Y-89182300D03*
%TO.N,GND*%
X162310000Y-93970000D03*
X164670000Y-93180000D03*
X167620000Y-82640000D03*
X164687100Y-88372800D03*
X163092600Y-93167200D03*
X162280000Y-88360000D03*
X165480000Y-93970000D03*
%TO.N,/N-RE*%
X163867223Y-91557223D03*
%TO.N,/CLE*%
X162252500Y-90807300D03*
%TO.N,/D0*%
X173756500Y-101052997D03*
%TD*%
D21*
%TO.N,VCC*%
X166622500Y-84760000D02*
X166596800Y-84734300D01*
X172454450Y-84670076D02*
X172364526Y-84760000D01*
X172454450Y-84666430D02*
X172454450Y-84670076D01*
X174651300Y-79805900D02*
X174651300Y-82473226D01*
X172827726Y-84296800D02*
X172824080Y-84296800D01*
X172824080Y-84296800D02*
X172454450Y-84666430D01*
X174651300Y-82473226D02*
X172827726Y-84296800D01*
X175691800Y-78765400D02*
X174651300Y-79805900D01*
X172364526Y-84760000D02*
X166622500Y-84760000D01*
X157678500Y-93971000D02*
X157690000Y-93982500D01*
X157067105Y-90509969D02*
X157678500Y-91121364D01*
X157678500Y-91121364D02*
X157678500Y-93971000D01*
X157067105Y-90493705D02*
X157067105Y-90509969D01*
X155371800Y-88798400D02*
X157067105Y-90493705D01*
D22*
%TO.N,/D11*%
X165087000Y-95420549D02*
X165087000Y-95172800D01*
X165477500Y-95811049D02*
X165087000Y-95420549D01*
X165477500Y-96115551D02*
X165477500Y-95811049D01*
X167572700Y-96617300D02*
X165979249Y-96617300D01*
X169220000Y-94970000D02*
X167572700Y-96617300D01*
X172594420Y-94970000D02*
X169220000Y-94970000D01*
X173034607Y-95410187D02*
X172594420Y-94970000D01*
X165979249Y-96617300D02*
X165477500Y-96115551D01*
X173074500Y-95410187D02*
X173034607Y-95410187D01*
%TO.N,/D9*%
X164687000Y-95572800D02*
X164287000Y-95172800D01*
X166601159Y-100880000D02*
X164687000Y-98965841D01*
X170466211Y-100460000D02*
X170046211Y-100880000D01*
X164687000Y-98965841D02*
X164687000Y-95572800D01*
X172262979Y-99870000D02*
X171672979Y-100460000D01*
X170046211Y-100880000D02*
X166601159Y-100880000D01*
X173328500Y-99870000D02*
X172262979Y-99870000D01*
X171672979Y-100460000D02*
X170466211Y-100460000D01*
%TO.N,/CE*%
X169540513Y-100440500D02*
X169540513Y-98251687D01*
X169540513Y-98251687D02*
X171348400Y-96443800D01*
%TO.N,/F2-CE*%
X176780000Y-100510000D02*
X176780000Y-93900000D01*
X176760000Y-100530000D02*
X176780000Y-100510000D01*
%TO.N,/D0*%
X161087000Y-96084261D02*
X161087000Y-95972800D01*
X167771039Y-102768300D02*
X161087000Y-96084261D01*
X173015096Y-102768300D02*
X167771039Y-102768300D01*
X173435500Y-101745500D02*
X173435500Y-102347896D01*
X173310000Y-101620000D02*
X173435500Y-101745500D01*
X173435500Y-102347896D02*
X173015096Y-102768300D01*
X173477003Y-101052997D02*
X173310000Y-101220000D01*
X173310000Y-101220000D02*
X173310000Y-101620000D01*
X173756500Y-101052997D02*
X173477003Y-101052997D01*
%TO.N,/D1*%
X160677500Y-95811049D02*
X160287000Y-95420549D01*
X160677500Y-96267500D02*
X160677500Y-95811049D01*
X167432300Y-103022300D02*
X160677500Y-96267500D01*
X173120306Y-103022300D02*
X167432300Y-103022300D01*
X173756500Y-102386106D02*
X173120306Y-103022300D01*
X160287000Y-95420549D02*
X160287000Y-95172800D01*
X173756500Y-101530000D02*
X173756500Y-102386106D01*
%TO.N,/A22*%
X165496500Y-87813500D02*
X165337200Y-87972800D01*
X165727549Y-87580000D02*
X165496500Y-87811049D01*
X166090000Y-87580000D02*
X165727549Y-87580000D01*
X165337200Y-87972800D02*
X165087000Y-87972800D01*
X166480000Y-88380000D02*
X166290000Y-88190000D01*
X166290000Y-87780000D02*
X166090000Y-87580000D01*
X166870000Y-88380000D02*
X166480000Y-88380000D01*
X168610000Y-86640000D02*
X166870000Y-88380000D01*
X169930000Y-86640000D02*
X168610000Y-86640000D01*
X166290000Y-88190000D02*
X166290000Y-87780000D01*
X169957900Y-86667900D02*
X169930000Y-86640000D01*
X172684300Y-87274300D02*
X170538121Y-87274300D01*
X169957900Y-86694079D02*
X169957900Y-86667900D01*
X174710000Y-89300000D02*
X172684300Y-87274300D01*
X175119765Y-100215165D02*
X174710000Y-99805400D01*
X175119765Y-102010235D02*
X175119765Y-100215165D01*
X174710000Y-99805400D02*
X174710000Y-89300000D01*
X170538121Y-87274300D02*
X169957900Y-86694079D01*
X165496500Y-87811049D02*
X165496500Y-87813500D01*
%TO.N,/F-RST*%
X166048751Y-92363300D02*
X165725249Y-92363300D01*
X166280630Y-92131421D02*
X166048751Y-92363300D01*
X166280630Y-91809370D02*
X166280630Y-92131421D01*
X165334749Y-91972800D02*
X165087000Y-91972800D01*
X166526700Y-91563300D02*
X166280630Y-91809370D01*
X167059648Y-91563300D02*
X166526700Y-91563300D01*
X170450000Y-92380000D02*
X168809106Y-90739106D01*
X165725249Y-92363300D02*
X165334749Y-91972800D01*
X172370000Y-92380000D02*
X170450000Y-92380000D01*
X168809106Y-90739106D02*
X167883842Y-90739106D01*
X173694000Y-93704000D02*
X172370000Y-92380000D01*
X173694000Y-100126000D02*
X173694000Y-93704000D01*
X172296200Y-101523800D02*
X173694000Y-100126000D01*
X167883842Y-90739106D02*
X167059648Y-91563300D01*
X171348400Y-101523800D02*
X172296200Y-101523800D01*
%TO.N,VCC*%
X145211800Y-88798400D02*
X155371800Y-88798400D01*
X140131800Y-83718400D02*
X145211800Y-88798400D01*
X166544000Y-93136000D02*
X166544000Y-92915800D01*
X166262700Y-93417300D02*
X166544000Y-93136000D01*
X166042500Y-93417300D02*
X166262700Y-93417300D01*
X165887000Y-93572800D02*
X166042500Y-93417300D01*
X166544000Y-92915800D02*
X166687000Y-92772800D01*
%TO.N,GND*%
X164925249Y-92382300D02*
X164696500Y-92611049D01*
X165248751Y-92382300D02*
X164925249Y-92382300D01*
X164696500Y-92611049D02*
X164696500Y-93153500D01*
X164696500Y-93153500D02*
X164670000Y-93180000D01*
X165887000Y-92772800D02*
X165639251Y-92772800D01*
X165639251Y-92772800D02*
X165248751Y-92382300D01*
%TO.N,/D8*%
X184943900Y-100597720D02*
X184943900Y-112579300D01*
X179471905Y-95125725D02*
X184943900Y-100597720D01*
X178712790Y-75234900D02*
X179471905Y-75994015D01*
X184943900Y-112579300D02*
X186588400Y-114223800D01*
X167998121Y-75133300D02*
X173683300Y-75133300D01*
X159413021Y-83718400D02*
X167998121Y-75133300D01*
X173683300Y-75133300D02*
X173784900Y-75234900D01*
X155371800Y-83718400D02*
X159413021Y-83718400D01*
X179471905Y-75994015D02*
X179471905Y-95125725D01*
X173784900Y-75234900D02*
X178712790Y-75234900D01*
%TO.N,/D15*%
X161640480Y-70385500D02*
X163960000Y-70385500D01*
X160723880Y-69468900D02*
X161640480Y-70385500D01*
X152075400Y-69468900D02*
X160723880Y-69468900D01*
X150410000Y-67803500D02*
X152075400Y-69468900D01*
X165627336Y-62433300D02*
X163960836Y-64099800D01*
X175638400Y-62433300D02*
X171150000Y-62433300D01*
X175740000Y-62534900D02*
X175638400Y-62433300D01*
X177759930Y-62534900D02*
X175740000Y-62534900D01*
X171150000Y-62433300D02*
X165627336Y-62433300D01*
X183281905Y-68056875D02*
X182662515Y-67437485D01*
X183281905Y-70277305D02*
X183281905Y-68056875D01*
X182662515Y-67437485D02*
X177759930Y-62534900D01*
X186588400Y-73583800D02*
X183281905Y-70277305D01*
%TO.N,/D13*%
X181503905Y-86279305D02*
X186588400Y-91363800D01*
X174215320Y-69646900D02*
X177431226Y-69646900D01*
X161826910Y-69494300D02*
X174062720Y-69494300D01*
X181503905Y-73719579D02*
X181503905Y-86279305D01*
X158180000Y-65847390D02*
X161826910Y-69494300D01*
X177431226Y-69646900D02*
X181503905Y-73719579D01*
X158180000Y-64754400D02*
X158180000Y-65847390D01*
X174062720Y-69494300D02*
X174215320Y-69646900D01*
%TO.N,/D5*%
X179790420Y-67614900D02*
X181757905Y-69582385D01*
X173894900Y-67614900D02*
X179790420Y-67614900D01*
X181757905Y-83993305D02*
X186588400Y-88823800D01*
X173793300Y-67513300D02*
X173894900Y-67614900D01*
X181757905Y-69582385D02*
X181757905Y-83993305D01*
X160418103Y-67513300D02*
X173793300Y-67513300D01*
X159976203Y-67071400D02*
X160418103Y-67513300D01*
%TO.N,/D14*%
X168730000Y-64465300D02*
X163595713Y-64465300D01*
X172369099Y-64465300D02*
X168730000Y-64465300D01*
X163595713Y-64465300D02*
X163484213Y-64353800D01*
X172470699Y-64566900D02*
X172369099Y-64465300D01*
X175900000Y-64566900D02*
X172470699Y-64566900D01*
X179432720Y-64566900D02*
X175900000Y-64566900D01*
X182177910Y-67312090D02*
X179432720Y-64566900D01*
%TO.N,/D7*%
X172263889Y-64719300D02*
X163121500Y-64719300D01*
X172365489Y-64820900D02*
X172263889Y-64719300D01*
X182773905Y-74849305D02*
X182773905Y-68267295D01*
X182773905Y-68267295D02*
X179327510Y-64820900D01*
X179327510Y-64820900D02*
X172365489Y-64820900D01*
X163121500Y-64719300D02*
X163010000Y-64607800D01*
X186588400Y-78663800D02*
X182773905Y-74849305D01*
%TO.N,/D14*%
X183027905Y-68162085D02*
X182177910Y-67312090D01*
X183027905Y-72563305D02*
X183027905Y-68162085D01*
X186588400Y-76123800D02*
X183027905Y-72563305D01*
%TO.N,/D12*%
X186188400Y-86283800D02*
X186588400Y-86283800D01*
X174000110Y-67360900D02*
X179895630Y-67360900D01*
X173898510Y-67259300D02*
X174000110Y-67360900D01*
X182011905Y-69477175D02*
X182011905Y-82107305D01*
X182011905Y-82107305D02*
X186188400Y-86283800D01*
X179895630Y-67360900D02*
X182011905Y-69477175D01*
X160829300Y-67259300D02*
X173898510Y-67259300D01*
X158770000Y-65200000D02*
X160829300Y-67259300D01*
X158545500Y-65200000D02*
X158770000Y-65200000D01*
%TO.N,/D6*%
X182519905Y-77135305D02*
X186588400Y-81203800D01*
X172158679Y-64973300D02*
X172260279Y-65074900D01*
X160093520Y-64386480D02*
X160680340Y-64973300D01*
X179222300Y-65074900D02*
X182519905Y-68372505D01*
X182519905Y-68372505D02*
X182519905Y-77135305D01*
X160680340Y-64973300D02*
X172158679Y-64973300D01*
X172260279Y-65074900D02*
X179222300Y-65074900D01*
%TO.N,/D4*%
X141122300Y-62407900D02*
X140131800Y-63398400D01*
X157598044Y-62407900D02*
X141122300Y-62407900D01*
X174105320Y-67106900D02*
X174003720Y-67005300D01*
X182265905Y-69371965D02*
X180000840Y-67106900D01*
X174003720Y-67005300D02*
X162195444Y-67005300D01*
X182265905Y-79821305D02*
X182265905Y-69371965D01*
X162195444Y-67005300D02*
X157598044Y-62407900D01*
X186188400Y-83743800D02*
X182265905Y-79821305D01*
X186588400Y-83743800D02*
X186188400Y-83743800D01*
X180000840Y-67106900D02*
X174105320Y-67106900D01*
%TO.N,/D9*%
X187978900Y-102673300D02*
X186588400Y-104063800D01*
X187398679Y-100533300D02*
X187978900Y-101113521D01*
X187978900Y-101113521D02*
X187978900Y-102673300D01*
X185957110Y-100533300D02*
X187398679Y-100533300D01*
X178654900Y-72694900D02*
X180233905Y-74273905D01*
X173854900Y-72694900D02*
X178654900Y-72694900D01*
X180233905Y-94810095D02*
X185957110Y-100533300D01*
X173753300Y-72593300D02*
X173854900Y-72694900D01*
X161745910Y-72593300D02*
X173753300Y-72593300D01*
X155371800Y-76098400D02*
X158240810Y-76098400D01*
X180233905Y-74273905D02*
X180233905Y-94810095D01*
X158240810Y-76098400D02*
X161745910Y-72593300D01*
%TO.N,/D11*%
X178865320Y-72186900D02*
X180741905Y-74063485D01*
X173958420Y-72080000D02*
X174065320Y-72186900D01*
X174065320Y-72186900D02*
X178865320Y-72186900D01*
X180741905Y-88057305D02*
X186588400Y-93903800D01*
X161730000Y-72080000D02*
X173958420Y-72080000D01*
X160668400Y-71018400D02*
X161730000Y-72080000D01*
X180741905Y-74063485D02*
X180741905Y-88057305D01*
X155371800Y-71018400D02*
X160668400Y-71018400D01*
%TO.N,/D1*%
X188232900Y-107499300D02*
X186588400Y-109143800D01*
X186062320Y-100279300D02*
X187503889Y-100279300D01*
X188232900Y-101008311D02*
X188232900Y-107499300D01*
X180487905Y-94704885D02*
X186062320Y-100279300D01*
X180487905Y-74168695D02*
X180487905Y-94704885D01*
X187503889Y-100279300D02*
X188232900Y-101008311D01*
X178760110Y-72440900D02*
X180487905Y-74168695D01*
X173960110Y-72440900D02*
X178760110Y-72440900D01*
X173858510Y-72339300D02*
X173960110Y-72440900D01*
X160421600Y-73558400D02*
X161640700Y-72339300D01*
X155371800Y-73558400D02*
X160421600Y-73558400D01*
X161640700Y-72339300D02*
X173858510Y-72339300D01*
%TO.N,/D2*%
X185150000Y-96010000D02*
X185150000Y-97545400D01*
X185706700Y-95453300D02*
X185150000Y-96010000D01*
X187990000Y-94861979D02*
X187398679Y-95453300D01*
X187990000Y-93504621D02*
X187990000Y-94861979D01*
X185150000Y-97545400D02*
X186588400Y-98983800D01*
X185957110Y-92913300D02*
X187398679Y-92913300D01*
X187398679Y-92913300D02*
X187990000Y-93504621D01*
X180995905Y-73930000D02*
X180995905Y-87952095D01*
X177220805Y-70154900D02*
X180995905Y-73930000D01*
X180995905Y-87952095D02*
X185957110Y-92913300D01*
X174004900Y-70154900D02*
X177220805Y-70154900D01*
X173870000Y-70020000D02*
X174004900Y-70154900D01*
X157552590Y-65938400D02*
X161634190Y-70020000D01*
X155371800Y-65938400D02*
X157552590Y-65938400D01*
X187398679Y-95453300D02*
X185706700Y-95453300D01*
X161634190Y-70020000D02*
X173870000Y-70020000D01*
%TO.N,/D3*%
X186767389Y-96443800D02*
X186588400Y-96443800D01*
X188244000Y-94967189D02*
X186767389Y-96443800D01*
X188244000Y-93399411D02*
X188244000Y-94967189D01*
X187503889Y-92659300D02*
X188244000Y-93399411D01*
X186062320Y-92659300D02*
X187503889Y-92659300D01*
X181249905Y-73824789D02*
X181249905Y-87846885D01*
X174110110Y-69900900D02*
X177326016Y-69900900D01*
X173975210Y-69766000D02*
X174110110Y-69900900D01*
X161739400Y-69766000D02*
X173975210Y-69766000D01*
X155371800Y-63398400D02*
X161739400Y-69766000D01*
X177326016Y-69900900D02*
X181249905Y-73824789D01*
X181249905Y-87846885D02*
X186062320Y-92659300D01*
%TO.N,/A18*%
X163096500Y-87352499D02*
X163096500Y-81835700D01*
X163179775Y-87435774D02*
X163096500Y-87352499D01*
X163096500Y-81835700D02*
X168808400Y-76123800D01*
X163487000Y-87972800D02*
X163487000Y-87743000D01*
X163487000Y-87743000D02*
X163179775Y-87435774D01*
X168808400Y-76123800D02*
X171348400Y-76123800D01*
%TO.N,/A19*%
X172693000Y-77165300D02*
X172804500Y-77053800D01*
X169140000Y-77165300D02*
X172693000Y-77165300D01*
X168126110Y-77165300D02*
X169140000Y-77165300D01*
X163487000Y-81804410D02*
X168126110Y-77165300D01*
X163487000Y-87172800D02*
X163487000Y-81804410D01*
%TO.N,/ADV*%
X174497900Y-77419300D02*
X175691800Y-76225400D01*
X164106500Y-81544120D02*
X168231320Y-77419300D01*
X168231320Y-77419300D02*
X174497900Y-77419300D01*
X164106500Y-86520000D02*
X164106500Y-81544120D01*
%TO.N,/A23*%
X164579000Y-86651000D02*
X164287000Y-86943000D01*
X164579000Y-81430830D02*
X164579000Y-86651000D01*
X164287000Y-86943000D02*
X164287000Y-87172800D01*
X176071190Y-77673300D02*
X168336530Y-77673300D01*
X178445500Y-80047610D02*
X176071190Y-77673300D01*
X178445500Y-83369795D02*
X178445500Y-80047610D01*
X168336530Y-77673300D02*
X164579000Y-81430830D01*
%TO.N,/D10*%
X179979905Y-94915305D02*
X186588400Y-101523800D01*
X179979905Y-75783595D02*
X179979905Y-94915305D01*
X167787701Y-74625300D02*
X173893720Y-74625300D01*
X178923210Y-74726900D02*
X179979905Y-75783595D01*
X163774601Y-78638400D02*
X167787701Y-74625300D01*
X173893720Y-74625300D02*
X173995320Y-74726900D01*
X155371800Y-78638400D02*
X163774601Y-78638400D01*
X173995320Y-74726900D02*
X178923210Y-74726900D01*
%TO.N,/D0*%
X185197900Y-104474079D02*
X186588400Y-105864579D01*
X185197900Y-100492510D02*
X185197900Y-104474079D01*
X186588400Y-105864579D02*
X186588400Y-106603800D01*
X173890110Y-74980900D02*
X178818000Y-74980900D01*
X173788510Y-74879300D02*
X173890110Y-74980900D01*
X179725905Y-95020515D02*
X185197900Y-100492510D01*
X179725905Y-75888805D02*
X179725905Y-95020515D01*
X167892911Y-74879300D02*
X173788510Y-74879300D01*
X161593811Y-81178400D02*
X167892911Y-74879300D01*
X178818000Y-74980900D02*
X179725905Y-75888805D01*
X155371800Y-81178400D02*
X161593811Y-81178400D01*
%TO.N,/N-WE*%
X160448751Y-92382300D02*
X160839251Y-92772800D01*
X159784596Y-92382300D02*
X160448751Y-92382300D01*
X159098604Y-92765500D02*
X159401396Y-92765500D01*
X158198000Y-91864896D02*
X159098604Y-92765500D01*
X158198000Y-90906180D02*
X158198000Y-91864896D01*
X160839251Y-92772800D02*
X161087000Y-92772800D01*
X157586605Y-90294785D02*
X158198000Y-90906180D01*
X156728900Y-87248900D02*
X157586605Y-88106605D01*
X159401396Y-92765500D02*
X159784596Y-92382300D01*
X154561521Y-87248900D02*
X156728900Y-87248900D01*
X153754000Y-86441379D02*
X154561521Y-87248900D01*
X157586605Y-88106605D02*
X157586605Y-90294785D01*
X153754000Y-86304494D02*
X153754000Y-86441379D01*
X153434945Y-85985439D02*
X153754000Y-86304494D01*
X153434945Y-85827752D02*
X153434945Y-85985439D01*
%TO.N,/N-RY{slash}BY*%
X159753306Y-92772800D02*
X160287000Y-92772800D01*
X159506606Y-93019500D02*
X159753306Y-92772800D01*
X158993394Y-93019500D02*
X159506606Y-93019500D01*
X157944000Y-91970106D02*
X158993394Y-93019500D01*
X157944000Y-91011390D02*
X157944000Y-91970106D01*
X157332605Y-90399995D02*
X157944000Y-91011390D01*
X154456311Y-87502900D02*
X156522900Y-87502900D01*
X153500000Y-86546589D02*
X154456311Y-87502900D01*
X157332605Y-88312605D02*
X157332605Y-90399995D01*
X153500000Y-86409704D02*
X153500000Y-86546589D01*
X156522900Y-87502900D02*
X157332605Y-88312605D01*
X152910148Y-85819852D02*
X153500000Y-86409704D01*
%TO.N,/F-OE*%
X165477500Y-93163300D02*
X165087000Y-92772800D01*
X166048751Y-93163300D02*
X165477500Y-93163300D01*
X166290000Y-92922051D02*
X166048751Y-93163300D01*
X166290000Y-92598549D02*
X166290000Y-92922051D01*
X167204386Y-92363300D02*
X166525249Y-92363300D01*
X166525249Y-92363300D02*
X166290000Y-92598549D01*
X168163843Y-91403843D02*
X167204386Y-92363300D01*
%TO.N,/A11*%
X172786200Y-98983800D02*
X171348400Y-98983800D01*
X173440000Y-93809210D02*
X173440000Y-98330000D01*
X172264790Y-92634000D02*
X173440000Y-93809210D01*
X168703896Y-90993106D02*
X170344790Y-92634000D01*
X173440000Y-98330000D02*
X172786200Y-98983800D01*
X167989052Y-90993106D02*
X168703896Y-90993106D01*
X167009358Y-91972800D02*
X167989052Y-90993106D01*
X166687000Y-91972800D02*
X167009358Y-91972800D01*
X170344790Y-92634000D02*
X172264790Y-92634000D01*
%TO.N,/A12*%
X170469706Y-90485106D02*
X171348400Y-91363800D01*
X167778632Y-90485106D02*
X170469706Y-90485106D01*
X167246438Y-91017300D02*
X167778632Y-90485106D01*
X166842500Y-91017300D02*
X167246438Y-91017300D01*
X166687000Y-91172800D02*
X166842500Y-91017300D01*
%TO.N,/A8*%
X173526500Y-104425700D02*
X171348400Y-106603800D01*
X173526500Y-103098184D02*
X173526500Y-104425700D01*
X174122000Y-100295030D02*
X174122000Y-102502684D01*
X173948000Y-100121030D02*
X174122000Y-100295030D01*
X173948000Y-92162621D02*
X173948000Y-100121030D01*
X174122000Y-102502684D02*
X173526500Y-103098184D01*
X167673422Y-90231106D02*
X172016485Y-90231106D01*
X167141228Y-90763300D02*
X167673422Y-90231106D01*
X166525249Y-90763300D02*
X167141228Y-90763300D01*
X166277500Y-91011049D02*
X166525249Y-90763300D01*
X172016485Y-90231106D02*
X173948000Y-92162621D01*
X166277500Y-91334551D02*
X166277500Y-91011049D01*
X165887000Y-91725051D02*
X166277500Y-91334551D01*
X165887000Y-91972800D02*
X165887000Y-91725051D01*
%TO.N,/A13*%
X167172518Y-90372800D02*
X168721518Y-88823800D01*
X168721518Y-88823800D02*
X171348400Y-88823800D01*
X166687000Y-90372800D02*
X167172518Y-90372800D01*
%TO.N,/A9*%
X173780500Y-106711700D02*
X171348400Y-109143800D01*
X174376000Y-100189820D02*
X174376000Y-102607894D01*
X174202000Y-100015820D02*
X174376000Y-100189820D01*
X174376000Y-102607894D02*
X173780500Y-103203394D01*
X174202000Y-89584764D02*
X174202000Y-100015820D01*
X172448618Y-87831382D02*
X174202000Y-89584764D01*
X169512412Y-87831382D02*
X172448618Y-87831382D01*
X169388794Y-87955000D02*
X169512412Y-87831382D01*
X167206108Y-89980000D02*
X169231108Y-87955000D01*
X166520000Y-89980000D02*
X167206108Y-89980000D01*
X166277500Y-90222500D02*
X166520000Y-89980000D01*
X173780500Y-103203394D02*
X173780500Y-106711700D01*
X169231108Y-87955000D02*
X169388794Y-87955000D01*
X166277500Y-90534551D02*
X166277500Y-90222500D01*
X165887000Y-90925051D02*
X166277500Y-90534551D01*
X165887000Y-91172800D02*
X165887000Y-90925051D01*
%TO.N,/CLE*%
X162252500Y-90807300D02*
X162687000Y-90372800D01*
X162687000Y-90372800D02*
X163487000Y-90372800D01*
%TO.N,/F1-CE*%
X176780000Y-86110000D02*
X176780000Y-87010000D01*
X176387647Y-85717647D02*
X176780000Y-86110000D01*
X176097646Y-85717647D02*
X176387647Y-85717647D01*
%TO.N,VCC*%
X163887000Y-90661339D02*
X163887000Y-89972800D01*
X163375539Y-91172800D02*
X163887000Y-90661339D01*
X162687000Y-91172800D02*
X163375539Y-91172800D01*
%TO.N,/F-WP1*%
X160677500Y-89430050D02*
X160677500Y-89982300D01*
X160925249Y-89182300D02*
X160677500Y-89430050D01*
X160677500Y-89982300D02*
X160287000Y-90372800D01*
X161480000Y-89182300D02*
X160925249Y-89182300D01*
%TO.N,/ALE*%
X165500000Y-89960000D02*
X165500000Y-89959800D01*
X165500000Y-89959800D02*
X165887000Y-89572800D01*
%TO.N,/A21*%
X165092800Y-90372800D02*
X165087000Y-90372800D01*
X165490000Y-90770000D02*
X165092800Y-90372800D01*
%TO.N,/A20*%
X165168906Y-91172800D02*
X165087000Y-91172800D01*
X165533303Y-91537197D02*
X165168906Y-91172800D01*
%TO.N,/A15*%
X167020306Y-88772800D02*
X166687000Y-88772800D01*
X168787606Y-87005500D02*
X167020306Y-88772800D01*
%TO.N,/A14*%
X169237398Y-87589500D02*
X167254098Y-89572800D01*
X167254098Y-89572800D02*
X166687000Y-89572800D01*
%TO.N,/A10*%
X174034500Y-108997700D02*
X171348400Y-111683800D01*
X174034500Y-103308604D02*
X174034500Y-108997700D01*
X174630000Y-100084610D02*
X174630000Y-102713104D01*
X174630000Y-102713104D02*
X174034500Y-103308604D01*
X174456000Y-99910610D02*
X174630000Y-100084610D01*
X174456000Y-89479554D02*
X174456000Y-99910610D01*
X172504746Y-87528300D02*
X174456000Y-89479554D01*
X170432911Y-87528300D02*
X172504746Y-87528300D01*
X170128611Y-87224000D02*
X170432911Y-87528300D01*
X169086000Y-87224000D02*
X170128611Y-87224000D01*
X167146700Y-89163300D02*
X169086000Y-87224000D01*
X166544249Y-89163300D02*
X167146700Y-89163300D01*
X166277500Y-89734551D02*
X166277500Y-89430049D01*
X165887000Y-90125051D02*
X166277500Y-89734551D01*
X166277500Y-89430049D02*
X166544249Y-89163300D01*
X165887000Y-90372800D02*
X165887000Y-90125051D01*
%TO.N,/N-WP2*%
X158823830Y-91172800D02*
X160287000Y-91172800D01*
X157840605Y-90189575D02*
X158823830Y-91172800D01*
X156985000Y-86988104D02*
X157840605Y-87843709D01*
X157840605Y-87843709D02*
X157840605Y-90189575D01*
D23*
%TO.N,GND*%
X157247500Y-96057500D02*
X156360000Y-95170000D01*
D22*
X157690000Y-96057500D02*
X157247500Y-96057500D01*
%TO.N,VCC*%
X166596800Y-84734300D02*
X166590000Y-84727500D01*
%TO.N,/A24*%
X165087000Y-81641250D02*
X165087000Y-87172800D01*
X165638250Y-81090000D02*
X165087000Y-81641250D01*
X171348400Y-83743800D02*
X168694600Y-81090000D01*
X168694600Y-81090000D02*
X165638250Y-81090000D01*
%TO.N,GND*%
X166602500Y-82640000D02*
X166590000Y-82652500D01*
D23*
X167620000Y-82640000D02*
X166602500Y-82640000D01*
D22*
%TO.N,VCC*%
X165496500Y-87011049D02*
X166590000Y-85917549D01*
X165248751Y-87582300D02*
X165496500Y-87334551D01*
X164925249Y-87582300D02*
X165248751Y-87582300D01*
X164696500Y-87811049D02*
X164925249Y-87582300D01*
X164696500Y-87813500D02*
X164696500Y-87811049D01*
X164287000Y-87972800D02*
X164537200Y-87972800D01*
X165496500Y-87334551D02*
X165496500Y-87011049D01*
X164537200Y-87972800D02*
X164696500Y-87813500D01*
X166590000Y-85917549D02*
X166590000Y-84727500D01*
%TO.N,/A25*%
X167590590Y-86710000D02*
X166349800Y-86710000D01*
X169261290Y-85039300D02*
X167590590Y-86710000D01*
X172719950Y-84780050D02*
X172460700Y-85039300D01*
X172934054Y-84562300D02*
X172719950Y-84776404D01*
X172937700Y-84562300D02*
X172934054Y-84562300D01*
X172719950Y-84776404D02*
X172719950Y-84780050D01*
X175691800Y-81808200D02*
X172937700Y-84562300D01*
X175691800Y-81305400D02*
X175691800Y-81808200D01*
X166349800Y-86710000D02*
X165887000Y-87172800D01*
X172460700Y-85039300D02*
X169261290Y-85039300D01*
%TO.N,/A17*%
X167705240Y-78663800D02*
X171348400Y-78663800D01*
X164833000Y-81536040D02*
X167705240Y-78663800D01*
X164833000Y-86874549D02*
X164833000Y-81536040D01*
X164679915Y-87027634D02*
X164833000Y-86874549D01*
X164679915Y-87390085D02*
X164679915Y-87027634D01*
X164490830Y-87579170D02*
X164679915Y-87390085D01*
X164128379Y-87579170D02*
X164490830Y-87579170D01*
X163889605Y-87817944D02*
X164128379Y-87579170D01*
X163648751Y-88363300D02*
X163889605Y-88122446D01*
X163077500Y-88363300D02*
X163648751Y-88363300D01*
X163889605Y-88122446D02*
X163889605Y-87817944D01*
X162687000Y-87972800D02*
X163077500Y-88363300D01*
%TO.N,/A16*%
X169366500Y-85293300D02*
X166687000Y-87972800D01*
X174083673Y-83933223D02*
X172723596Y-85293300D01*
X172723596Y-85293300D02*
X169366500Y-85293300D01*
%TO.N,/D13*%
X168146500Y-92913300D02*
X166687000Y-94372800D01*
X172158679Y-92913300D02*
X168146500Y-92913300D01*
X173179989Y-93934610D02*
X172158679Y-92913300D01*
X173074500Y-94933184D02*
X173186000Y-94821684D01*
X173186000Y-94659599D02*
X173179989Y-94653588D01*
X173186000Y-94821684D02*
X173186000Y-94659599D01*
X173179989Y-94653588D02*
X173179989Y-93934610D01*
%TO.N,/D12*%
X166296500Y-95582300D02*
X165887000Y-95172800D01*
X167575386Y-95582300D02*
X166296500Y-95582300D01*
X168498843Y-94658843D02*
X167575386Y-95582300D01*
%TO.N,/D14*%
X166280232Y-94766032D02*
X166687000Y-95172800D01*
%TO.N,/D15*%
X165496500Y-94823500D02*
X165500000Y-94820000D01*
X165496500Y-95334551D02*
X165496500Y-94823500D01*
X165887000Y-95725051D02*
X165496500Y-95334551D01*
X165887000Y-95972800D02*
X165887000Y-95725051D01*
%TO.N,VCC*%
X178080000Y-81153600D02*
X175691800Y-78765400D01*
X178080000Y-87010000D02*
X178080000Y-81153600D01*
X152480000Y-98077500D02*
X152575000Y-98172500D01*
X152480000Y-97010000D02*
X152480000Y-98077500D01*
%TO.N,/CE*%
X149975000Y-97841500D02*
X149975000Y-98172500D01*
X151172000Y-96644500D02*
X149975000Y-97841500D01*
X153544500Y-96644500D02*
X151172000Y-96644500D01*
X160242368Y-97172368D02*
X159838613Y-96768613D01*
X159838613Y-96768613D02*
X159003156Y-96768613D01*
X154420000Y-97520000D02*
X153544500Y-96644500D01*
X160242368Y-97887632D02*
X160242368Y-97172368D01*
X160236868Y-97893132D02*
X160242368Y-97887632D01*
X159003156Y-96768613D02*
X158251769Y-97520000D01*
X158251769Y-97520000D02*
X154420000Y-97520000D01*
%TO.N,/F3-CE*%
X151275000Y-99049500D02*
X151275000Y-98172500D01*
X156104979Y-100026000D02*
X152251500Y-100026000D01*
X159615500Y-97134113D02*
X158996866Y-97134113D01*
X152251500Y-100026000D02*
X151275000Y-99049500D01*
X158996866Y-97134113D02*
X156104979Y-100026000D01*
%TO.N,/F4-CE*%
X151300000Y-101230000D02*
X151300000Y-102847500D01*
X156210189Y-100280000D02*
X152250000Y-100280000D01*
X152250000Y-100280000D02*
X151300000Y-101230000D01*
X158957057Y-97533132D02*
X156210189Y-100280000D01*
X159876868Y-97533132D02*
X158957057Y-97533132D01*
%TO.N,/CE*%
X141860000Y-110987500D02*
X150000000Y-102847500D01*
X141860000Y-120090200D02*
X141860000Y-110987500D01*
X140131800Y-121818400D02*
X141860000Y-120090200D01*
%TO.N,/F4-CE*%
X163080000Y-91827549D02*
X164287000Y-90620549D01*
X164287000Y-90620549D02*
X164287000Y-90372800D01*
X163080000Y-92350000D02*
X163080000Y-91827549D01*
%TO.N,/N-RE*%
X163902577Y-91557223D02*
X164287000Y-91172800D01*
X163867223Y-91557223D02*
X163902577Y-91557223D01*
%TO.N,VCC*%
X157714951Y-93957549D02*
X157690000Y-93982500D01*
X159350000Y-93957549D02*
X157714951Y-93957549D01*
X160125249Y-93182300D02*
X159350000Y-93957549D01*
X161087000Y-93572800D02*
X160696500Y-93182300D01*
X160696500Y-93182300D02*
X160125249Y-93182300D01*
%TO.N,/F3-CE*%
X161872800Y-92772800D02*
X161480000Y-92380000D01*
X161887000Y-92772800D02*
X161872800Y-92772800D01*
%TO.N,/A2*%
X158886590Y-89373210D02*
X160287000Y-87972800D01*
X158600500Y-89373210D02*
X158886590Y-89373210D01*
%TO.N,/A3*%
X160696500Y-87582300D02*
X161087000Y-87972800D01*
X159937700Y-87582300D02*
X160696500Y-87582300D01*
X158623507Y-88896493D02*
X159937700Y-87582300D01*
X158616993Y-88896493D02*
X158623507Y-88896493D01*
%TO.N,/A0*%
X160696500Y-89051839D02*
X160287000Y-89461339D01*
X160696500Y-88396500D02*
X160696500Y-89051839D01*
X160287000Y-89461339D02*
X160287000Y-89572800D01*
X160660000Y-88360000D02*
X160696500Y-88396500D01*
%TO.N,VCC*%
X163087000Y-89972800D02*
X162687000Y-89572800D01*
X163887000Y-89972800D02*
X163087000Y-89972800D01*
%TO.N,/A1*%
X159184265Y-89875535D02*
X160287000Y-88772800D01*
X158600500Y-89875535D02*
X159184265Y-89875535D01*
%TO.N,/F2-CE*%
X160975539Y-91972800D02*
X161087000Y-91972800D01*
X160566039Y-91563300D02*
X160975539Y-91972800D01*
X160121949Y-91560000D02*
X160125249Y-91563300D01*
X159250000Y-92400000D02*
X160090000Y-91560000D01*
X160090000Y-91560000D02*
X160121949Y-91560000D01*
X160125249Y-91563300D02*
X160566039Y-91563300D01*
%TO.N,/D8*%
X163487000Y-98125051D02*
X163487000Y-95972800D01*
X167876249Y-102514300D02*
X163487000Y-98125051D01*
X172752200Y-102514300D02*
X167876249Y-102514300D01*
X173070000Y-102196500D02*
X172752200Y-102514300D01*
%TO.N,VCC*%
X163598461Y-88772800D02*
X163487000Y-88772800D01*
X164287000Y-88084261D02*
X163598461Y-88772800D01*
X164287000Y-87972800D02*
X164287000Y-88084261D01*
%TO.N,/A7*%
X161810000Y-85930000D02*
X162687000Y-86807000D01*
X162687000Y-86807000D02*
X162687000Y-87172800D01*
X159613621Y-85930000D02*
X161810000Y-85930000D01*
X158540000Y-88265426D02*
X158540000Y-87003621D01*
X158635582Y-88361008D02*
X158540000Y-88265426D01*
X158540000Y-87003621D02*
X159613621Y-85930000D01*
%TO.N,/A5*%
X162277500Y-87582300D02*
X161887000Y-87972800D01*
X159680831Y-86222000D02*
X161502000Y-86222000D01*
X161502000Y-86222000D02*
X162277500Y-86997500D01*
X158904500Y-86998331D02*
X159680831Y-86222000D01*
X158904500Y-87966720D02*
X158904500Y-86998331D01*
X162277500Y-86997500D02*
X162277500Y-87582300D01*
X158905500Y-87967720D02*
X158904500Y-87966720D01*
%TO.N,/A4*%
X160048937Y-86730000D02*
X160644200Y-86730000D01*
X160644200Y-86730000D02*
X161087000Y-87172800D01*
X159581414Y-87197523D02*
X160048937Y-86730000D01*
%TO.N,/A6*%
X161190200Y-86476000D02*
X161887000Y-87172800D01*
X159215914Y-87046127D02*
X159786041Y-86476000D01*
X159215914Y-87515914D02*
X159215914Y-87046127D01*
X159270000Y-87570000D02*
X159215914Y-87515914D01*
X159786041Y-86476000D02*
X161190200Y-86476000D01*
%TO.N,/D10*%
X164287000Y-95972800D02*
X164287000Y-97179500D01*
%TO.N,/D2*%
X160287000Y-94620549D02*
X160287000Y-94372800D01*
X160696500Y-95030049D02*
X160287000Y-94620549D01*
X160925249Y-95563300D02*
X160696500Y-95334551D01*
X161496500Y-95830049D02*
X161229751Y-95563300D01*
X161229751Y-95563300D02*
X160925249Y-95563300D01*
X161496500Y-96134551D02*
X161496500Y-95830049D01*
X161824491Y-96462542D02*
X161496500Y-96134551D01*
X163007226Y-96462542D02*
X161824491Y-96462542D01*
X160696500Y-95334551D02*
X160696500Y-95030049D01*
%TO.N,/D3*%
X161725249Y-95563300D02*
X161334749Y-95172800D01*
X162286700Y-95563300D02*
X161725249Y-95563300D01*
X161334749Y-95172800D02*
X161087000Y-95172800D01*
X162290000Y-95560000D02*
X162286700Y-95563300D01*
%TO.N,/D4*%
X163089800Y-95570000D02*
X162687000Y-95972800D01*
X163900000Y-95570000D02*
X163089800Y-95570000D01*
%TO.N,/D5*%
X161892327Y-95172800D02*
X161887000Y-95172800D01*
X162299627Y-94765500D02*
X161892327Y-95172800D01*
%TO.N,VPP*%
X160696500Y-93982300D02*
X160287000Y-93572800D01*
X160925249Y-94763300D02*
X160696500Y-94534551D01*
X161470000Y-94763300D02*
X160925249Y-94763300D01*
X160696500Y-94534551D02*
X160696500Y-93982300D01*
%TO.N,GND*%
X162290000Y-88370000D02*
X162290000Y-88766400D01*
%TO.N,VCC*%
X164287000Y-92525051D02*
X164677500Y-92134551D01*
X164287000Y-92772800D02*
X164287000Y-92525051D01*
X164677500Y-92134551D02*
X164677500Y-89595300D01*
X164677500Y-89595300D02*
X164700000Y-89572800D01*
%TO.N,/ADV*%
X163096500Y-89182300D02*
X163487000Y-89572800D01*
X163096500Y-89128949D02*
X163096500Y-89182300D01*
X163098949Y-89126500D02*
X163096500Y-89128949D01*
%TO.N,/D7*%
X163497200Y-95172800D02*
X163487000Y-95172800D01*
X163880000Y-94790000D02*
X163497200Y-95172800D01*
%TO.N,/D6*%
X163079800Y-94780000D02*
X162687000Y-95172800D01*
%TO.N,GND*%
X165487100Y-93977100D02*
X165480000Y-93970000D01*
X165487100Y-94372800D02*
X165487100Y-93977100D01*
%TO.N,VCC*%
X138741300Y-82327900D02*
X140131800Y-83718400D01*
X138741300Y-72408900D02*
X138741300Y-82327900D01*
X140131800Y-71018400D02*
X138741300Y-72408900D01*
X152600000Y-106346600D02*
X152600000Y-102847500D01*
X155371800Y-109118400D02*
X152600000Y-106346600D01*
%TO.N,/F1-CE*%
X161477500Y-91563300D02*
X161887000Y-91972800D01*
X160696500Y-91011049D02*
X160696500Y-91334551D01*
X160925249Y-91563300D02*
X161477500Y-91563300D01*
X161406700Y-90763300D02*
X160944249Y-90763300D01*
X160696500Y-91334551D02*
X160925249Y-91563300D01*
X160944249Y-90763300D02*
X160696500Y-91011049D01*
X161460000Y-90710000D02*
X161406700Y-90763300D01*
%TO.N,/F-WE*%
X162260000Y-89980000D02*
X162280000Y-90000000D01*
X161479800Y-89980000D02*
X162260000Y-89980000D01*
%TO.N,/CE*%
X175490000Y-93890000D02*
X175480000Y-93900000D01*
X175480000Y-87010000D02*
X175490000Y-87020000D01*
X175490000Y-87020000D02*
X175490000Y-93890000D01*
X175480000Y-96430000D02*
X175480000Y-93900000D01*
%TO.N,VCC*%
X161087000Y-91172800D02*
X162290000Y-91172800D01*
X161887000Y-89572800D02*
X161087000Y-89572800D01*
X161087000Y-93572800D02*
X162300000Y-93572800D01*
X162687000Y-89572800D02*
X161887000Y-89572800D01*
X164700000Y-89572800D02*
X165087000Y-89572800D01*
X164287000Y-93572800D02*
X165087000Y-93572800D01*
X164287000Y-92772800D02*
X164287000Y-93572800D01*
X178080000Y-87010000D02*
X178080000Y-93900000D01*
X162287000Y-91175800D02*
X162290000Y-91172800D01*
X162300000Y-93572800D02*
X162687000Y-93572800D01*
X162287000Y-93559800D02*
X162287000Y-91175800D01*
X162290000Y-91172800D02*
X162687000Y-91172800D01*
X164287000Y-89572800D02*
X164700000Y-89572800D01*
X164287000Y-89572800D02*
X163887000Y-89972800D01*
X165087000Y-93572800D02*
X165887000Y-93572800D01*
%TO.N,/D7*%
X140323400Y-76098400D02*
X140131800Y-76098400D01*
%TO.N,VCC*%
X152600000Y-98197500D02*
X152575000Y-98172500D01*
X162300000Y-93572800D02*
X162287000Y-93559800D01*
X161887000Y-90372800D02*
X161887000Y-91172800D01*
X163487000Y-88772800D02*
X164287000Y-89572800D01*
X162687000Y-93572800D02*
X163487000Y-94372800D01*
%TO.N,/CE*%
X149975000Y-98172500D02*
X150025000Y-98222500D01*
X150025000Y-102822500D02*
X150000000Y-102847500D01*
X150025000Y-98222500D02*
X150025000Y-102822500D01*
%TO.N,/F-WE*%
X161479800Y-89980000D02*
X161087000Y-90372800D01*
%TO.N,/A11*%
X166687000Y-91972800D02*
X166722800Y-91972800D01*
%TO.N,GND*%
X163487000Y-92772800D02*
X164287000Y-91972800D01*
X164287000Y-94372800D02*
X165087000Y-94372800D01*
X161087000Y-88772800D02*
X161887000Y-88772800D01*
X165087000Y-88772800D02*
X164687100Y-88772800D01*
X163092600Y-93167200D02*
X163081400Y-93167200D01*
X162687000Y-91972800D02*
X162687000Y-92772800D01*
X165887000Y-87972800D02*
X165887000Y-88772800D01*
X164687100Y-88772800D02*
X164687100Y-88372800D01*
X165487100Y-94372800D02*
X165887000Y-94372800D01*
X163092600Y-93167200D02*
X163487000Y-92772800D01*
X163081400Y-93167200D02*
X162687000Y-92772800D01*
X162310000Y-94367800D02*
X162310000Y-93970000D01*
X163487000Y-93572800D02*
X164287000Y-94372800D01*
X165887000Y-88772800D02*
X165087000Y-88772800D01*
X162687000Y-94372800D02*
X161887000Y-94372800D01*
X165087000Y-94372800D02*
X165487100Y-94372800D01*
X163092600Y-93167200D02*
X163092600Y-93178400D01*
X163092600Y-93178400D02*
X163487000Y-93572800D01*
X164687100Y-88772800D02*
X164287000Y-88772800D01*
X161887000Y-88772800D02*
X162280000Y-88772800D01*
X161087000Y-94372800D02*
X161087000Y-94363000D01*
X161475000Y-94372800D02*
X161887000Y-94372800D01*
X162280000Y-88772800D02*
X162687000Y-88772800D01*
X161087000Y-94372800D02*
X161475000Y-94372800D01*
%TD*%
M02*
