M48
; DRILL file {KiCad 8.0.7} date 2025-02-11T22:57:14-0500
; FORMAT={-:-/ absolute / inch / decimal}
; #@! TF.CreationDate,2025-02-11T22:57:14-05:00
; #@! TF.GenerationSoftware,Kicad,Pcbnew,8.0.7
; #@! TF.FileFunction,Plated,1,2,PTH
FMAT,2
INCH
; #@! TA.AperFunction,Plated,PTH,ViaDrill
T1C0.0079
; #@! TA.AperFunction,Plated,PTH,ComponentDrill
T2C0.0315
; #@! TA.AperFunction,Plated,PTH,ComponentDrill
T3C0.0394
%
G90
G05
T1
X5.9217Y-2.6694
X6.0031Y-3.8193
X6.0201Y-3.3787
X6.0407Y-3.379
X6.1559Y-3.7469
X6.1805Y-3.4247
X6.2276Y-2.5494
X6.2419Y-2.5669
X6.2441Y-3.5186
X6.2441Y-3.5384
X6.2448Y-3.4999
X6.2455Y-3.4788
X6.2561Y-3.4633
X6.2697Y-3.6378
X6.2705Y-3.4476
X6.2827Y-3.433
X6.2841Y-3.8242
X6.2944Y-3.8399
X6.2983Y-2.6406
X6.3029Y-2.5349
X6.3085Y-3.8541
X6.3252Y-3.4787
X6.3567Y-3.5713
X6.3571Y-3.7308
X6.3575Y-3.5111
X6.3575Y-3.637
X6.3879Y-3.5751
X6.389Y-3.4787
X6.389Y-3.5433
X6.3894Y-3.7622
X6.3897Y-3.7309
X6.3902Y-3.6996
X6.4176Y-3.7977
X6.4177Y-2.5436
X6.4205Y-3.7315
X6.4205Y-3.6358
X6.421Y-3.668
X6.4212Y-3.5089
X6.4364Y-2.5336
X6.4515Y-3.6046
X6.452Y-3.7319
X6.4528Y-3.7626
X6.4551Y-2.7711
X6.4552Y-2.5236
X6.4609Y-3.4063
X6.468Y-3.826
X6.4831Y-3.6685
X6.4837Y-3.4792
X6.515Y-3.6996
X6.5154Y-3.5736
X6.5157Y-3.5417
X6.5157Y-3.7331
X6.5171Y-3.6038
X6.5465Y-3.7309
X6.5992Y-3.2535
X6.6206Y-3.5986
X6.6338Y-3.7267
X6.6452Y-3.4254
X6.6629Y-3.4484
X6.6748Y-3.9544
X6.8033Y-3.0336
X6.8138Y-4.0235
X6.814Y-3.7375
X6.814Y-3.7563
X6.824Y-3.9319
X6.8408Y-3.9785
X6.8408Y-3.9972
X6.8537Y-3.3045
X6.8945Y-4.0162
X6.9087Y-3.7965
X6.933Y-3.3747
X6.9591Y-3.9579
X7.0254Y-3.2823
T2
X5.517Y-2.496
X5.517Y-2.596
X5.517Y-2.696
X5.517Y-2.796
X5.517Y-2.896
X5.517Y-2.996
X5.517Y-3.096
X5.517Y-3.196
X5.517Y-3.296
X5.517Y-3.396
X5.517Y-3.496
X5.517Y-3.596
X5.517Y-3.696
X5.517Y-3.796
X5.517Y-3.896
X5.517Y-3.996
X5.517Y-4.096
X5.517Y-4.196
X5.517Y-4.296
X5.517Y-4.396
X5.517Y-4.496
X5.517Y-4.596
X5.517Y-4.696
X5.517Y-4.796
X6.117Y-2.496
X6.117Y-2.596
X6.117Y-2.696
X6.117Y-2.796
X6.117Y-2.896
X6.117Y-2.996
X6.117Y-3.096
X6.117Y-3.196
X6.117Y-3.296
X6.117Y-3.396
X6.117Y-3.496
X6.117Y-3.596
X6.117Y-3.696
X6.117Y-3.796
X6.117Y-3.896
X6.117Y-3.996
X6.117Y-4.096
X6.117Y-4.196
X6.117Y-4.296
X6.117Y-4.396
X6.117Y-4.496
X6.117Y-4.596
X6.117Y-4.696
X6.117Y-4.796
X6.746Y-2.497
X6.746Y-2.597
X6.746Y-2.697
X6.746Y-2.797
X6.746Y-2.897
X6.746Y-2.997
X6.746Y-3.097
X6.746Y-3.197
X6.746Y-3.297
X6.746Y-3.397
X6.746Y-3.497
X6.746Y-3.597
X6.746Y-3.697
X6.746Y-3.797
X6.746Y-3.897
X6.746Y-3.997
X6.746Y-4.097
X6.746Y-4.197
X6.746Y-4.297
X6.746Y-4.397
X6.746Y-4.497
X6.746Y-4.597
X6.746Y-4.697
X6.746Y-4.797
X7.346Y-2.497
X7.346Y-2.597
X7.346Y-2.697
X7.346Y-2.797
X7.346Y-2.897
X7.346Y-2.997
X7.346Y-3.097
X7.346Y-3.197
X7.346Y-3.297
X7.346Y-3.397
X7.346Y-3.497
X7.346Y-3.597
X7.346Y-3.697
X7.346Y-3.797
X7.346Y-3.897
X7.346Y-3.997
X7.346Y-4.097
X7.346Y-4.197
X7.346Y-4.297
X7.346Y-4.397
X7.346Y-4.497
X7.346Y-4.597
X7.346Y-4.697
X7.346Y-4.797
T3
X6.917Y-2.501
X6.917Y-2.601
X6.917Y-2.701
X6.917Y-2.801
X6.917Y-2.901
X6.917Y-3.001
X6.917Y-3.101
X6.917Y-3.201
M30
